<?xml version="1.0" encoding="utf-8"?>
<!-- Generator: Adobe Illustrator 23.0.1, SVG Export Plug-In . SVG Version: 6.00 Build 0)  -->
<svg version="1.1" id="Layer_1" xmlns="http://www.w3.org/2000/svg" xmlns:xlink="http://www.w3.org/1999/xlink" x="0px" y="0px"
	 viewBox="0 0 46.3 39" style="enable-background:new 0 0 46.3 39;" xml:space="preserve">
<style type="text/css">
	.st0{fill:#DFE3EB;}
	.st1{fill:#D31616;}
</style>
<g id="mail-black-back-envelope" transform="translate(0 -48.875)">
	<path id="Path_439" class="st0" d="M36.3,62.2v25.8H0V62.2l18.2,15.9L36.3,62.2z M34.6,60.7H1.7L18.2,75L34.6,60.7z"/>
	<g id="diagonal-arrow" transform="translate(36.024 48.875) rotate(45)">
		<g id="Group_229" transform="translate(14.522 0) rotate(90)">
			<path id="Path_434" class="st1" d="M14.3,10.9c-0.1,0.1-0.3,0-0.4-0.1l-2.6-2.6L5,14.4c-0.1,0.1-0.4,0.1-0.5,0l-4.4-4.4
				C0,9.9,0,9.7,0.1,9.5l6.3-6.3L3.7,0.6c-0.1-0.1-0.1-0.4,0-0.5C3.8,0,3.9,0,4,0l10.2,0c0.2,0,0.4,0.2,0.4,0.4v10.2
				C14.5,10.7,14.4,10.8,14.3,10.9z"/>
		</g>
	</g>
</g>
</svg>
