<?xml version="1.0" encoding="utf-8"?>
<!-- Generator: Adobe Illustrator 23.0.1, SVG Export Plug-In . SVG Version: 6.00 Build 0)  -->
<svg version="1.1" id="Layer_1" xmlns="http://www.w3.org/2000/svg" xmlns:xlink="http://www.w3.org/1999/xlink" x="0px" y="0px"
	 viewBox="0 0 36.2 36.1" style="enable-background:new 0 0 36.2 36.1;" xml:space="preserve">
<style type="text/css">
	.st0{fill:#DFE3EB;}
	.st1{fill:#D31616;}
</style>
<g id="phone-call-auricular-symbol-in-black" transform="translate(0.001 0.326)">
	<path id="Path_428" class="st0" d="M35.7,28.5L35.5,28c-0.5-1.4-1.7-2.4-3.1-2.9l-4.7-1.3c-1.4-0.3-2.9,0.1-4,1.1L22,26.6
		c-6.2-1.7-11-6.5-12.7-12.7l1.7-1.7c1-1.1,1.4-2.6,1.1-4l-1.3-4.7C10.2,2,9.2,0.9,7.8,0.3L7.3,0.2c-1.4-0.4-2.9,0-4,0.9L0.7,3.6
		C0.4,4.2,0.1,4.8,0,5.4C-0.2,22,13.1,35.6,29.7,35.8c0.2,0,0.4,0,0.6,0c0.7-0.1,1.3-0.4,1.8-0.7l2.5-2.5
		C35.7,31.4,36,29.9,35.7,28.5z"/>
	<g id="diagonal-arrow" transform="translate(21.685 -0.326)">
		<g id="Group_229" transform="translate(14.522 0) rotate(90)">
			<path id="Path_434" class="st1" d="M14.3,3.7c-0.1-0.1-0.3,0-0.4,0.1l-2.6,2.6L5,0.1C4.8,0,4.6,0,4.5,0.1L0.1,4.5
				C0,4.6,0,4.8,0.1,5l6.3,6.3l-2.6,2.6c-0.1,0.1-0.1,0.4,0,0.5c0.1,0.1,0.2,0.1,0.3,0.1h10.2c0.2,0,0.4-0.2,0.4-0.4V4
				C14.5,3.8,14.4,3.7,14.3,3.7z"/>
		</g>
	</g>
</g>
</svg>
