<svg xmlns="http://www.w3.org/2000/svg" xmlns:xlink="http://www.w3.org/1999/xlink" width="795.873" height="493.562" viewBox="0 0 795.873 493.562">
  <defs>
    <linearGradient id="linear-gradient" x1="0.087" y1="0.233" x2="0.917" y2="0.779" gradientUnits="objectBoundingBox">
      <stop offset="0" stop-color="#214995"/>
      <stop offset="1" stop-color="#002262"/>
      <stop offset="1" stop-color="#32569a"/>
    </linearGradient>
  </defs>
  <g id="Group_324" data-name="Group 324" transform="translate(-0.652 0.058)">
    <g id="ecran">
      <g id="Rectangle_31" data-name="Rectangle 31" transform="translate(0.653 0)" fill="#fff" stroke="#cecece" stroke-width="1">
        <rect width="700.681" height="441.188" stroke="none"/>
        <rect x="0.5" y="0.5" width="699.681" height="440.188" fill="none"/>
      </g>
      <g id="Rectangle_33" data-name="Rectangle 33" transform="translate(1 -0.058)" fill="#fafafa" stroke="#cecece" stroke-width="1">
        <rect width="700" height="37" stroke="none"/>
        <rect x="0.5" y="0.5" width="699" height="36" fill="none"/>
      </g>
      <g id="Ellipse_13" data-name="Ellipse 13" transform="translate(26.201 13.81)" fill="#d55050" stroke="#c14848" stroke-width="1">
        <ellipse cx="4.527" cy="4.527" rx="4.527" ry="4.527" stroke="none"/>
        <ellipse cx="4.527" cy="4.527" rx="4.027" ry="4.027" fill="none"/>
      </g>
      <g id="Ellipse_14" data-name="Ellipse 14" transform="translate(39.781 13.81)" fill="#fad27a" stroke="#f2cb76" stroke-width="1">
        <ellipse cx="4.527" cy="4.527" rx="4.527" ry="4.527" stroke="none"/>
        <ellipse cx="4.527" cy="4.527" rx="4.027" ry="4.027" fill="none"/>
      </g>
      <g id="Ellipse_15" data-name="Ellipse 15" transform="translate(53.361 13.81)" fill="#78c760" stroke="#70ba5a" stroke-width="1">
        <ellipse cx="4.527" cy="4.527" rx="4.527" ry="4.527" stroke="none"/>
        <ellipse cx="4.527" cy="4.527" rx="4.027" ry="4.027" fill="none"/>
      </g>
      <g id="Rectangle_34" data-name="Rectangle 34" transform="translate(146 6.942)" fill="#fff" stroke="#cecece" stroke-width="1">
        <rect width="385" height="23" stroke="none"/>
        <rect x="0.5" y="0.5" width="384" height="22" fill="none"/>
      </g>
      <text id="Adresa_ta_de_website_3" data-name="Adresa ta de website &lt;3" transform="translate(176 21.942)" fill="#606060" font-size="10" font-family="Axiforma-Regular, Axiforma"><tspan x="0" y="0">Adresa ta de website &lt;3</tspan></text>
      <rect id="Rectangle_35" data-name="Rectangle 35" width="11" height="13" transform="translate(80 11.942)" fill="#ededed"/>
      <rect id="Rectangle_36" data-name="Rectangle 36" width="12" height="13" transform="translate(105 11.942)" fill="#ededed"/>
      <rect id="Rectangle_37" data-name="Rectangle 37" width="12" height="13" transform="translate(588 11.942)" fill="#ededed"/>
      <rect id="Rectangle_38" data-name="Rectangle 38" width="11" height="13" transform="translate(615 11.942)" fill="#ededed"/>
      <rect id="Rectangle_39" data-name="Rectangle 39" width="11" height="13" transform="translate(639 11.942)" fill="#ededed"/>
      <rect id="Rectangle_40" data-name="Rectangle 40" width="265.03" height="52.476" transform="translate(53.13 65.595)" fill="#eaeaea"/>
      <rect id="Rectangle_43" data-name="Rectangle 43" width="298" height="135" transform="translate(380 65.942)" fill="#eaeaea"/>
      <rect id="Rectangle_44" data-name="Rectangle 44" width="298" height="7" transform="translate(380 234.942)" fill="#eaeaea"/>
      <rect id="Rectangle_49" data-name="Rectangle 49" width="298" height="8" transform="translate(380 285.942)" fill="#eaeaea"/>
      <rect id="Rectangle_52" data-name="Rectangle 52" width="298" height="7" transform="translate(380 336.942)" fill="#eaeaea"/>
      <rect id="Rectangle_45" data-name="Rectangle 45" width="298" height="7" transform="translate(380 250.942)" fill="#eaeaea"/>
      <rect id="Rectangle_48" data-name="Rectangle 48" width="298" height="7" transform="translate(380 303.942)" fill="#eaeaea"/>
      <rect id="Rectangle_51" data-name="Rectangle 51" width="298" height="8" transform="translate(380 354.942)" fill="#eaeaea"/>
      <rect id="Rectangle_46" data-name="Rectangle 46" width="298" height="6" transform="translate(380 268.942)" fill="#eaeaea"/>
      <rect id="Rectangle_47" data-name="Rectangle 47" width="298" height="7" transform="translate(380 320.942)" fill="#eaeaea"/>
      <rect id="Rectangle_50" data-name="Rectangle 50" width="298" height="8" transform="translate(380 371.942)" fill="#eaeaea"/>
      <rect id="Rectangle_53" data-name="Rectangle 53" width="298" height="8" transform="translate(380 389.942)" fill="#eaeaea"/>
      <rect id="Rectangle_41" data-name="Rectangle 41" width="265.03" height="52.476" transform="translate(53.13 147.072)" fill="#eaeaea"/>
      <rect id="Rectangle_42" data-name="Rectangle 42" width="265.03" height="174.001" transform="translate(53.13 228.548)" fill="#eaeaea"/>
    </g>
    <path id="Path_216" data-name="Path 216" d="M79.871.063c-1.182-.428-1.954,1.44-.852,2.025C103.235,14.931,105.9,48.783,93.048,70.6,80.815,91.364,55.716,100.1,33,94.461q5.374-7.061,10.747-14.12c1.206-1.583-.778-3.271-2.31-3q-20.093,3.479-39.9,8.269a2.057,2.057,0,0,0-1.222,3,119.105,119.105,0,0,0,28.593,26.968c1.2.8,3.259-.238,3.075-1.764L30.049,97.909c26.351,7.575,56.135-3.714,68.513-28.947C109.505,46.656,106.6,9.76,79.871.063ZM5.667,88.84q15.678-3.708,31.521-6.589-4.181,5.494-8.365,10.987c-.207-.068-.419-.116-.624-.187a2.052,2.052,0,0,0-2.586,1.969q.882,7.255,1.76,14.512A112.64,112.64,0,0,1,5.667,88.84Z" transform="matrix(0.799, 0.602, -0.602, 0.799, 713.041, 338.066)" fill="#6380b7"/>
    <g id="button" transform="translate(583.417 323.144)">
      <g id="_2" data-name="2">
        <ellipse id="Ellipse_11" data-name="Ellipse 11" cx="45.045" cy="45.287" rx="45.045" ry="45.287" fill="#d1dff8"/>
        <ellipse id="Ellipse_7" data-name="Ellipse 7" cx="40.445" cy="40.203" rx="40.445" ry="40.203" transform="translate(4.358 5.326)" fill="#9fb3d8"/>
        <circle id="Ellipse_3" data-name="Ellipse 3" cx="35.603" cy="35.603" r="35.603" transform="translate(8.715 9.683)" fill="#6380b7"/>
        <circle id="Ellipse_2" data-name="Ellipse 2" cx="29.663" cy="29.663" r="29.663" transform="translate(14.827 15.453)" fill="#32569a"/>
      </g>
      <g id="_1" data-name="1" transform="translate(20.657 21.282)">
        <circle id="Ellipse_1" data-name="Ellipse 1" cx="23.662" cy="23.662" r="23.662" fill="url(#linear-gradient)"/>
        <g id="solicită_apel" data-name="solicită apel" transform="translate(12.002 12.002)">
          <g id="call" transform="translate(0)">
            <path id="Path_1" data-name="Path 1" d="M4.726,10.24a20.439,20.439,0,0,0,8.665,8.665l2.888-2.888a1.045,1.045,0,0,1,1.313-.263,13.732,13.732,0,0,0,4.726.788,1.24,1.24,0,0,1,1.313,1.313v4.464a1.24,1.24,0,0,1-1.313,1.313A22.3,22.3,0,0,1,0,1.313,1.24,1.24,0,0,1,1.313,0H5.908A1.24,1.24,0,0,1,7.221,1.313a14.868,14.868,0,0,0,.788,4.726,1.617,1.617,0,0,1-.263,1.313Z" transform="translate(0)" fill="#f8fbfd"/>
          </g>
        </g>
      </g>
    </g>
  </g>
</svg>
