<svg xmlns="http://www.w3.org/2000/svg" xmlns:xlink="http://www.w3.org/1999/xlink" width="555.895" height="407.788" viewBox="0 0 555.895 407.788">
  <defs>
    <linearGradient id="linear-gradient" x1="0.087" y1="0.233" x2="0.917" y2="0.779" gradientUnits="objectBoundingBox">
      <stop offset="0" stop-color="#214995"/>
      <stop offset="1" stop-color="#002262"/>
      <stop offset="1" stop-color="#32569a"/>
    </linearGradient>
  </defs>
  <g id="Group_323" data-name="Group 323" transform="translate(0)">
    <g id="Group_127" data-name="Group 127" transform="translate(458.893 166.284)">
      <ellipse id="Ellipse_16" data-name="Ellipse 16" cx="37.072" cy="37.072" rx="37.072" ry="37.072" transform="translate(0 75.225) rotate(-76.867)" fill="#232427" opacity="0.1"/>
      <g id="Group_138" data-name="Group 138" transform="translate(12.392 0)">
        <g id="Group_132" data-name="Group 132">
          <path id="Path_217" data-name="Path 217" d="M227.562,162.764v-6.3a11.8,11.8,0,0,0-11.8-11.8H192.846a11.8,11.8,0,0,0-11.8,11.8v6.3Z" transform="translate(-172.599 -77.022)" fill="#90a633"/>
          <path id="Path_218" data-name="Path 218" d="M210.665,165.462l-.5-4.474h-3.454l-.416,4.474Z" transform="translate(-176.773 -79.721)" fill="#232427"/>
          <path id="Path_219" data-name="Path 219" d="M213.719,155.866l-5.791,7.43-6.022-7.233,3.2-3.491h5.389Z" transform="translate(-176.047 -78.329)" fill="#364456"/>
          <path id="Path_220" data-name="Path 220" d="M199.117,144.669h0c-2.854,0-4.313,2.314-4.313,5.169v9.951l10.781-6.936S199.117,149.46,199.117,144.669Z" transform="translate(-174.873 -77.022)" fill="#c2c243"/>
          <path id="Path_221" data-name="Path 221" d="M216.738,144.669h0c2.855,0,4.419,2.314,4.419,5.169v9.951l-10.548-6.936S216.738,149.46,216.738,144.669Z" transform="translate(-177.486 -77.022)" fill="#c2c243"/>
          <g id="Group_131" data-name="Group 131" transform="translate(10.756)">
            <g id="Group_129" data-name="Group 129" transform="translate(0.56 19.536)">
              <g id="Group_128" data-name="Group 128">
                <path id="Path_222" data-name="Path 222" d="M215.042,127.638V147.2q-7.5,5.678-15.007,0v-19.56Z" transform="translate(-187.054 -93.742)" fill="#f9b587"/>
                <path id="Path_223" data-name="Path 223" d="M215.042,128.525v11.218c-5.755,3.973-11.218,2.257-15.007.213v-11.43Z" transform="translate(-187.054 -93.888)" fill="#f5896a"/>
                <path id="Path_224" data-name="Path 224" d="M226.393,98.942c0,16.92-9.381,30.636-20.955,30.636-10.421,0-19.064-11.12-20.682-25.687l0,0a44.878,44.878,0,0,1-.271-4.946A43.223,43.223,0,0,1,185.9,87.833c.07-.271.146-.539.223-.807H224.75A43.105,43.105,0,0,1,226.393,98.942Z" transform="translate(-184.482 -87.026)" fill="#f9b587"/>
                <path id="Path_225" data-name="Path 225" d="M205.349,113.916s.367-2.385,3.548-2.385,3.67,2.385,3.67,2.385Z" transform="translate(-187.933 -91.078)" fill="#f5896a"/>
                <g id="Group_127-2" data-name="Group 127" transform="translate(12.564 28.395)">
                  <path id="Path_226" data-name="Path 226" d="M216.318,121.115a8.391,8.391,0,1,1-16.783,0c0-.023,0-.045,0-.068h16.78C216.316,121.07,216.318,121.092,216.318,121.115Z" transform="translate(-199.535 -121.047)" fill="#920e08"/>
                  <path id="Path_227" data-name="Path 227" d="M216.318,121.115a8.393,8.393,0,0,1-.134,1.5H199.669a8.389,8.389,0,0,1-.134-1.5c0-.023,0-.045,0-.068h16.78C216.316,121.07,216.318,121.092,216.318,121.115Z" transform="translate(-199.535 -121.047)" fill="#fff"/>
                  <path id="Path_228" data-name="Path 228" d="M214.533,127.477a8.389,8.389,0,0,1-12.331,0,9.216,9.216,0,0,1,12.331,0Z" transform="translate(-199.976 -121.719)" fill="#f35c66"/>
                </g>
                <path id="Path_229" data-name="Path 229" d="M199.864,104.537c0,1.633-.895,2.957-2,2.957s-2-1.324-2-2.957.894-2.958,2-2.958S199.864,102.9,199.864,104.537Z" transform="translate(-186.365 -89.433)" fill="#082e43"/>
                <ellipse id="Ellipse_17" data-name="Ellipse 17" cx="1.998" cy="2.957" rx="1.998" ry="2.957" transform="translate(27.988 12.147)" fill="#082e43"/>
                <path id="Path_230" data-name="Path 230" d="M202.362,95.06a13.2,13.2,0,0,0-9.488,1.134l.527,2.378a16.334,16.334,0,0,1,8.8-.939Z" transform="translate(-185.87 -88.287)" fill="#5f0510"/>
                <path id="Path_231" data-name="Path 231" d="M215.569,95.026a13.2,13.2,0,0,1,9.449,1.424l-.6,2.36a16.329,16.329,0,0,0-8.767-1.208Z" transform="translate(-189.623 -88.296)" fill="#5f0510"/>
              </g>
            </g>
            <path id="Path_232" data-name="Path 232" d="M186.451,84.086s2.654-14.838,18.841-14.838,19.783,14.838,19.783,14.838S200.887,87.23,186.451,84.086Z" transform="translate(-184.248 -64.551)" fill="#f9b587"/>
            <g id="Group_130" data-name="Group 130">
              <path id="Path_233" data-name="Path 233" d="M195.619,71.72s1.86,8.44-4.5,12.775-5.361,10.285-5.361,10.285h-1.95l.306-10.285S183.829,73.64,195.619,71.72Z" transform="translate(-183.811 -64.959)" fill="#5f0510"/>
              <path id="Path_234" data-name="Path 234" d="M221.483,71.72s-1.86,8.44,4.5,12.775,5.361,10.285,5.361,10.285h1.951l-.307-10.285S233.272,73.64,221.483,71.72Z" transform="translate(-189.999 -64.959)" fill="#5f0510"/>
              <path id="Path_235" data-name="Path 235" d="M222.222,75.986s-15,6.17-34.779.45c0,0-1.012-9.372,9.9-11.7a51.778,51.778,0,0,1,6.24-.963h0c7.426-.658,12.994.82,16.886,4.187q.2.17.392.349C225.23,72.348,222.222,75.986,222.222,75.986Z" transform="translate(-184.408 -63.62)" fill="#83320d"/>
              <path id="Path_236" data-name="Path 236" d="M222.222,76.016s-15,6.17-34.779.45c0,0-1.012-9.372,9.9-11.7a51.778,51.778,0,0,1,6.24-.963c-.275.061-8.191,1.862-7.369,6.608.838,4.83,21.563,5.7,24.149,1.7a3.892,3.892,0,0,0,.108-4.122q.2.17.392.349C225.23,72.378,222.222,76.016,222.222,76.016Z" transform="translate(-184.408 -63.65)" fill="#5f0510"/>
            </g>
          </g>
          <path id="Path_237" data-name="Path 237" d="M189.244,144.858s-12.063,1.043-18.32,17.937h17.1Z" transform="translate(-170.924 -77.054)" fill="#90a633"/>
          <path id="Path_238" data-name="Path 238" d="M225.16,144.858s12.063,1.043,18.32,17.937h-17.1Z" transform="translate(-179.893 -77.054)" fill="#90a633"/>
        </g>
        <g id="Group_137" data-name="Group 137" transform="translate(4.308 3.961)">
          <g id="Group_133" data-name="Group 133" transform="translate(46.605 22.493)">
            <path id="Path_239" data-name="Path 239" d="M231.925,114.241h0a6.337,6.337,0,0,0,6.975-5.627l.676-6.323a6.336,6.336,0,0,0-5.626-6.974h0Z" transform="translate(-231.925 -95.316)" fill="#082e43"/>
            <path id="Path_240" data-name="Path 240" d="M237.166,101.561a4.855,4.855,0,0,1,.591.024,4.639,4.639,0,1,1-.987,9.226,4.731,4.731,0,0,1-.583-.1Z" transform="translate(-232.63 -96.349)" fill="#082e43"/>
          </g>
          <g id="Group_134" data-name="Group 134" transform="translate(0 22.493)">
            <path id="Path_241" data-name="Path 241" d="M185.674,114.241h0a6.336,6.336,0,0,1-6.974-5.627l-.677-6.323a6.336,6.336,0,0,1,5.626-6.974h0Z" transform="translate(-176.4 -95.316)" fill="#082e43"/>
            <path id="Path_242" data-name="Path 242" d="M180.823,101.561a4.855,4.855,0,0,0-.591.024,4.639,4.639,0,1,0,.987,9.226,4.728,4.728,0,0,0,.583-.1Z" transform="translate(-176.086 -96.349)" fill="#082e43"/>
          </g>
          <g id="Group_135" data-name="Group 135" transform="translate(4.094)">
            <path id="Path_243" data-name="Path 243" d="M229.063,92.4h-1.455a22.581,22.581,0,1,0-45.161,0h-1.456a24.036,24.036,0,1,1,48.072,0Z" transform="translate(-180.991 -68.366)" fill="#082e43"/>
          </g>
          <g id="Group_136" data-name="Group 136" transform="translate(5.992 38.396)">
            <path id="Path_244" data-name="Path 244" d="M201.959,131.576c-9.455,0-14.043-4.68-16.226-8.605a20.256,20.256,0,0,1-2.468-8.57l1.455-.032a19.111,19.111,0,0,0,2.311,7.942c2.9,5.183,7.927,7.811,14.928,7.811Z" transform="translate(-183.265 -114.369)" fill="#082e43"/>
          </g>
          <path id="Path_245" data-name="Path 245" d="M209.405,135.265h-4.171a1.825,1.825,0,0,1-1.825-1.825h0a1.825,1.825,0,0,1,1.825-1.824h4.171a1.825,1.825,0,0,1,1.825,1.824h0A1.825,1.825,0,0,1,209.405,135.265Z" transform="translate(-180.604 -78.825)" fill="#082e43"/>
        </g>
      </g>
    </g>
    <g id="Group_128-2" data-name="Group 128" transform="translate(458.907 315.847)">
      <ellipse id="Ellipse_18" data-name="Ellipse 18" cx="37.072" cy="37.072" rx="37.072" ry="37.072" transform="translate(0 74.431) rotate(-76.34)" fill="#232427" opacity="0.1"/>
      <g id="Group_147" data-name="Group 147" transform="translate(14.666 0)">
        <g id="Group_141" data-name="Group 141">
          <path id="Path_246" data-name="Path 246" d="M376.792,161.994H315.908c.086-1.675.213-3.253.342-4.689.012-.149.028-.3.045-.442a15.653,15.653,0,0,1,10.127-12.812l3.006-1.087,1.23-.445a18.426,18.426,0,0,1,4.025-.712l23.069-.351a16.878,16.878,0,0,1,6.186,1.648l3.4,1.443a17.521,17.521,0,0,1,5.744,3.908c2.925,3.022,3.055,5.444,3.381,9.067C376.585,158.9,376.7,160.4,376.792,161.994Z" transform="translate(-315.908 -76.874)" fill="#bfdbda"/>
          <path id="Path_247" data-name="Path 247" d="M355.083,164.955l-.625-5.592h-3.523l-.52,5.592Z" transform="translate(-321.614 -79.835)" fill="#232427"/>
          <path id="Path_248" data-name="Path 248" d="M357.784,152.495l-5.749,7.377-5.978-7.181,3.177-3.466h5.35Z" transform="translate(-320.893 -78.159)" fill="#364456"/>
          <path id="Path_249" data-name="Path 249" d="M359.192,124.47v19.419q-7.449,5.636-14.9,0V124.47Z" transform="translate(-320.602 -74.065)" fill="#f9b587"/>
          <path id="Path_250" data-name="Path 250" d="M359.192,125.351v12.2c-5.814,4.311-11.836,1.987-14.9.231V125.351Z" transform="translate(-320.602 -74.211)" fill="#f5896a"/>
          <path id="Path_251" data-name="Path 251" d="M370.46,94.133c0,16.8-9.314,30.415-20.8,30.415-10.346,0-18.925-11.04-20.533-25.5l0,0a44.444,44.444,0,0,1-.27-4.91,42.945,42.945,0,0,1,1.41-11.028c.07-.269.146-.535.221-.8,0,0,4.55-9.329,18.707-9.329s19.64,9.329,19.64,9.329A42.784,42.784,0,0,1,370.46,94.133Z" transform="translate(-318.048 -65.55)" fill="#f9b587"/>
          <path id="Path_252" data-name="Path 252" d="M349.569,110.847s.365-2.368,3.522-2.368,3.643,2.368,3.643,2.368Z" transform="translate(-321.474 -71.421)" fill="#f5896a"/>
          <g id="Group_140" data-name="Group 140" transform="translate(23.277 44.944)">
            <path id="Path_253" data-name="Path 253" d="M360.459,117.995a8.332,8.332,0,0,1-16.529,1.49,8.351,8.351,0,0,1-.133-1.49c0-.023,0-.044,0-.068h16.659C360.457,117.95,360.459,117.971,360.459,117.995Z" transform="translate(-343.797 -117.927)" fill="#920e08"/>
            <path id="Path_254" data-name="Path 254" d="M360.459,117.995a8.267,8.267,0,0,1-.134,1.49h-16.4a8.351,8.351,0,0,1-.133-1.49c0-.023,0-.044,0-.068h16.659C360.457,117.95,360.459,117.971,360.459,117.995Z" transform="translate(-343.797 -117.927)" fill="#fff"/>
            <path id="Path_255" data-name="Path 255" d="M358.687,124.31a8.328,8.328,0,0,1-12.242,0,9.148,9.148,0,0,1,12.242,0Z" transform="translate(-344.235 -118.594)" fill="#f35c66"/>
          </g>
          <path id="Path_256" data-name="Path 256" d="M366.941,101.535c0,1.622-.888,2.936-1.984,2.936s-1.984-1.315-1.984-2.936.888-2.935,1.984-2.935S366.941,99.915,366.941,101.535Z" transform="translate(-323.691 -69.788)" fill="#232427"/>
          <path id="Path_257" data-name="Path 257" d="M344.124,101.535c0,1.622-.889,2.936-1.984,2.936s-1.984-1.315-1.984-2.936.888-2.935,1.984-2.935S344.124,99.915,344.124,101.535Z" transform="translate(-319.918 -69.788)" fill="#232427"/>
          <path id="Path_258" data-name="Path 258" d="M343.5,91.175a13.1,13.1,0,0,0-9.046,2.857l.951,2.222a16.219,16.219,0,0,1,8.411-2.54Z" transform="translate(-318.975 -68.552)" fill="#232427"/>
          <path id="Path_259" data-name="Path 259" d="M360.058,91.175a13.1,13.1,0,0,1,9.046,2.857l-.952,2.222a16.219,16.219,0,0,0-8.411-2.54Z" transform="translate(-323.156 -68.552)" fill="#232427"/>
          <path id="Path_260" data-name="Path 260" d="M343.445,141.379h0c-2.834,0-4.282,2.3-4.282,5.131v9.878l10.7-6.885S343.445,146.134,343.445,141.379Z" transform="translate(-319.754 -76.862)" fill="#d3faec"/>
          <path id="Path_261" data-name="Path 261" d="M360.938,141.379h0c2.834,0,4.386,2.3,4.386,5.131v9.878L354.852,149.5S360.938,146.134,360.938,141.379Z" transform="translate(-322.348 -76.862)" fill="#d3faec"/>
          <path id="Path_262" data-name="Path 262" d="M368.676,75.8a17.68,17.68,0,0,0-4.838-6.523c-8.568-7.271-22.877-6.934-28.3,1.174a5.3,5.3,0,0,0-4.8-2.054,7.594,7.594,0,0,0,2.127,4.133,6.143,6.143,0,0,0-4.971-1.264s1.048,2.678,2.8,3.394c-1.4,1.406-2.693,3.863-2,8l-.193,9.123h2.234l1.9-9.123s2.914-.194,3.4-4.171c0,0,6.983,3.006,11.541,1.6,0,0,3.734,3.831,8.487,3.492,0,0-3.3-2.44-3.686-3.96,0,0,8.293,4.106,11.929,3.475,0,0-5.334-2.91-5.964-4.85,0,0,4.76,3.138,8.417,3.7l1.33,9.328h2.187l.022-6C371.591,81.545,369.836,77.388,368.676,75.8Z" transform="translate(-317.889 -64.079)" fill="#232427"/>
        </g>
        <g id="Group_146" data-name="Group 146" transform="translate(3.387 3.159)">
          <g id="Group_142" data-name="Group 142" transform="translate(46.605 22.493)">
            <path id="Path_263" data-name="Path 263" d="M375.8,113.738h0a6.337,6.337,0,0,0,6.975-5.626l.676-6.323a6.337,6.337,0,0,0-5.626-6.975h0Z" transform="translate(-375.805 -94.813)" fill="#082e43"/>
            <path id="Path_264" data-name="Path 264" d="M381.046,101.059a4.537,4.537,0,0,1,.591.024,4.639,4.639,0,1,1-1.57,9.124Z" transform="translate(-376.51 -95.846)" fill="#082e43"/>
          </g>
          <g id="Group_143" data-name="Group 143" transform="translate(0 22.493)">
            <path id="Path_265" data-name="Path 265" d="M329.554,113.738h0a6.336,6.336,0,0,1-6.974-5.626l-.677-6.323a6.337,6.337,0,0,1,5.626-6.975h0Z" transform="translate(-320.28 -94.813)" fill="#082e43"/>
            <path id="Path_266" data-name="Path 266" d="M324.7,101.059a4.544,4.544,0,0,0-.591.024,4.639,4.639,0,1,0,.987,9.225,4.579,4.579,0,0,0,.583-.1Z" transform="translate(-319.966 -95.846)" fill="#082e43"/>
          </g>
          <g id="Group_144" data-name="Group 144" transform="translate(4.095)">
            <path id="Path_267" data-name="Path 267" d="M372.943,91.9h-1.455a22.581,22.581,0,1,0-45.161,0h-1.455a24.035,24.035,0,1,1,48.071,0Z" transform="translate(-324.872 -67.864)" fill="#082e43"/>
          </g>
          <g id="Group_145" data-name="Group 145" transform="translate(5.992 38.396)">
            <path id="Path_268" data-name="Path 268" d="M345.839,131.074c-9.455,0-14.043-4.68-16.226-8.606a20.254,20.254,0,0,1-2.468-8.569l1.455-.032a19.11,19.11,0,0,0,2.311,7.942c2.9,5.182,7.927,7.811,14.928,7.811Z" transform="translate(-327.145 -113.867)" fill="#082e43"/>
          </g>
          <path id="Path_269" data-name="Path 269" d="M353.285,134.762h-4.171a1.824,1.824,0,0,1-1.825-1.825h0a1.824,1.824,0,0,1,1.825-1.825h4.171a1.825,1.825,0,0,1,1.825,1.825h0A1.825,1.825,0,0,1,353.285,134.762Z" transform="translate(-324.484 -78.323)" fill="#082e43"/>
        </g>
      </g>
    </g>
    <g id="Group_129-2" data-name="Group 129" transform="translate(451.04)">
      <circle id="Ellipse_19" data-name="Ellipse 19" cx="37.072" cy="37.072" r="37.072" transform="translate(0 56.478) rotate(-45)" fill="#232427" opacity="0.1"/>
      <g id="Group_179" data-name="Group 179" transform="translate(20.303 0)">
        <g id="Group_173" data-name="Group 173">
          <g id="Group_149" data-name="Group 149" transform="translate(20.692)">
            <path id="Path_270" data-name="Path 270" d="M221.162,200.644a12.964,12.964,0,1,1-.4-3.195A12.9,12.9,0,0,1,221.162,200.644Z" transform="translate(-195.215 -187.67)" fill="#243021"/>
            <path id="Path_271" data-name="Path 271" d="M221.162,201.913a12.9,12.9,0,0,1-2.137,7.134H197.353a13,13,0,0,1-1.84-9.9c1.775-1.548,5.416-3.8,12.6-3.8,5.556,0,9.9,2.178,12.651,3.379A12.993,12.993,0,0,1,221.162,201.913Z" transform="translate(-195.215 -188.938)" fill="#f94b22"/>
          </g>
          <ellipse id="Ellipse_20" data-name="Ellipse 20" cx="22.762" cy="22.762" rx="22.762" ry="22.762" transform="translate(10.348 9.131)" fill="#243021"/>
          <g id="Group_172" data-name="Group 172" transform="translate(0 19.784)">
            <g id="Group_171" data-name="Group 171">
              <g id="Group_154" data-name="Group 154" transform="translate(6.881 50.3)">
                <g id="Group_152" data-name="Group 152">
                  <g id="Group_151" data-name="Group 151">
                    <g id="Group_150" data-name="Group 150">
                      <path id="Path_272" data-name="Path 272" d="M183.1,295.975h44.456l4.219-11.34a3.305,3.305,0,0,0-1.934-4.248l-14.449-5.434-3.4-3.314-6.666,9.855-6.914-9.855-3.152,3.314-14.446,5.434a3.306,3.306,0,0,0-1.935,4.248Z" transform="translate(-178.667 -271.639)" fill="#f94b22"/>
                    </g>
                  </g>
                </g>
                <path id="Path_273" data-name="Path 273" d="M202.32,275.053q0,.546.014,1.087c.188,9.157,13.9,9.193,14.16.038q.016-.563.023-1.126Z" transform="translate(-182.578 -272.204)" fill="#fff"/>
                <g id="Group_153" data-name="Group 153" transform="translate(25.304 14.486)">
                  <path id="Path_274" data-name="Path 274" d="M212.56,290.783a1.787,1.787,0,1,1-1.788-1.788A1.788,1.788,0,0,1,212.56,290.783Z" transform="translate(-208.985 -288.995)" fill="#dc3024"/>
                  <ellipse id="Ellipse_21" data-name="Ellipse 21" cx="1.787" cy="1.787" rx="1.787" ry="1.787" transform="translate(0 5.688)" fill="#dc3024"/>
                </g>
              </g>
              <g id="Group_159" data-name="Group 159" transform="translate(11.467)">
                <g id="Group_158" data-name="Group 158" transform="translate(1.262 1.881)">
                  <path id="Path_275" data-name="Path 275" d="M215.784,259.736v14.982a6.013,6.013,0,0,1-4.2,5.759,9.616,9.616,0,0,1-5.8,0,6.014,6.014,0,0,1-4.2-5.759V259.736Z" transform="translate(-188.305 -221.252)" fill="#f9b587"/>
                  <path id="Path_276" data-name="Path 276" d="M215.784,260.575V272.2c-5.539,4.107-11.278,1.894-14.2.22V260.575Z" transform="translate(-188.305 -221.391)" fill="#f5896a"/>
                  <path id="Path_277" data-name="Path 277" d="M227.4,230.425c0,.307,0,.614-.009.921-.006.35-.017.7-.029,1.042-.672,16.495-9.738,29.556-20.823,29.556-10.375,0-18.978-11.441-20.589-26.427l0,0q-.165-1.539-.23-3.126c-.014-.346-.025-.693-.032-1.042-.006-.3-.009-.613-.009-.921A45.913,45.913,0,0,1,187.089,219c.069-.279.9-3.586.981-3.861h0a104.957,104.957,0,0,1,35.981.092l1.447.255A67.869,67.869,0,0,1,227.4,230.425Z" transform="translate(-185.674 -213.627)" fill="#f9b587"/>
                  <path id="Path_278" data-name="Path 278" d="M206.31,246.73s.378-2.455,3.65-2.455,3.776,2.455,3.776,2.455Z" transform="translate(-189.086 -218.695)" fill="#f5896a"/>
                  <g id="Group_155" data-name="Group 155" transform="translate(13.617 33.585)">
                    <path id="Path_279" data-name="Path 279" d="M216.484,253.926a7.249,7.249,0,0,1-14.38,1.3,7.286,7.286,0,0,1-.115-1.3c0-.02,0-.038,0-.059h14.493C216.482,253.888,216.484,253.906,216.484,253.926Z" transform="translate(-201.989 -253.867)" fill="#920e08"/>
                    <path id="Path_280" data-name="Path 280" d="M216.484,253.926a7.205,7.205,0,0,1-.116,1.3H202.1a7.286,7.286,0,0,1-.115-1.3c0-.02,0-.038,0-.059h14.493C216.482,253.888,216.484,253.906,216.484,253.926Z" transform="translate(-201.989 -253.867)" fill="#fff"/>
                    <path id="Path_281" data-name="Path 281" d="M214.942,259.421a7.246,7.246,0,0,1-10.65,0,7.958,7.958,0,0,1,10.65,0Z" transform="translate(-202.37 -254.447)" fill="#eb5c66"/>
                  </g>
                  <path id="Path_282" data-name="Path 282" d="M209.477,215.434" transform="translate(-189.61 -213.926)" fill="#082e43"/>
                  <path id="Path_283" data-name="Path 283" d="M224.312,237.08c0,1.68-.921,3.042-2.056,3.042s-2.056-1.362-2.056-3.042.921-3.043,2.056-3.043S224.312,235.4,224.312,237.08Z" transform="translate(-191.383 -217.002)" fill="#243021"/>
                  <path id="Path_284" data-name="Path 284" d="M200.666,237.08c0,1.68-.92,3.042-2.056,3.042s-2.056-1.362-2.056-3.042.921-3.043,2.056-3.043S200.666,235.4,200.666,237.08Z" transform="translate(-187.473 -217.002)" fill="#243021"/>
                  <g id="Group_156" data-name="Group 156" transform="translate(5.086 12.283)">
                    <path id="Path_285" data-name="Path 285" d="M202.667,228.663v1.855s-6.493-2.783-10.9,1.623C191.768,232.142,193.391,227.04,202.667,228.663Z" transform="translate(-191.768 -228.344)" fill="#243021"/>
                  </g>
                  <g id="Group_157" data-name="Group 157" transform="translate(26.188 12.283)">
                    <path id="Path_286" data-name="Path 286" d="M217.05,228.663v1.855s6.493-2.783,10.9,1.623C227.948,232.142,226.325,227.04,217.05,228.663Z" transform="translate(-217.05 -228.344)" fill="#243021"/>
                  </g>
                </g>
                <path id="Path_287" data-name="Path 287" d="M185.41,230.958s3.71-9.971,16-10.666,23.187.232,23.883-5.565c.5-4.208-20.377-3.528-31.859-2.839-3.564.214-5.7.985-7.792,4.463-.007.012-.46,1.152-.463,1.159C184.018,219.828,183.554,229.567,185.41,230.958Z" transform="translate(-184.162 -211.373)" fill="#243021"/>
                <path id="Path_288" data-name="Path 288" d="M227.885,217.7s0,8.866,6.492,11.737c0,0,5.957-5.531-2.446-15.523Z" transform="translate(-191.392 -211.793)" fill="#243021"/>
              </g>
              <g id="Group_165" data-name="Group 165" transform="translate(10.186 14.168)">
                <g id="Group_161" data-name="Group 161" transform="translate(4.388 3.391)">
                  <path id="Path_289" data-name="Path 289" d="M203.513,236.929c-.543,2.758-2.122,6.1-6.548,6.548-.288.03-.588.047-.9.051a7.812,7.812,0,0,1-3.291-.605,6.153,6.153,0,0,1-2.988-2.868,9.346,9.346,0,0,1-.8-2.166,14.835,14.835,0,0,1-.314-4.716H203.75A14.445,14.445,0,0,1,203.513,236.929Z" transform="translate(-188.004 -232.538)" fill="#fff" opacity="0.3"/>
                  <path id="Path_290" data-name="Path 290" d="M196.745,233.173l-6.884,6.882a9.346,9.346,0,0,1-.8-2.166l4.716-4.716Z" transform="translate(-188.079 -232.538)" fill="#fff" opacity="0.4"/>
                  <path id="Path_291" data-name="Path 291" d="M204.338,236.929l-6.548,6.548c-.288.03-.588.047-.9.051a7.812,7.812,0,0,1-3.291-.605l9.747-9.749h1.229A14.445,14.445,0,0,1,204.338,236.929Z" transform="translate(-188.83 -232.538)" fill="#fff" opacity="0.4"/>
                  <g id="Group_160" data-name="Group 160">
                    <path id="Path_292" data-name="Path 292" d="M195.945,244.033a7.2,7.2,0,0,1-5.556-2.253c-2.921-3.186-2.491-8.561-2.471-8.789a.635.635,0,0,1,.633-.58H203.63a.635.635,0,0,1,.629.553c.029.217.663,5.364-2.169,8.59A7.778,7.778,0,0,1,195.945,244.033Zm-6.784-10.351c-.021,1.406.139,5.035,2.168,7.244a5.983,5.983,0,0,0,4.616,1.837,6.567,6.567,0,0,0,5.191-2.047c1.958-2.23,1.983-5.7,1.91-7.034Z" transform="translate(-187.885 -232.412)" fill="#243021"/>
                  </g>
                </g>
                <g id="Group_163" data-name="Group 163" transform="translate(25.68 3.391)">
                  <path id="Path_293" data-name="Path 293" d="M229.023,236.929c-.542,2.758-2.122,6.1-6.548,6.548-.288.03-.588.047-.9.051a7.812,7.812,0,0,1-3.291-.605,6.153,6.153,0,0,1-2.988-2.868,9.347,9.347,0,0,1-.8-2.166,14.836,14.836,0,0,1-.314-4.716h15.079A14.444,14.444,0,0,1,229.023,236.929Z" transform="translate(-213.515 -232.538)" fill="#fff" opacity="0.3"/>
                  <path id="Path_294" data-name="Path 294" d="M222.257,233.173l-6.885,6.882a9.347,9.347,0,0,1-.8-2.166l4.716-4.716Z" transform="translate(-213.59 -232.538)" fill="#fff" opacity="0.4"/>
                  <path id="Path_295" data-name="Path 295" d="M229.85,236.929l-6.548,6.548c-.288.03-.588.047-.9.051a7.812,7.812,0,0,1-3.291-.605l9.748-9.749h1.228A14.446,14.446,0,0,1,229.85,236.929Z" transform="translate(-214.341 -232.538)" fill="#fff" opacity="0.4"/>
                  <g id="Group_162" data-name="Group 162">
                    <path id="Path_296" data-name="Path 296" d="M221.456,244.033a7.2,7.2,0,0,1-5.556-2.253c-2.921-3.186-2.491-8.561-2.471-8.789a.635.635,0,0,1,.633-.58h15.079a.636.636,0,0,1,.63.553c.028.217.662,5.364-2.17,8.59A7.778,7.778,0,0,1,221.456,244.033Zm-6.784-10.351c-.021,1.406.139,5.035,2.168,7.244a5.985,5.985,0,0,0,4.616,1.837,6.566,6.566,0,0,0,5.191-2.047c1.958-2.23,1.983-5.7,1.91-7.034Z" transform="translate(-213.396 -232.412)" fill="#243021"/>
                  </g>
                </g>
                <g id="Group_164" data-name="Group 164" transform="translate(19.825 2.918)">
                  <path id="Path_297" data-name="Path 297" d="M212.556,233.766a6.334,6.334,0,0,0-5.561-.012l-.613-1.113a7.628,7.628,0,0,1,6.738-.013Z" transform="translate(-206.381 -231.845)" fill="#243021"/>
                </g>
                <path id="Path_298" data-name="Path 298" d="M231.585,231.74l4.925-3.391a1.081,1.081,0,0,1,.633,1.233l-4.554,3.264Z" transform="translate(-190.723 -228.349)" fill="#243021"/>
                <path id="Path_299" data-name="Path 299" d="M188.194,231.74l-4.925-3.391a1.08,1.08,0,0,0-.633,1.233l4.554,3.264Z" transform="translate(-182.628 -228.349)" fill="#243021"/>
              </g>
              <g id="Group_166" data-name="Group 166" transform="translate(18.774 50.3)">
                <path id="Path_300" data-name="Path 300" d="M200.143,271.639a37.306,37.306,0,0,0-7.227,6.416l5.093,11.506,6.342-7.115S199.98,276.537,200.143,271.639Z" transform="translate(-192.916 -271.639)" fill="#fff"/>
                <path id="Path_301" data-name="Path 301" d="M217.756,271.639a32.071,32.071,0,0,1,6.984,6.108l-4.85,11.813-6.342-7.115S217.92,276.537,217.756,271.639Z" transform="translate(-196.328 -271.639)" fill="#fff"/>
              </g>
              <g id="Group_168" data-name="Group 168" transform="translate(0 59.426)">
                <g id="Group_167" data-name="Group 167">
                  <path id="Path_302" data-name="Path 302" d="M184.636,297.783l-5.9-15.21s-7.476,3.934-8.313,15.225Z" transform="translate(-170.423 -282.573)" fill="#f94b22"/>
                </g>
              </g>
              <g id="Group_170" data-name="Group 170" transform="translate(52.866 59.426)">
                <g id="Group_169" data-name="Group 169">
                  <path id="Path_303" data-name="Path 303" d="M233.763,297.783l5.9-15.21s7.476,3.934,8.313,15.225Z" transform="translate(-233.763 -282.573)" fill="#f94b22"/>
                </g>
              </g>
            </g>
          </g>
        </g>
        <g id="Group_178" data-name="Group 178" transform="translate(5.598 12.112)">
          <g id="Group_174" data-name="Group 174" transform="translate(46.605 22.493)">
            <path id="Path_304" data-name="Path 304" d="M242.215,239.475a4.632,4.632,0,0,1-2.334,3.548l-.106.987a4.748,4.748,0,0,1-5.227,4.217l-1.58-.169,2.026-18.925,1.58.169a4.748,4.748,0,0,1,4.216,5.227l-.106.986A4.623,4.623,0,0,1,242.215,239.475Z" transform="translate(-232.968 -229.132)" fill="#082e43"/>
          </g>
          <g id="Group_175" data-name="Group 175" transform="translate(0 22.493)">
            <path id="Path_305" data-name="Path 305" d="M186.4,248.057l-1.578.169a4.75,4.75,0,0,1-5.227-4.217l-.106-.987a4.636,4.636,0,0,1-.8-7.508l-.106-.986A4.748,4.748,0,0,1,182.8,229.3l1.579-.169Z" transform="translate(-177.13 -229.132)" fill="#082e43"/>
          </g>
          <g id="Group_176" data-name="Group 176" transform="translate(4.095)">
            <path id="Path_306" data-name="Path 306" d="M230.108,226.218h-1.456a22.581,22.581,0,0,0-45.161,0h-1.455a24.036,24.036,0,1,1,48.072,0Z" transform="translate(-182.036 -202.182)" fill="#082e43"/>
          </g>
          <g id="Group_177" data-name="Group 177" transform="translate(5.993 38.397)">
            <path id="Path_307" data-name="Path 307" d="M203,265.393c-9.455,0-14.043-4.68-16.226-8.606a20.247,20.247,0,0,1-2.467-8.57l1.454-.031a19.121,19.121,0,0,0,2.311,7.941c2.9,5.183,7.927,7.811,14.928,7.811Z" transform="translate(-184.31 -248.186)" fill="#082e43"/>
          </g>
          <path id="Path_308" data-name="Path 308" d="M210.45,269.081h-4.172a1.825,1.825,0,0,1-1.825-1.824h0a1.825,1.825,0,0,1,1.825-1.825h4.172a1.825,1.825,0,0,1,1.825,1.825h0A1.825,1.825,0,0,1,210.45,269.081Z" transform="translate(-181.648 -212.641)" fill="#082e43"/>
        </g>
      </g>
    </g>
    <g id="Group_194" data-name="Group 194" transform="translate(0 160.245)">
      <circle id="Ellipse_22" data-name="Ellipse 22" cx="37.072" cy="37.072" r="37.072" transform="translate(0 52.428) rotate(-45)" fill="#232427" opacity="0.1"/>
      <g id="Group_193" data-name="Group 193" transform="translate(21.401 4.427)">
        <g id="Group_187" data-name="Group 187">
          <path id="Path_309" data-name="Path 309" d="M376.792,296.727H315.908c.086-1.675.213-3.253.342-4.689.012-.148.028-.3.045-.442a15.653,15.653,0,0,1,10.127-12.812l3.006-1.087,1.23-.445a18.424,18.424,0,0,1,4.025-.712l23.069-.35a16.877,16.877,0,0,1,6.186,1.648l3.4,1.443a17.521,17.521,0,0,1,5.744,3.908c2.925,3.022,3.055,5.444,3.381,9.067C376.585,293.63,376.7,295.134,376.792,296.727Z" transform="translate(-315.908 -210.785)" fill="#2e2e2e"/>
          <path id="Path_310" data-name="Path 310" d="M355.083,299.688l-.625-5.593h-3.523l-.52,5.593Z" transform="translate(-321.614 -213.746)" fill="#232427"/>
          <path id="Path_311" data-name="Path 311" d="M357.784,287.228l-5.749,7.377-5.978-7.181,3.177-3.466h5.35Z" transform="translate(-320.893 -212.07)" fill="#364456"/>
          <path id="Path_312" data-name="Path 312" d="M359.192,259.2v19.419q-7.449,5.635-14.9,0V259.2Z" transform="translate(-320.602 -207.976)" fill="#f9b587"/>
          <path id="Path_313" data-name="Path 313" d="M359.192,260.084v12.2c-5.814,4.311-11.836,1.987-14.9.232V260.084Z" transform="translate(-320.602 -208.122)" fill="#f5896a"/>
          <path id="Path_314" data-name="Path 314" d="M370.46,228.866c0,16.8-9.314,30.415-20.8,30.415-10.346,0-18.925-11.04-20.533-25.5l0,0a44.432,44.432,0,0,1-.27-4.91,42.955,42.955,0,0,1,1.41-11.028c.07-.269.146-.535.221-.8,0,0,4.55-9.329,18.707-9.329s19.64,9.329,19.64,9.329A42.788,42.788,0,0,1,370.46,228.866Z" transform="translate(-318.048 -199.461)" fill="#f9b587"/>
          <path id="Path_315" data-name="Path 315" d="M349.569,245.581s.365-2.369,3.522-2.369,3.643,2.369,3.643,2.369Z" transform="translate(-321.474 -205.332)" fill="#f5896a"/>
          <g id="Group_181" data-name="Group 181" transform="translate(23.277 45.766)">
            <path id="Path_316" data-name="Path 316" d="M360.459,252.728a8.332,8.332,0,0,1-16.529,1.49,8.365,8.365,0,0,1-.133-1.49c0-.023,0-.045,0-.068h16.659C360.457,252.683,360.459,252.705,360.459,252.728Z" transform="translate(-343.797 -252.66)" fill="#920e08"/>
            <path id="Path_317" data-name="Path 317" d="M360.459,252.728a8.281,8.281,0,0,1-.134,1.49h-16.4a8.365,8.365,0,0,1-.133-1.49c0-.023,0-.045,0-.068h16.659C360.457,252.683,360.459,252.705,360.459,252.728Z" transform="translate(-343.797 -252.66)" fill="#fff"/>
            <path id="Path_318" data-name="Path 318" d="M358.687,259.044a8.33,8.33,0,0,1-12.242,0,9.145,9.145,0,0,1,12.242,0Z" transform="translate(-344.235 -253.327)" fill="#f35c66"/>
          </g>
          <path id="Path_319" data-name="Path 319" d="M366.941,236.268c0,1.622-.888,2.936-1.984,2.936s-1.984-1.315-1.984-2.936.888-2.935,1.984-2.935S366.941,234.648,366.941,236.268Z" transform="translate(-323.691 -203.698)" fill="#232427"/>
          <path id="Path_320" data-name="Path 320" d="M344.124,236.268c0,1.622-.889,2.936-1.984,2.936s-1.984-1.315-1.984-2.936.888-2.935,1.984-2.935S344.124,234.648,344.124,236.268Z" transform="translate(-319.918 -203.698)" fill="#232427"/>
          <path id="Path_321" data-name="Path 321" d="M343.5,225.908a13.105,13.105,0,0,0-9.046,2.857l.951,2.222a16.223,16.223,0,0,1,8.411-2.539Z" transform="translate(-318.975 -202.463)" fill="#232427"/>
          <path id="Path_322" data-name="Path 322" d="M361.429,225.908a13.108,13.108,0,0,1,9.047,2.857l-.952,2.222a16.223,16.223,0,0,0-8.411-2.539Z" transform="translate(-323.383 -202.463)" fill="#232427"/>
          <path id="Path_323" data-name="Path 323" d="M343.445,276.112h0c-2.834,0-4.282,2.3-4.282,5.131v9.878l10.7-6.885S343.445,280.868,343.445,276.112Z" transform="translate(-319.754 -210.772)" fill="#fff"/>
          <path id="Path_324" data-name="Path 324" d="M360.938,276.112h0c2.834,0,4.386,2.3,4.386,5.131v9.878l-10.472-6.885S360.938,280.868,360.938,276.112Z" transform="translate(-322.348 -210.772)" fill="#fff"/>
          <path id="Path_325" data-name="Path 325" d="M360.962,217.368c-4.9.883-11.573,1.055-17.4-2.373-10.782-6.342-13.274,1.209-13.274,1.209s-4.927-8.378,4.53-14.634c5.265-3.483,9.82-4.08,13.7-3.6a34.433,34.433,0,0,1,8,2.289c5.071,1.891,9.928-2.434,9.928-2.434h0a9.408,9.408,0,0,1,3.86,6.082A11.487,11.487,0,0,1,360.962,217.368Z" transform="translate(-318.074 -197.827)" fill="#9f914a"/>
          <path id="Path_326" data-name="Path 326" d="M360.962,217.368c-4.9.883-11.573,1.055-17.4-2.373-10.782-6.342-13.274,1.209-13.274,1.209s-4.927-8.378,4.53-14.634c5.265-3.483,9.82-4.08,13.7-3.6,0,0-7.632.9-6.749,6.5s10.459,9.148,17.575,7.189,10.821-7.882,7.1-13.837a9.408,9.408,0,0,1,3.86,6.082A11.487,11.487,0,0,1,360.962,217.368Z" transform="translate(-318.074 -197.827)" fill="#938641"/>
          <path id="Path_327" data-name="Path 327" d="M329.62,215.292s-3.8,3.382-3.048,7.667,1.926,8.966,1.926,8.966h1.466v-6.166s3.72-1.826,2.6-10.764Z" transform="translate(-317.655 -200.666)" fill="#938641"/>
          <path id="Path_328" data-name="Path 328" d="M375.556,215.292s3.8,3.382,3.048,7.667a76.675,76.675,0,0,0-.92,8.966h-1.806l-.666-6.166s-3.81-3.442-1.916-10.764Z" transform="translate(-325.31 -200.666)" fill="#938641"/>
        </g>
      </g>
    </g>
    <line id="Line_106" data-name="Line 106" x2="185.388" transform="translate(89.553 212.641)" fill="none" stroke="#6380b7" stroke-width="1"/>
    <line id="Line_107" data-name="Line 107" y1="141.116" x2="192.767" transform="translate(274.941 71.525)" fill="none" stroke="#2c6fa8" stroke-width="1" stroke-dasharray="2"/>
    <path id="Path_539" data-name="Path 539" d="M0,0H191.731" transform="translate(274.941 212.641)" fill="none" stroke="#2c6fa8" stroke-width="1" stroke-dasharray="2"/>
    <line id="Line_109" data-name="Line 109" x2="192.767" y2="149.417" transform="translate(274.941 212.641)" fill="none" stroke="#2c6fa8" stroke-width="1" stroke-dasharray="2"/>
    <g id="_1" data-name="1" transform="translate(256.647 183.548)">
      <circle id="Ellipse_1" data-name="Ellipse 1" cx="28.595" cy="28.595" r="28.595" fill="url(#linear-gradient)"/>
      <g id="solicită_apel" data-name="solicită apel" transform="translate(14.505 14.505)">
        <g id="call" transform="translate(0)">
          <path id="Path_1" data-name="Path 1" d="M5.712,12.376A24.7,24.7,0,0,0,16.183,22.847l3.491-3.491a1.263,1.263,0,0,1,1.587-.317,16.6,16.6,0,0,0,5.712.952,1.5,1.5,0,0,1,1.587,1.587v5.394a1.5,1.5,0,0,1-1.587,1.587A26.95,26.95,0,0,1,0,1.587,1.5,1.5,0,0,1,1.587,0H7.14A1.5,1.5,0,0,1,8.726,1.587,17.968,17.968,0,0,0,9.678,7.3a1.954,1.954,0,0,1-.317,1.587Z" transform="translate(0)" fill="#f8fbfd"/>
        </g>
      </g>
    </g>
  </g>
</svg>
