<svg xmlns="http://www.w3.org/2000/svg" xmlns:xlink="http://www.w3.org/1999/xlink" width="571.297" height="132.622" viewBox="0 0 571.297 132.622">
  <defs>
    <linearGradient id="linear-gradient" x1="0.087" y1="0.233" x2="0.917" y2="0.779" gradientUnits="objectBoundingBox">
      <stop offset="0" stop-color="#214995"/>
      <stop offset="1" stop-color="#002262"/>
      <stop offset="1" stop-color="#32569a"/>
    </linearGradient>
  </defs>
  <g id="Group_326" data-name="Group 326" transform="translate(-930.078 -74.609)">
    <g id="Group_195" data-name="Group 195" transform="translate(930.078 77.069)">
      <circle id="Ellipse_22" data-name="Ellipse 22" cx="45.145" cy="45.145" r="45.145" transform="translate(0 63.845) rotate(-45)" fill="#232427" opacity="0.1"/>
      <g id="Group_193" data-name="Group 193" transform="translate(26.062 5.391)">
        <g id="Group_187" data-name="Group 187">
          <path id="Path_309" data-name="Path 309" d="M390.05,301.2H315.908c.1-2.04.259-3.962.417-5.71.014-.181.034-.36.055-.539a19.062,19.062,0,0,1,12.332-15.6l3.661-1.323,1.5-.542a22.438,22.438,0,0,1,4.9-.867l28.093-.427A20.553,20.553,0,0,1,374.4,278.2l4.135,1.757a21.336,21.336,0,0,1,6.995,4.759c3.561,3.68,3.72,6.63,4.117,11.041C389.8,297.427,389.944,299.259,390.05,301.2Z" transform="translate(-315.908 -196.542)" fill="#2e2e2e"/>
          <path id="Path_310" data-name="Path 310" d="M356.1,300.906l-.761-6.81h-4.29l-.633,6.81Z" transform="translate(-315.342 -196.249)" fill="#232427"/>
          <path id="Path_311" data-name="Path 311" d="M360.338,287.94l-7,8.983-7.28-8.744,3.869-4.221h6.515Z" transform="translate(-315.414 -196.415)" fill="#364456"/>
          <path id="Path_312" data-name="Path 312" d="M362.437,259.2v23.648q-9.071,6.862-18.144,0V259.2Z" transform="translate(-315.443 -196.821)" fill="#f9b587"/>
          <path id="Path_313" data-name="Path 313" d="M362.437,260.084v14.852c-7.08,5.25-14.414,2.42-18.144.283V260.084Z" transform="translate(-315.443 -196.806)" fill="#f5896a"/>
          <path id="Path_314" data-name="Path 314" d="M379.521,233.474c0,20.457-11.342,37.038-25.335,37.038-12.6,0-23.047-13.444-25-31.054l0-.005a54.1,54.1,0,0,1-.328-5.979,52.308,52.308,0,0,1,1.717-13.43c.085-.327.178-.652.269-.976,0,0,5.54-11.36,22.78-11.36s23.917,11.36,23.917,11.36A52.108,52.108,0,0,1,379.521,233.474Z" transform="translate(-315.696 -197.665)" fill="#f9b587"/>
          <path id="Path_315" data-name="Path 315" d="M349.569,246.1s.444-2.885,4.289-2.885,4.437,2.885,4.437,2.885Z" transform="translate(-315.356 -197.083)" fill="#f5896a"/>
          <g id="Group_181" data-name="Group 181" transform="translate(28.346 55.732)">
            <path id="Path_316" data-name="Path 316" d="M364.087,252.743a10.145,10.145,0,1,1-20.29,0c0-.028,0-.055,0-.083h20.286C364.085,252.688,364.087,252.715,364.087,252.743Z" transform="translate(-343.797 -252.66)" fill="#920e08"/>
            <path id="Path_317" data-name="Path 317" d="M364.087,252.743a10.078,10.078,0,0,1-.163,1.814H343.959a10.179,10.179,0,0,1-.162-1.814c0-.028,0-.055,0-.083h20.286C364.085,252.688,364.087,252.715,364.087,252.743Z" transform="translate(-343.797 -252.66)" fill="#fff"/>
            <path id="Path_318" data-name="Path 318" d="M361.352,259.556a10.143,10.143,0,0,1-14.907,0,11.136,11.136,0,0,1,14.907,0Z" transform="translate(-343.754 -252.594)" fill="#f35c66"/>
          </g>
          <path id="Path_319" data-name="Path 319" d="M367.8,236.908c0,1.975-1.081,3.576-2.416,3.576s-2.416-1.6-2.416-3.576,1.081-3.575,2.416-3.575S367.8,234.934,367.8,236.908Z" transform="translate(-315.136 -197.245)" fill="#232427"/>
          <path id="Path_320" data-name="Path 320" d="M344.988,236.908c0,1.975-1.082,3.576-2.416,3.576s-2.416-1.6-2.416-3.576,1.081-3.575,2.416-3.575S344.988,234.934,344.988,236.908Z" transform="translate(-315.51 -197.245)" fill="#232427"/>
          <path id="Path_321" data-name="Path 321" d="M345.468,225.918a15.959,15.959,0,0,0-11.016,3.479l1.159,2.706a19.755,19.755,0,0,1,10.243-3.092Z" transform="translate(-315.604 -197.367)" fill="#232427"/>
          <path id="Path_322" data-name="Path 322" d="M361.5,225.918a15.962,15.962,0,0,1,11.017,3.479l-1.16,2.706a19.755,19.755,0,0,0-10.243-3.092Z" transform="translate(-315.167 -197.367)" fill="#232427"/>
          <path id="Path_323" data-name="Path 323" d="M344.377,276.112h0c-3.451,0-5.214,2.8-5.214,6.249V294.39l13.033-8.384S344.377,281.9,344.377,276.112Z" transform="translate(-315.527 -196.543)" fill="#fff"/>
          <path id="Path_324" data-name="Path 324" d="M362.264,276.112h0c3.451,0,5.341,2.8,5.341,6.249V294.39l-12.753-8.384S362.264,281.9,362.264,276.112Z" transform="translate(-315.27 -196.543)" fill="#fff"/>
          <path id="Path_325" data-name="Path 325" d="M367.922,221.624c-5.968,1.075-14.093,1.285-21.191-2.89-13.13-7.723-16.165,1.472-16.165,1.472s-6-10.2,5.516-17.82c6.411-4.241,11.958-4.968,16.681-4.382a41.93,41.93,0,0,1,9.741,2.787c6.176,2.3,12.09-2.964,12.09-2.964h0a11.456,11.456,0,0,1,4.7,7.406A13.989,13.989,0,0,1,367.922,221.624Z" transform="translate(-315.693 -197.827)" fill="#9f914a"/>
          <path id="Path_326" data-name="Path 326" d="M367.922,221.624c-5.968,1.075-14.093,1.285-21.191-2.89-13.13-7.723-16.165,1.472-16.165,1.472s-6-10.2,5.516-17.82c6.411-4.241,11.958-4.968,16.681-4.382,0,0-9.294,1.1-8.219,7.921s12.736,11.141,21.4,8.754,13.178-9.6,8.648-16.851a11.456,11.456,0,0,1,4.7,7.406A13.989,13.989,0,0,1,367.922,221.624Z" transform="translate(-315.693 -197.827)" fill="#938641"/>
          <path id="Path_327" data-name="Path 327" d="M330.3,215.357s-4.623,4.118-3.712,9.337,2.345,10.918,2.345,10.918h1.786V228.1s4.53-2.224,3.164-13.107Z" transform="translate(-315.735 -197.545)" fill="#938641"/>
          <path id="Path_328" data-name="Path 328" d="M376.163,215.357s4.623,4.118,3.712,9.337a93.351,93.351,0,0,0-1.12,10.918h-2.2l-.811-7.509s-4.64-4.192-2.334-13.107Z" transform="translate(-314.976 -197.545)" fill="#938641"/>
        </g>
      </g>
    </g>
    <g id="Group_196" data-name="Group 196" transform="translate(1373.686 74.609)">
      <circle id="Ellipse_19" data-name="Ellipse 19" cx="45.145" cy="45.145" r="45.145" transform="translate(0 68.777) rotate(-45)" fill="#232427" opacity="0.1"/>
      <g id="Group_179" data-name="Group 179" transform="translate(24.724 0)">
        <g id="Group_173" data-name="Group 173">
          <g id="Group_149" data-name="Group 149" transform="translate(25.198)">
            <path id="Path_270" data-name="Path 270" d="M226.813,203.47a15.787,15.787,0,1,1-.484-3.891A15.714,15.714,0,0,1,226.813,203.47Z" transform="translate(-195.215 -187.67)" fill="#243021"/>
            <path id="Path_271" data-name="Path 271" d="M226.813,203.344a15.714,15.714,0,0,1-2.6,8.688H197.818a15.829,15.829,0,0,1-2.241-12.062c2.162-1.885,6.6-4.632,15.346-4.632,6.766,0,12.056,2.653,15.406,4.114A15.821,15.821,0,0,1,226.813,203.344Z" transform="translate(-195.215 -187.544)" fill="#f94b22"/>
          </g>
          <ellipse id="Ellipse_20" data-name="Ellipse 20" cx="27.719" cy="27.719" rx="27.719" ry="27.719" transform="translate(12.601 11.12)" fill="#243021"/>
          <g id="Group_172" data-name="Group 172" transform="translate(0 24.092)">
            <g id="Group_171" data-name="Group 171">
              <g id="Group_154" data-name="Group 154" transform="translate(8.379 61.254)">
                <g id="Group_152" data-name="Group 152">
                  <g id="Group_151" data-name="Group 151">
                    <g id="Group_150" data-name="Group 150">
                      <path id="Path_272" data-name="Path 272" d="M184.06,301.274H238.2l5.138-13.81a4.025,4.025,0,0,0-2.355-5.173l-17.6-6.618-4.14-4.035-8.118,12-8.42-12-3.838,4.035-17.592,6.618a4.026,4.026,0,0,0-2.356,5.173Z" transform="translate(-178.667 -271.639)" fill="#f94b22"/>
                    </g>
                  </g>
                </g>
                <path id="Path_273" data-name="Path 273" d="M202.32,275.053q0,.665.017,1.324c.229,11.151,16.929,11.195,17.243.047q.02-.686.027-1.371Z" transform="translate(-178.279 -271.583)" fill="#fff"/>
                <g id="Group_153" data-name="Group 153" transform="translate(30.815 17.641)">
                  <path id="Path_274" data-name="Path 274" d="M213.338,291.172a2.177,2.177,0,1,1-2.177-2.177A2.177,2.177,0,0,1,213.338,291.172Z" transform="translate(-208.985 -288.995)" fill="#dc3024"/>
                  <ellipse id="Ellipse_21" data-name="Ellipse 21" cx="2.176" cy="2.176" rx="2.176" ry="2.176" transform="translate(0 6.926)" fill="#dc3024"/>
                </g>
              </g>
              <g id="Group_159" data-name="Group 159" transform="translate(13.964)">
                <g id="Group_158" data-name="Group 158" transform="translate(1.537 2.291)">
                  <path id="Path_275" data-name="Path 275" d="M218.876,259.736V277.98a7.322,7.322,0,0,1-5.11,7.013,11.711,11.711,0,0,1-7.067,0,7.323,7.323,0,0,1-5.111-7.013V259.736Z" transform="translate(-185.413 -212.872)" fill="#f9b587"/>
                  <path id="Path_276" data-name="Path 276" d="M218.876,260.575v14.152c-6.746,5-13.734,2.306-17.289.268V260.575Z" transform="translate(-185.413 -212.858)" fill="#f5896a"/>
                  <path id="Path_277" data-name="Path 277" d="M236.483,234.083c0,.374,0,.748-.011,1.121-.007.426-.02.848-.036,1.269-.818,20.087-11.858,35.993-25.358,35.993-12.634,0-23.111-13.933-25.072-32.182l0,0q-.2-1.874-.279-3.806c-.017-.422-.031-.844-.039-1.269-.007-.371-.011-.747-.011-1.121a55.911,55.911,0,0,1,1.723-13.917c.084-.339,1.1-4.366,1.194-4.7h0a127.814,127.814,0,0,1,43.817.112l1.762.311A82.65,82.65,0,0,1,236.483,234.083Z" transform="translate(-185.674 -213.627)" fill="#f9b587"/>
                  <path id="Path_278" data-name="Path 278" d="M206.31,247.264s.46-2.989,4.445-2.989,4.6,2.989,4.6,2.989Z" transform="translate(-185.336 -213.125)" fill="#f5896a"/>
                  <g id="Group_155" data-name="Group 155" transform="translate(16.582 40.899)">
                    <path id="Path_279" data-name="Path 279" d="M219.641,253.939a8.827,8.827,0,0,1-17.511,1.578,8.869,8.869,0,0,1-.14-1.578c0-.024,0-.047,0-.072h17.649C219.639,253.892,219.641,253.915,219.641,253.939Z" transform="translate(-201.989 -253.867)" fill="#920e08"/>
                    <path id="Path_280" data-name="Path 280" d="M219.641,253.939a8.774,8.774,0,0,1-.141,1.578h-17.37a8.869,8.869,0,0,1-.14-1.578c0-.024,0-.047,0-.072h17.649C219.639,253.892,219.641,253.915,219.641,253.939Z" transform="translate(-201.989 -253.867)" fill="#fff"/>
                    <path id="Path_281" data-name="Path 281" d="M217.261,259.866a8.824,8.824,0,0,1-12.969,0,9.691,9.691,0,0,1,12.969,0Z" transform="translate(-201.951 -253.809)" fill="#eb5c66"/>
                  </g>
                  <path id="Path_282" data-name="Path 282" d="M209.477,215.434" transform="translate(-185.284 -213.598)" fill="#082e43"/>
                  <path id="Path_283" data-name="Path 283" d="M225.208,237.743c0,2.046-1.121,3.7-2.5,3.7s-2.5-1.659-2.5-3.7,1.121-3.706,2.5-3.706S225.208,235.7,225.208,237.743Z" transform="translate(-185.108 -213.293)" fill="#243021"/>
                  <path id="Path_284" data-name="Path 284" d="M201.562,237.743c0,2.046-1.12,3.7-2.5,3.7s-2.5-1.659-2.5-3.7,1.121-3.706,2.5-3.706S201.562,235.7,201.562,237.743Z" transform="translate(-185.496 -213.293)" fill="#243021"/>
                  <g id="Group_156" data-name="Group 156" transform="translate(6.194 14.958)">
                    <path id="Path_285" data-name="Path 285" d="M205.04,228.732v2.259s-7.907-3.389-13.272,1.977C191.768,232.969,193.745,226.756,205.04,228.732Z" transform="translate(-191.768 -228.344)" fill="#243021"/>
                  </g>
                  <g id="Group_157" data-name="Group 157" transform="translate(31.89 14.958)">
                    <path id="Path_286" data-name="Path 286" d="M217.05,228.732v2.259s7.907-3.389,13.271,1.977C230.321,232.969,228.344,226.756,217.05,228.732Z" transform="translate(-217.05 -228.344)" fill="#243021"/>
                  </g>
                </g>
                <path id="Path_287" data-name="Path 287" d="M185.682,235.223s4.518-12.142,19.483-12.988,28.236.283,29.084-6.777c.615-5.125-24.814-4.3-38.8-3.458-4.34.26-6.947,1.2-9.489,5.435-.008.014-.56,1.4-.564,1.412C183.987,221.669,183.422,233.529,185.682,235.223Z" transform="translate(-184.162 -211.373)" fill="#243021"/>
                <path id="Path_288" data-name="Path 288" d="M227.885,218.521s0,10.8,7.906,14.292c0,0,7.254-6.736-2.979-18.9Z" transform="translate(-183.445 -211.332)" fill="#243021"/>
              </g>
              <g id="Group_165" data-name="Group 165" transform="translate(12.405 17.254)">
                <g id="Group_161" data-name="Group 161" transform="translate(5.344 4.13)">
                  <path id="Path_289" data-name="Path 289" d="M206.759,237.747c-.661,3.358-2.584,7.427-7.974,7.974-.351.037-.717.057-1.1.062a9.513,9.513,0,0,1-4.008-.737,7.494,7.494,0,0,1-3.639-3.492,11.383,11.383,0,0,1-.977-2.638,18.066,18.066,0,0,1-.382-5.743h18.363A17.59,17.59,0,0,1,206.759,237.747Z" transform="translate(-187.873 -232.399)" fill="#fff" opacity="0.3"/>
                  <path id="Path_290" data-name="Path 290" d="M198.419,233.173l-8.383,8.38a11.381,11.381,0,0,1-.977-2.638l5.743-5.743Z" transform="translate(-187.866 -232.399)" fill="#fff" opacity="0.4"/>
                  <path id="Path_291" data-name="Path 291" d="M206.677,237.747,198.7,245.72c-.351.037-.717.057-1.1.062a9.513,9.513,0,0,1-4.008-.737l11.869-11.873h1.5A17.591,17.591,0,0,1,206.677,237.747Z" transform="translate(-187.791 -232.399)" fill="#fff" opacity="0.4"/>
                  <g id="Group_160" data-name="Group 160">
                    <path id="Path_292" data-name="Path 292" d="M197.7,246.564a8.768,8.768,0,0,1-6.766-2.743c-3.557-3.88-3.033-10.425-3.009-10.7a.773.773,0,0,1,.77-.706h18.363a.773.773,0,0,1,.766.674c.036.264.807,6.532-2.642,10.461A9.472,9.472,0,0,1,197.7,246.564Zm-8.261-12.605c-.025,1.712.17,6.132,2.64,8.821a7.286,7.286,0,0,0,5.622,2.237,8,8,0,0,0,6.321-2.492c2.384-2.716,2.415-6.936,2.326-8.566Z" transform="translate(-187.885 -232.412)" fill="#243021"/>
                  </g>
                </g>
                <g id="Group_163" data-name="Group 163" transform="translate(31.273 4.13)">
                  <path id="Path_293" data-name="Path 293" d="M232.27,237.747c-.66,3.358-2.584,7.427-7.974,7.974-.351.037-.717.057-1.1.062a9.513,9.513,0,0,1-4.008-.737,7.493,7.493,0,0,1-3.639-3.492,11.382,11.382,0,0,1-.977-2.638,18.066,18.066,0,0,1-.382-5.743h18.363A17.591,17.591,0,0,1,232.27,237.747Z" transform="translate(-213.384 -232.399)" fill="#fff" opacity="0.3"/>
                  <path id="Path_294" data-name="Path 294" d="M223.931,233.173l-8.384,8.38a11.384,11.384,0,0,1-.977-2.638l5.743-5.743Z" transform="translate(-213.377 -232.399)" fill="#fff" opacity="0.4"/>
                  <path id="Path_295" data-name="Path 295" d="M232.188,237.747l-7.974,7.974c-.351.037-.717.057-1.1.062a9.513,9.513,0,0,1-4.008-.737l11.87-11.873h1.5A17.589,17.589,0,0,1,232.188,237.747Z" transform="translate(-213.302 -232.399)" fill="#fff" opacity="0.4"/>
                  <g id="Group_162" data-name="Group 162">
                    <path id="Path_296" data-name="Path 296" d="M223.211,246.564a8.768,8.768,0,0,1-6.766-2.743c-3.557-3.88-3.033-10.425-3.009-10.7a.773.773,0,0,1,.77-.706H232.57a.775.775,0,0,1,.767.674c.035.264.806,6.532-2.643,10.461A9.472,9.472,0,0,1,223.211,246.564Zm-8.261-12.605c-.025,1.712.17,6.132,2.64,8.821a7.288,7.288,0,0,0,5.622,2.237,8,8,0,0,0,6.321-2.492c2.384-2.716,2.415-6.936,2.326-8.566Z" transform="translate(-213.396 -232.412)" fill="#243021"/>
                  </g>
                </g>
                <g id="Group_164" data-name="Group 164" transform="translate(24.143 3.553)">
                  <path id="Path_297" data-name="Path 297" d="M213.9,234.185a7.713,7.713,0,0,0-6.772-.015l-.747-1.356a9.289,9.289,0,0,1,8.205-.016Z" transform="translate(-206.381 -231.845)" fill="#243021"/>
                </g>
                <path id="Path_298" data-name="Path 298" d="M231.585,232.479l6-4.13a1.316,1.316,0,0,1,.771,1.5l-5.545,3.975Z" transform="translate(-181.825 -228.349)" fill="#243021"/>
                <path id="Path_299" data-name="Path 299" d="M189.406,232.479l-6-4.13a1.315,1.315,0,0,0-.771,1.5l5.545,3.975Z" transform="translate(-182.628 -228.349)" fill="#243021"/>
              </g>
              <g id="Group_166" data-name="Group 166" transform="translate(22.862 61.254)">
                <path id="Path_300" data-name="Path 300" d="M201.717,271.639a45.428,45.428,0,0,0-8.8,7.813l6.2,14.011,7.723-8.665S201.518,277.6,201.717,271.639Z" transform="translate(-192.916 -271.639)" fill="#fff"/>
                <path id="Path_301" data-name="Path 301" d="M218.673,271.639a39.055,39.055,0,0,1,8.505,7.438l-5.906,14.386-7.723-8.665S218.872,277.6,218.673,271.639Z" transform="translate(-192.578 -271.639)" fill="#fff"/>
              </g>
              <g id="Group_168" data-name="Group 168" transform="translate(0 72.367)">
                <g id="Group_167" data-name="Group 167">
                  <path id="Path_302" data-name="Path 302" d="M187.731,301.095l-7.185-18.522s-9.1,4.791-10.123,18.54Z" transform="translate(-170.423 -282.573)" fill="#f94b22"/>
                </g>
              </g>
              <g id="Group_170" data-name="Group 170" transform="translate(64.378 72.367)">
                <g id="Group_169" data-name="Group 169">
                  <path id="Path_303" data-name="Path 303" d="M233.763,301.095l7.185-18.522s9.1,4.791,10.123,18.54Z" transform="translate(-233.763 -282.573)" fill="#f94b22"/>
                </g>
              </g>
            </g>
          </g>
        </g>
        <g id="Group_178" data-name="Group 178" transform="translate(6.817 14.75)">
          <g id="Group_174" data-name="Group 174" transform="translate(56.754 27.392)">
            <path id="Path_304" data-name="Path 304" d="M244.229,241.727a5.641,5.641,0,0,1-2.843,4.321l-.129,1.2a5.782,5.782,0,0,1-6.365,5.135l-1.924-.206,2.467-23.046,1.924.206a5.782,5.782,0,0,1,5.134,6.366l-.129,1.2A5.63,5.63,0,0,1,244.229,241.727Z" transform="translate(-232.968 -229.132)" fill="#082e43"/>
          </g>
          <g id="Group_175" data-name="Group 175" transform="translate(0 27.392)">
            <path id="Path_305" data-name="Path 305" d="M188.423,252.178l-1.922.206a5.784,5.784,0,0,1-6.366-5.135l-.129-1.2a5.645,5.645,0,0,1-.977-9.142l-.129-1.2a5.782,5.782,0,0,1,5.134-6.366l1.923-.206Z" transform="translate(-177.13 -229.132)" fill="#082e43"/>
          </g>
          <g id="Group_176" data-name="Group 176" transform="translate(4.987)">
            <path id="Path_306" data-name="Path 306" d="M240.576,231.452H238.8a27.5,27.5,0,0,0-55,0h-1.772a29.27,29.27,0,1,1,58.54,0Z" transform="translate(-182.036 -202.182)" fill="#082e43"/>
          </g>
          <g id="Group_177" data-name="Group 177" transform="translate(7.298 46.758)">
            <path id="Path_307" data-name="Path 307" d="M207.074,269.14c-11.514,0-17.1-5.7-19.76-10.48a24.656,24.656,0,0,1-3-10.436l1.771-.038a23.284,23.284,0,0,0,2.814,9.67c3.537,6.312,9.654,9.512,18.179,9.512Z" transform="translate(-184.31 -248.186)" fill="#082e43"/>
          </g>
          <path id="Path_308" data-name="Path 308" d="M211.756,269.876h-5.08a2.222,2.222,0,0,1-2.223-2.222h0a2.223,2.223,0,0,1,2.223-2.223h5.08a2.222,2.222,0,0,1,2.222,2.223h0A2.222,2.222,0,0,1,211.756,269.876Z" transform="translate(-176.682 -201.145)" fill="#082e43"/>
        </g>
      </g>
    </g>
    <path id="Path_347" data-name="Path 347" d="M173.867,0H0" transform="translate(1039.149 141.24)" fill="none" stroke="#4969b2" stroke-width="2"/>
    <g id="_1" data-name="1" transform="translate(1187.597 112.164)">
      <circle id="Ellipse_1" data-name="Ellipse 1" cx="28.595" cy="28.595" r="28.595" fill="url(#linear-gradient)"/>
      <g id="solicită_apel" data-name="solicită apel" transform="translate(14.505 14.505)">
        <g id="call" transform="translate(0)">
          <path id="Path_1" data-name="Path 1" d="M5.712,12.376A24.7,24.7,0,0,0,16.183,22.847l3.491-3.491a1.263,1.263,0,0,1,1.587-.317,16.6,16.6,0,0,0,5.712.952,1.5,1.5,0,0,1,1.587,1.587v5.394a1.5,1.5,0,0,1-1.587,1.587A26.95,26.95,0,0,1,0,1.587,1.5,1.5,0,0,1,1.587,0H7.14A1.5,1.5,0,0,1,8.726,1.587,17.968,17.968,0,0,0,9.678,7.3a1.954,1.954,0,0,1-.317,1.587Z" transform="translate(0)" fill="#f8fbfd"/>
        </g>
      </g>
    </g>
    <g id="soundwave" transform="translate(1165.082 53.506)">
      <line id="Line_66" data-name="Line 66" y1="4.8" transform="translate(83.492 85.35)" fill="none" stroke="#4969b2" stroke-miterlimit="10" stroke-width="2"/>
      <line id="Line_67" data-name="Line 67" y1="3.6" transform="translate(88.879 85.95)" fill="none" stroke="#4969b2" stroke-miterlimit="10" stroke-width="2"/>
      <line id="Line_68" data-name="Line 68" y1="3.6" transform="translate(137.105 85.95)" fill="none" stroke="#4969b2" stroke-miterlimit="10" stroke-width="2"/>
      <line id="Line_69" data-name="Line 69" y1="2.4" transform="translate(94.266 86.55)" fill="none" stroke="#4969b2" stroke-miterlimit="10" stroke-width="2"/>
      <line id="Line_70" data-name="Line 70" y1="13.68" transform="translate(99.653 80.91)" fill="none" stroke="#4969b2" stroke-miterlimit="10" stroke-width="2"/>
      <line id="Line_71" data-name="Line 71" y1="27.6" transform="translate(105.04 73.95)" fill="none" stroke="#4969b2" stroke-miterlimit="10" stroke-width="2"/>
      <line id="Line_72" data-name="Line 72" y1="60" transform="translate(110.427 57.75)" fill="none" stroke="#4969b2" stroke-miterlimit="10" stroke-width="2"/>
      <line id="Line_73" data-name="Line 73" y1="22.8" transform="translate(115.814 76.35)" fill="none" stroke="#4969b2" stroke-miterlimit="10" stroke-width="2"/>
      <line id="Line_74" data-name="Line 74" y1="12" transform="translate(121.202 81.75)" fill="none" stroke="#4969b2" stroke-miterlimit="10" stroke-width="2"/>
      <line id="Line_75" data-name="Line 75" y1="22.8" transform="translate(126.589 76.35)" fill="none" stroke="#4969b2" stroke-miterlimit="10" stroke-width="2"/>
      <line id="Line_76" data-name="Line 76" y1="7.2" transform="translate(131.976 84.15)" fill="none" stroke="#4969b2" stroke-miterlimit="10" stroke-width="2"/>
      <line id="Line_77" data-name="Line 77" y1="7.2" transform="translate(142.75 84.15)" fill="none" stroke="#4969b2" stroke-miterlimit="10" stroke-width="2"/>
      <line id="Line_78" data-name="Line 78" y1="21.6" transform="translate(148.137 76.95)" fill="none" stroke="#4969b2" stroke-miterlimit="10" stroke-width="2"/>
      <line id="Line_79" data-name="Line 79" y1="6.667" transform="translate(186.105 84.417)" fill="none" stroke="#4969b2" stroke-miterlimit="10" stroke-width="2"/>
      <line id="Line_80" data-name="Line 80" y1="13.333" transform="translate(191.75 81.083)" fill="none" stroke="#4969b2" stroke-miterlimit="10" stroke-width="2"/>
      <line id="Line_81" data-name="Line 81" y2="2.222" transform="translate(197.137 86.639)" fill="none" stroke="#4969b2" stroke-miterlimit="10" stroke-width="2"/>
      <line id="Line_82" data-name="Line 82" y1="39.6" transform="translate(153.524 67.95)" fill="none" stroke="#4969b2" stroke-miterlimit="10" stroke-width="2"/>
      <line id="Line_83" data-name="Line 83" y1="15.6" transform="translate(158.911 79.95)" fill="none" stroke="#4969b2" stroke-miterlimit="10" stroke-width="2"/>
      <line id="Line_84" data-name="Line 84" y1="7.2" transform="translate(164.298 84.15)" fill="none" stroke="#4969b2" stroke-miterlimit="10" stroke-width="2"/>
      <line id="Line_85" data-name="Line 85" y1="3.6" transform="translate(169.685 85.95)" fill="none" stroke="#4969b2" stroke-miterlimit="10" stroke-width="2"/>
      <line id="Line_86" data-name="Line 86" y1="13.333" transform="translate(202.75 81.083)" fill="none" stroke="#4969b2" stroke-miterlimit="10" stroke-width="2"/>
      <line id="Line_87" data-name="Line 87" y1="22.232" transform="translate(208.137 75.534)" fill="none" stroke="#4969b2" stroke-miterlimit="10" stroke-width="2"/>
      <line id="Line_88" data-name="Line 88" y1="28.868" transform="translate(213.525 72.216)" fill="none" stroke="#4969b2" stroke-miterlimit="10" stroke-width="2"/>
      <line id="Line_89" data-name="Line 89" y1="43.8" transform="translate(218.912 64.75)" fill="none" stroke="#4969b2" stroke-miterlimit="10" stroke-width="2"/>
      <line id="Line_90" data-name="Line 90" y1="26.75" transform="translate(224.299 73.75)" fill="none" stroke="#4969b2" stroke-miterlimit="10" stroke-width="2"/>
      <line id="Line_92" data-name="Line 92" y1="21.6" transform="translate(175.073 76.95)" fill="none" stroke="#4969b2" stroke-miterlimit="10" stroke-width="2"/>
      <line id="Line_93" data-name="Line 93" y1="9.6" transform="translate(180.46 82.95)" fill="none" stroke="#4969b2" stroke-miterlimit="10" stroke-width="2"/>
    </g>
  </g>
</svg>
