<?xml version="1.0" encoding="utf-8"?>
<!-- Generator: Adobe Illustrator 23.0.3, SVG Export Plug-In . SVG Version: 6.00 Build 0)  -->
<svg version="1.1" id="Слой_1" xmlns="http://www.w3.org/2000/svg" xmlns:xlink="http://www.w3.org/1999/xlink" x="0px" y="0px"
	 viewBox="0 0 4448.8 407.5" style="enable-background:new 0 0 4448.8 407.5;" xml:space="preserve">
<style type="text/css">
	.st0{fill:#8797B4;}
	.st1{fill:#FFFFFF;}
	.st2{fill:#4C638F;}
	.st3{fill:#D55050;}
	.st4{fill:#FAD27A;}
	.st5{fill:#78C760;}
	.st6{fill:none;stroke:#4C638F;stroke-width:8.5;stroke-linecap:round;stroke-miterlimit:10;}
	.st7{fill:none;stroke:#8797B4;stroke-width:3;stroke-linecap:round;stroke-miterlimit:10;}
	.st8{fill:none;stroke:#6D7C91;stroke-width:4;}
</style>
<g id="OBJECTS" transform="translate(567.428 -340.563)">
	<g id="Group_34" transform="translate(79.417 340.563)">
		<path id="Path_1449" class="st0" d="M1716.7,359.5c0,10.9-62.3,19.7-139.2,19.7c-76.9,0-139.2-8.8-139.2-19.7
			s62.3-19.7,139.2-19.7C1654.4,339.8,1716.7,348.6,1716.7,359.5z"/>
		<g id="Group_32" transform="translate(4.404)">
			<g id="Group_6" transform="translate(42.825)">
				<path id="Rectangle_3" class="st1" d="M1270.5,0h519.6c3.5,0,6.3,2.8,6.3,6.3v295.7c0,3.5-2.8,6.3-6.3,6.3h-519.6
					c-3.5,0-6.3-2.8-6.3-6.3V6.3C1264.2,2.8,1267,0,1270.5,0C1270.5,0,1270.5,0,1270.5,0z"/>
				<path id="Path_1450" class="st2" d="M1784.9,0h-509c-6.4,0-11.6,5.2-11.7,11.7v29.6h532.3V11.7C1796.5,5.2,1791.3,0,1784.9,0z"
					/>
				<rect id="Rectangle_4" x="1264.2" y="40.6" class="st0" width="532.3" height="9.2"/>
				<path id="Rectangle_5" class="st1" d="M1365.5,10.5h340.8c1.7,0,3,1.3,3,3v14.3c0,1.7-1.3,3-3,3h-340.8c-1.7,0-3-1.3-3-3V13.5
					C1362.5,11.8,1363.8,10.5,1365.5,10.5z"/>
				<path id="Rectangle_6" class="st1" d="M1727.7,10.5h40.4c1.7,0,3,1.3,3,3v14.3c0,1.7-1.3,3-3,3h-40.4c-1.7,0-3-1.3-3-3V13.5
					C1724.7,11.8,1726,10.5,1727.7,10.5z"/>
				<path id="Path_1451" class="st3" d="M1300.6,20.6c0,3.9-3.1,7-7,7c-3.9,0-7-3.1-7-7c0-3.9,3.1-7,7-7
					C1297.5,13.6,1300.6,16.8,1300.6,20.6z"/>
				<path id="Path_1452" class="st4" d="M1321.4,20.6c0,3.9-3.1,7-7,7c-3.9,0-7-3.1-7-7c0-3.9,3.1-7,7-7
					C1318.2,13.6,1321.4,16.8,1321.4,20.6z"/>
				<path id="Path_1453" class="st5" d="M1342.1,20.6c0,3.9-3.1,7-7,7s-7-3.1-7-7c0-3.9,3.1-7,7-7c0,0,0,0,0,0
					C1339,13.6,1342.1,16.8,1342.1,20.6z"/>
			</g>
			<path id="Rectangle_7" class="st0" d="M1325.4,292.5h495.5c1.7,0,3,1.3,3,3v2.6c0,1.7-1.3,3-3,3h-495.5c-1.7,0-3-1.3-3-3v-2.6
				C1322.4,293.9,1323.8,292.5,1325.4,292.5z"/>
			<g id="Group_9" transform="translate(136.131 150.706)">
				<g id="Group_7">
					<line id="Line_1" class="st6" x1="1288.9" y1="23.3" x2="1264.2" y2="1.4"/>
					<line id="Line_2" class="st6" x1="1287.5" y1="0" x2="1265.6" y2="24.7"/>
				</g>
				<g id="Group_8" transform="translate(320.995)">
					<line id="Line_3" class="st6" x1="1288.9" y1="23.3" x2="1264.2" y2="1.4"/>
					<line id="Line_4" class="st6" x1="1287.5" y1="0" x2="1265.6" y2="24.7"/>
				</g>
			</g>
			<g id="Group_31" transform="translate(194.174 308.398)">
				<g id="Group_28">
					<g id="Group_27" transform="translate(21.858)">
						<rect id="Rectangle_8" x="1264.2" y="0" class="st2" width="5.4" height="50.3"/>
					</g>
					<path id="Path_1466" class="st2" d="M1291.4,50.3c0-7.5-6.1-13.6-13.6-13.6c-7.5,0-13.6,6.1-13.6,13.6H1291.4z"/>
				</g>
				<g id="Group_30" transform="translate(202.422)">
					<g id="Group_29">
						<rect id="Rectangle_9" x="1264.2" y="0" class="st2" width="5.4" height="50.3"/>
					</g>
					<path id="Path_1467" class="st2" d="M1264.2,50.3c0-7.5,6.1-13.6,13.6-13.6c7.5,0,13.6,6.1,13.6,13.6H1264.2z"/>
				</g>
			</g>
		</g>
		<g id="Group_33" transform="translate(0 370.316)">
			<line id="Line_6" class="st7" x1="1423.1" y1="0" x2="1301.8" y2="0"/>
			<line id="Line_7" class="st7" x1="1284.5" y1="0" x2="1264.2" y2="0"/>
			<line id="Line_8" class="st7" x1="1732" y1="0" x2="1853.3" y2="0"/>
			<line id="Line_9" class="st7" x1="1488.6" y1="35.7" x2="1571.9" y2="35.7"/>
			<line id="Line_10" class="st7" x1="1870.6" y1="0" x2="1891" y2="0"/>
			<line id="Line_11" class="st7" x1="1587.4" y1="35.7" x2="1607.8" y2="35.7"/>
			<line id="Line_12" class="st7" x1="1788.2" y1="35.7" x2="1704.8" y2="35.7"/>
			<line id="Line_13" class="st7" x1="1407" y1="35.7" x2="1386.6" y2="35.7"/>
		</g>
	</g>
	<g id="phone-call-auricular-symbol-in-black" transform="translate(427.197 566.005) rotate(135)">
		<path id="Path_428" class="st2" d="M-845.4-855.1l-0.2-0.7c-0.7-1.9-2.3-3.3-4.2-4l-6.4-1.7c-2-0.4-4,0.1-5.5,1.4l-2.3,2.3
			c-8.4-2.3-15-8.9-17.3-17.3l2.3-2.3c1.3-1.5,1.9-3.5,1.4-5.5l-1.7-6.4c-0.6-1.9-2.1-3.4-4-4.2l-0.7-0.2c-1.9-0.5-3.9,0-5.4,1.3
			l-3.5,3.5c-0.5,0.7-0.8,1.5-1,2.4c-0.3,22.6,17.8,41.1,40.4,41.4c0.3,0,0.6,0,0.8,0c0.9-0.2,1.7-0.5,2.5-1l3.5-3.5
			C-845.3-851.1-844.9-853.2-845.4-855.1z"/>
	</g>
</g>
<g id="Group_272" transform="translate(0 169.576)">
	<path id="Path_1479_2_" class="st8" d="M2046.8,33.8c-25.2-21.8-99.4-4.6-172.5,39.6s-86.1,35.7-171.2,59.5
		c-85,23.8-99.3,6.2-192.2,27.7c-92.9,21.5-93.7-18.9-138.9-34.2c-45.3-15.2-106.9-6.6-106.9-6.6s-339,86.9-491.6,82.8
		c-152.6-4.1-433-61.3-476.3-58.2S106.9,284.6,0,202.7"/>
	<g id="Group_17" transform="translate(0 -5)">
		<g id="Group_10" transform="translate(6.246)">
			<path id="Path_1454" class="st2" d="M1910.8,36.6h-5.4c0-20.2,16.4-36.6,36.6-36.6v5.4C1924.8,5.4,1910.9,19.3,1910.8,36.6z"/>
		</g>
		<g id="Group_11" transform="translate(0 33.825)">
			<path id="Path_1455" class="st2" d="M1923.3,8.9c0,4.9-4,8.9-8.9,8.9c-4.9,0-8.9-4-8.9-8.9c0-4.9,4-8.9,8.9-8.9c0,0,0,0,0,0
				C1919.3,0,1923.3,4,1923.3,8.9z"/>
		</g>
		<g id="Group_12" transform="translate(7.193 44.385)">
			<path id="Path_1456" class="st2" d="M1907.3,14.1c-1,0-1.8-0.8-1.8-1.8V1.8c0-1,0.8-1.8,1.8-1.8c1,0,1.8,0.8,1.8,1.8c0,0,0,0,0,0
				v10.6C1909.1,13.3,1908.3,14.1,1907.3,14.1L1907.3,14.1z"/>
		</g>
		<g id="Group_15" transform="translate(1.284 44.385)">
			<g id="Group_13" transform="translate(11.819)">
				<path id="Path_1457" class="st2" d="M1907.3,14.1c-1,0-1.8-0.8-1.8-1.8V1.8c0-1,0.8-1.8,1.8-1.8c1,0,1.8,0.8,1.8,1.8
					c0,0,0,0,0,0v10.6C1909.1,13.3,1908.3,14.1,1907.3,14.1C1907.3,14.1,1907.3,14.1,1907.3,14.1z"/>
			</g>
			<g id="Group_14">
				<path id="Path_1458" class="st2" d="M1907.3,14.1c-1,0-1.8-0.8-1.8-1.8V1.8c0-1,0.8-1.8,1.8-1.8c1,0,1.8,0.8,1.8,1.8v10.6
					C1909.1,13.3,1908.3,14.1,1907.3,14.1L1907.3,14.1z"/>
			</g>
		</g>
		<g id="Group_16" transform="translate(12.329 38.708)">
			<path id="Path_1459" class="st2" d="M1914.7,11c-0.5,0-0.9-0.2-1.3-0.5L1906,3c-0.7-0.7-0.7-1.8,0-2.5c0.7-0.7,1.8-0.7,2.5,0
				L1916,8c0.7,0.7,0.7,1.8,0,2.5C1915.7,10.8,1915.2,11,1914.7,11L1914.7,11z"/>
		</g>
	</g>
	<path id="Path_1476_1_" class="st8" d="M4448.7,141.8c-205.3,10.7-262-81.2-288-136s-493.8,98-580.3,141.6s-95.3-59.2-182.6-88.9
		c-87.3-29.7-203.2,32-203.2,32s-81.9,51.1-111.5,37c-29.6-14.1-81.6-88.5-165.8-64.7C2833.1,86.6,2819,69,2727,90.5
		c-92,21.5-92.8-18.9-137.6-34.2c-44.8-15.2-105.9-6.6-105.9-6.6"/>
	<g id="Group_25" transform="translate(575.157)">
		<g id="Group_18">
			<path id="Path_1460" class="st2" d="M1942.1,36.6h-5.4c0-17.2-14-31.2-31.2-31.2V0C1925.7,0,1942,16.4,1942.1,36.6z"/>
		</g>
		<g id="Group_19" transform="translate(24.98 33.825)">
			<path id="Path_1461" class="st2" d="M1905.5,8.9c0,4.9,4,8.9,8.9,8.9c4.9,0,8.9-4,8.9-8.9c0-4.9-4-8.9-8.9-8.9
				C1909.5,0,1905.5,4,1905.5,8.9C1905.5,8.9,1905.5,8.9,1905.5,8.9z"/>
		</g>
		<g id="Group_20" transform="translate(32.063 44.385)">
			<path id="Path_1462" class="st2" d="M1907.3,14.1c-1,0-1.8-0.8-1.8-1.8c0,0,0,0,0,0V1.8c0-1,0.8-1.8,1.8-1.8c1,0,1.8,0.8,1.8,1.8
				c0,0,0,0,0,0v10.6C1909.1,13.3,1908.3,14.1,1907.3,14.1C1907.3,14.1,1907.3,14.1,1907.3,14.1z"/>
		</g>
		<g id="Group_23" transform="translate(26.151 44.385)">
			<g id="Group_21">
				<path id="Path_1463" class="st2" d="M1907.3,14.1c-1,0-1.8-0.8-1.8-1.8l0,0V1.8c0-1,0.8-1.8,1.8-1.8s1.8,0.8,1.8,1.8v10.6
					C1909.1,13.3,1908.3,14.1,1907.3,14.1z"/>
			</g>
			<g id="Group_22" transform="translate(11.822)">
				<path id="Path_1464" class="st2" d="M1907.3,14.1c-1,0-1.8-0.8-1.8-1.8c0,0,0,0,0,0V1.8c0-1,0.8-1.8,1.8-1.8
					c1,0,1.8,0.8,1.8,1.8c0,0,0,0,0,0v10.6C1909.1,13.3,1908.3,14.1,1907.3,14.1C1907.3,14.1,1907.3,14.1,1907.3,14.1z"/>
			</g>
		</g>
		<g id="Group_24" transform="translate(19.465 38.708)">
			<path id="Path_1465" class="st2" d="M1907.3,11c-1,0-1.8-0.8-1.8-1.8c0-0.5,0.2-0.9,0.5-1.3l7.5-7.5c0.7-0.7,1.8-0.7,2.5,0
				c0.7,0.7,0.7,1.8,0,2.5l-7.5,7.5C1908.2,10.8,1907.7,11,1907.3,11z"/>
		</g>
	</g>
</g>
<g id="Group_269" transform="translate(-594.503 509.367)">
	<path id="Path_1478" class="st4" d="M2654.9-298.1l2.6-3.5l19.8,14.8l-2.6,3.5L2654.9-298.1z"/>
	
		<rect id="Rectangle_295" x="2652.3" y="-289.3" transform="matrix(0.5985 -0.8011 0.8011 0.5985 1287.5398 2015.3485)" class="st4" width="4.4" height="24.7"/>
	
		<rect id="Rectangle_296" x="2635.3" y="-291.1" transform="matrix(0.5989 -0.8008 0.8008 0.5989 1295.9041 2011.7433)" class="st2" width="41.8" height="6.7"/>
	<path id="Path_1474" class="st2" d="M2633.3-280.7l10.5,7.9l23.2-31.1l-10.5-7.9c-5.9-4.4-14.3-3.2-18.8,2.7c0,0,0,0,0,0l-7.1,9.6
		C2626.1-293.5,2627.4-285.1,2633.3-280.7C2633.3-280.7,2633.3-280.7,2633.3-280.7z"/>
	
		<rect id="Rectangle_298" x="2629.5" y="-305.8" transform="matrix(0.5986 -0.8011 0.8011 0.5986 1301.1417 1988.366)" class="st2" width="10" height="3.5"/>
	<g id="Group_270" transform="translate(1973.336 -516.452) rotate(137)">
		
			<rect id="Rectangle_300" x="-640.6" y="-930.2" transform="matrix(0.8008 0.5989 -0.5989 0.8008 -671.4608 200.5348)" class="st2" width="6.7" height="41.8"/>
		<path id="Path_1475" class="st2" d="M-660.1-902.2l10.5,7.9l23.2-31.1l-10.5-7.9c-5.9-4.4-14.3-3.2-18.8,2.7c0,0,0,0,0,0l-7.1,9.6
			C-667.3-915-666.1-906.6-660.1-902.2C-660.1-902.2-660.1-902.2-660.1-902.2z"/>
		
			<rect id="Rectangle_299" x="-660.6" y="-930.6" transform="matrix(0.8011 0.5986 -0.5986 0.8011 -685.1075 210.2669)" class="st2" width="3.5" height="10"/>
	</g>
</g>
</svg>
