<svg xmlns="http://www.w3.org/2000/svg" width="1941.475" height="407.503" viewBox="0 0 1941.475 407.503">
  <g id="OBJECTS" transform="translate(567.428 -340.563)">
    <g id="Group_34" data-name="Group 34" transform="translate(79.417 340.563)">
      <path id="Path_1449" data-name="Path 1449" d="M452.6,401.864c0,10.9-62.311,19.737-139.179,19.737s-139.179-8.837-139.179-19.737,62.312-19.741,139.179-19.741S452.6,390.962,452.6,401.864Z" transform="translate(-0.028 -42.363)" fill="#8797b4"/>
      <g id="Group_32" data-name="Group 32" transform="translate(4.404)">
        <g id="Group_6" data-name="Group 6" transform="translate(42.825)">
          <path id="Rectangle_3" data-name="Rectangle 3" d="M6.346,0H525.987a6.345,6.345,0,0,1,6.345,6.345V302.053a6.345,6.345,0,0,1-6.345,6.345H6.346A6.346,6.346,0,0,1,0,302.053V6.346A6.346,6.346,0,0,1,6.346,0Z" fill="#fff"/>
          <path id="Path_1450" data-name="Path 1450" d="M625.8,197.19H116.781a11.691,11.691,0,0,0-11.657,11.657v29.634H637.456V208.847A11.691,11.691,0,0,0,625.8,197.19Z" transform="translate(-105.124 -197.189)" fill="#4c638f"/>
          <rect id="Rectangle_4" data-name="Rectangle 4" width="532.332" height="9.197" transform="translate(0 40.58)" fill="#8797b4"/>
          <rect id="Rectangle_5" data-name="Rectangle 5" width="346.759" height="20.308" rx="3" transform="translate(98.29 10.492)" fill="#fff"/>
          <rect id="Rectangle_6" data-name="Rectangle 6" width="46.391" height="20.308" rx="3" transform="translate(460.513 10.492)" fill="#fff"/>
          <path id="Path_1451" data-name="Path 1451" d="M131.362,211.619a7.007,7.007,0,1,1-7.009-7.005A7.008,7.008,0,0,1,131.362,211.619Z" transform="translate(-94.89 -190.974)" fill="#d55050"/>
          <path id="Path_1452" data-name="Path 1452" d="M142.64,211.619a7.006,7.006,0,1,1-7.007-7.005A7.008,7.008,0,0,1,142.64,211.619Z" transform="translate(-85.446 -190.974)" fill="#fad27a"/>
          <path id="Path_1453" data-name="Path 1453" d="M153.919,211.619a7.006,7.006,0,1,1-7.005-7.005A7.006,7.006,0,0,1,153.919,211.619Z" transform="translate(-76.004 -190.974)" fill="#78c760"/>
        </g>
        <rect id="Rectangle_7" data-name="Rectangle 7" width="501.455" height="8.585" rx="3" transform="translate(58.264 292.522)" fill="#8797b4"/>
        <g id="Group_9" data-name="Group 9" transform="translate(136.131 150.706)">
          <g id="Group_7" data-name="Group 7">
            <line id="Line_1" data-name="Line 1" x1="24.723" y1="21.871" transform="translate(0 1.426)" fill="none" stroke="#4c638f" stroke-linecap="round" stroke-miterlimit="10" stroke-width="8.5"/>
            <line id="Line_2" data-name="Line 2" x1="21.871" y2="24.723" transform="translate(1.426)" fill="none" stroke="#4c638f" stroke-linecap="round" stroke-miterlimit="10" stroke-width="8.5"/>
          </g>
          <g id="Group_8" data-name="Group 8" transform="translate(320.995)">
            <line id="Line_3" data-name="Line 3" x1="24.723" y1="21.871" transform="translate(0 1.426)" fill="none" stroke="#4c638f" stroke-linecap="round" stroke-miterlimit="10" stroke-width="8.5"/>
            <line id="Line_4" data-name="Line 4" x1="21.871" y2="24.723" transform="translate(1.426)" fill="none" stroke="#4c638f" stroke-linecap="round" stroke-miterlimit="10" stroke-width="8.5"/>
          </g>
        </g>
        <g id="Group_272" data-name="Group 272" transform="translate(0 169.576)">
          <path id="Path_1479" data-name="Path 1479" d="M2030.61-35.445c-24.988-21.792-98.5-4.559-170.851,39.555S1774.421,39.834,1690.2,63.626s-98.385,6.159-190.371,27.678-92.777-18.949-137.613-34.152-105.863-6.621-105.863-6.621" transform="translate(-1907.324 70.228)" fill="none" stroke="#6d7c91" stroke-width="4"/>
          <g id="Group_17" data-name="Group 17" transform="translate(0 -5)">
            <g id="Group_10" data-name="Group 10" transform="translate(6.246)">
              <path id="Path_1454" data-name="Path 1454" d="M90.566,326.07H85.214a36.62,36.62,0,0,1,36.579-36.579v5.354A31.261,31.261,0,0,0,90.566,326.07Z" transform="translate(-85.214 -289.491)" fill="#4c638f"/>
            </g>
            <g id="Group_11" data-name="Group 11" transform="translate(0 33.825)">
              <path id="Path_1455" data-name="Path 1455" d="M99.657,316.823a8.921,8.921,0,1,1-8.921-8.921A8.921,8.921,0,0,1,99.657,316.823Z" transform="translate(-81.814 -307.902)" fill="#4c638f"/>
            </g>
            <g id="Group_12" data-name="Group 12" transform="translate(7.193 44.385)">
              <path id="Path_1456" data-name="Path 1456" d="M87.513,327.773a1.786,1.786,0,0,1-1.784-1.784V315.436a1.785,1.785,0,1,1,3.57,0v10.553A1.785,1.785,0,0,1,87.513,327.773Z" transform="translate(-85.729 -313.65)" fill="#4c638f"/>
            </g>
            <g id="Group_15" data-name="Group 15" transform="translate(1.284 44.385)">
              <g id="Group_13" data-name="Group 13" transform="translate(11.819)">
                <path id="Path_1457" data-name="Path 1457" d="M90.732,327.773a1.786,1.786,0,0,1-1.786-1.784V315.436a1.785,1.785,0,1,1,3.57,0v10.553A1.783,1.783,0,0,1,90.732,327.773Z" transform="translate(-88.946 -313.65)" fill="#4c638f"/>
              </g>
              <g id="Group_14" data-name="Group 14">
                <path id="Path_1458" data-name="Path 1458" d="M84.3,327.773a1.783,1.783,0,0,1-1.782-1.784V315.436a1.784,1.784,0,1,1,3.568,0v10.553A1.785,1.785,0,0,1,84.3,327.773Z" transform="translate(-82.513 -313.65)" fill="#4c638f"/>
              </g>
            </g>
            <g id="Group_16" data-name="Group 16" transform="translate(12.329 38.708)">
              <path id="Path_1459" data-name="Path 1459" d="M97.772,321.593a1.782,1.782,0,0,1-1.264-.524l-7.459-7.463a1.784,1.784,0,0,1,2.522-2.524l7.461,7.463a1.786,1.786,0,0,1-1.26,3.048Z" transform="translate(-88.525 -310.56)" fill="#4c638f"/>
            </g>
          </g>
          <path id="Path_1476" data-name="Path 1476" d="M1967.491,91.3s-81.869,51.055-111.5,36.988S1774.421,39.834,1690.2,63.626s-98.385,6.159-190.371,27.678-92.777-18.949-137.613-34.152-105.863-6.621-105.863-6.621" transform="translate(-678.324 -0.772)" fill="none" stroke="#6d7c91" stroke-width="4"/>
          <g id="Group_25" data-name="Group 25" transform="translate(575.157)">
            <g id="Group_18" data-name="Group 18">
              <path id="Path_1460" data-name="Path 1460" d="M431.455,326.07H426.1a31.26,31.26,0,0,0-31.225-31.225v-5.354A36.621,36.621,0,0,1,431.455,326.07Z" transform="translate(-394.876 -289.491)" fill="#4c638f"/>
            </g>
            <g id="Group_19" data-name="Group 19" transform="translate(24.98 33.825)">
              <path id="Path_1461" data-name="Path 1461" d="M408.473,316.823a8.921,8.921,0,1,0,8.922-8.921A8.92,8.92,0,0,0,408.473,316.823Z" transform="translate(-408.473 -307.902)" fill="#4c638f"/>
            </g>
            <g id="Group_20" data-name="Group 20" transform="translate(32.063 44.385)">
              <path id="Path_1462" data-name="Path 1462" d="M414.112,327.773a1.783,1.783,0,0,1-1.784-1.784V315.436a1.784,1.784,0,1,1,3.568,0v10.553A1.783,1.783,0,0,1,414.112,327.773Z" transform="translate(-412.328 -313.65)" fill="#4c638f"/>
            </g>
            <g id="Group_23" data-name="Group 23" transform="translate(26.151 44.385)">
              <g id="Group_21" data-name="Group 21">
                <path id="Path_1463" data-name="Path 1463" d="M410.9,327.773a1.785,1.785,0,0,1-1.786-1.784V315.436a1.785,1.785,0,1,1,3.57,0v10.553A1.785,1.785,0,0,1,410.9,327.773Z" transform="translate(-409.11 -313.65)" fill="#4c638f"/>
              </g>
              <g id="Group_22" data-name="Group 22" transform="translate(11.822)">
                <path id="Path_1464" data-name="Path 1464" d="M417.329,327.773a1.783,1.783,0,0,1-1.784-1.784V315.436a1.784,1.784,0,1,1,3.568,0v10.553A1.783,1.783,0,0,1,417.329,327.773Z" transform="translate(-415.545 -313.65)" fill="#4c638f"/>
              </g>
            </g>
            <g id="Group_24" data-name="Group 24" transform="translate(19.465 38.708)">
              <path id="Path_1465" data-name="Path 1465" d="M407.255,321.593a1.786,1.786,0,0,1-1.26-3.048l7.463-7.463a1.784,1.784,0,0,1,2.522,2.524l-7.463,7.463A1.781,1.781,0,0,1,407.255,321.593Z" transform="translate(-405.471 -310.56)" fill="#4c638f"/>
            </g>
          </g>
        </g>
        <g id="Group_31" data-name="Group 31" transform="translate(194.174 308.398)">
          <g id="Group_28" data-name="Group 28">
            <g id="Group_27" data-name="Group 27" transform="translate(21.858)">
              <rect id="Rectangle_8" data-name="Rectangle 8" width="5.354" height="50.32" fill="#4c638f"/>
            </g>
            <path id="Path_1466" data-name="Path 1466" d="M214.715,398.642a13.605,13.605,0,1,0-27.211,0Z" transform="translate(-187.504 -348.323)" fill="#4c638f"/>
          </g>
          <g id="Group_30" data-name="Group 30" transform="translate(202.422)">
            <g id="Group_29" data-name="Group 29">
              <rect id="Rectangle_9" data-name="Rectangle 9" width="5.354" height="50.32" fill="#4c638f"/>
            </g>
            <path id="Path_1467" data-name="Path 1467" d="M297.684,398.642a13.605,13.605,0,1,1,27.211,0Z" transform="translate(-297.683 -348.323)" fill="#4c638f"/>
          </g>
        </g>
      </g>
      <g id="Group_33" data-name="Group 33" transform="translate(0 370.316)">
        <line id="Line_6" data-name="Line 6" x1="121.336" transform="translate(37.623)" fill="none" stroke="#8797b4" stroke-linecap="round" stroke-miterlimit="10" stroke-width="3"/>
        <line id="Line_7" data-name="Line 7" x1="20.374" fill="none" stroke="#8797b4" stroke-linecap="round" stroke-miterlimit="10" stroke-width="3"/>
        <line id="Line_8" data-name="Line 8" x2="121.336" transform="translate(467.831 0.003)" fill="none" stroke="#8797b4" stroke-linecap="round" stroke-miterlimit="10" stroke-width="3"/>
        <line id="Line_9" data-name="Line 9" x2="83.367" transform="translate(224.39 35.687)" fill="none" stroke="#8797b4" stroke-linecap="round" stroke-miterlimit="10" stroke-width="3"/>
        <line id="Line_10" data-name="Line 10" x2="20.374" transform="translate(606.416 0.003)" fill="none" stroke="#8797b4" stroke-linecap="round" stroke-miterlimit="10" stroke-width="3"/>
        <line id="Line_11" data-name="Line 11" x2="20.374" transform="translate(323.256 35.687)" fill="none" stroke="#8797b4" stroke-linecap="round" stroke-miterlimit="10" stroke-width="3"/>
        <line id="Line_12" data-name="Line 12" x1="83.37" transform="translate(440.634 35.687)" fill="none" stroke="#8797b4" stroke-linecap="round" stroke-miterlimit="10" stroke-width="3"/>
        <line id="Line_13" data-name="Line 13" x1="20.373" transform="translate(122.437 35.687)" fill="none" stroke="#8797b4" stroke-linecap="round" stroke-miterlimit="10" stroke-width="3"/>
      </g>
    </g>
    <g id="phone-call-auricular-symbol-in-black" transform="translate(427.197 566.005) rotate(135)">
      <path id="Path_428" data-name="Path 428" d="M48.518,38.842l-.243-.731a6.852,6.852,0,0,0-4.188-3.958l-6.4-1.749A6.274,6.274,0,0,0,32.2,33.837l-2.317,2.317a24.581,24.581,0,0,1-17.3-17.3L14.9,16.537a6.268,6.268,0,0,0,1.433-5.481L14.59,4.65A6.845,6.845,0,0,0,10.629.465L9.9.219A5.811,5.811,0,0,0,4.484,1.5L1.018,4.966A6.466,6.466,0,0,0,0,7.35,40.913,40.913,0,0,0,41.285,48.728a6.44,6.44,0,0,0,2.49-1.006l3.466-3.467A5.811,5.811,0,0,0,48.518,38.842Z" fill="#4c638f"/>
    </g>
    <g id="Group_269" data-name="Group 269" transform="translate(-594.503 509.367)">
      <path id="Path_1478" data-name="Path 1478" d="M0,0H4.409V24.675H0Z" transform="translate(823.307 42.497) rotate(-53.235)" fill="#fad27a"/>
      <rect id="Rectangle_295" data-name="Rectangle 295" width="4.409" height="24.675" transform="translate(834.114 69.257) rotate(126.765)" fill="#fad27a"/>
      <rect id="Rectangle_296" data-name="Rectangle 296" width="6.651" height="41.79" transform="matrix(0.801, 0.599, -0.599, 0.801, 834.429, 34.066)" fill="#4c638f"/>
      <path id="Path_1474" data-name="Path 1474" d="M10.9,38.313,23.82,40.769,31.06,2.7,18.142.238A13.4,13.4,0,0,0,2.471,10.9L.239,22.642A13.4,13.4,0,0,0,10.9,38.313Z" transform="matrix(0.899, 0.438, -0.438, 0.899, 808.676, 20.655)" fill="#4c638f"/>
      <rect id="Rectangle_298" data-name="Rectangle 298" width="3.467" height="9.989" transform="translate(801.32 41.53) rotate(-143.232)" fill="#4c638f"/>
      <g id="Group_270" data-name="Group 270" transform="translate(1973.336 -516.452) rotate(137)">
        <rect id="Rectangle_300" data-name="Rectangle 300" width="6.651" height="41.79" transform="matrix(0.801, 0.599, -0.599, 0.801, 944.429, 72.066)" fill="#4c638f"/>
        <path id="Path_1475" data-name="Path 1475" d="M10.9,38.313,23.82,40.769,31.06,2.7,18.142.238A13.4,13.4,0,0,0,2.471,10.9L.239,22.642A13.4,13.4,0,0,0,10.9,38.313Z" transform="matrix(0.899, 0.438, -0.438, 0.899, 918.676, 58.655)" fill="#4c638f"/>
        <rect id="Rectangle_299" data-name="Rectangle 299" width="3.467" height="9.989" transform="translate(911.32 79.53) rotate(-143.232)" fill="#4c638f"/>
      </g>
    </g>
  </g>
</svg>
