<svg xmlns="http://www.w3.org/2000/svg" width="292.291" height="224.377" viewBox="0 0 292.291 224.377">
  <g id="undraw_business_shop_qw5t" transform="translate(0 -3.738)">
    <ellipse id="Ellipse_84" data-name="Ellipse 84" cx="139.887" cy="10.929" rx="139.887" ry="10.929" transform="translate(3.363 206.258)" fill="#3f3d56"/>
    <path id="Path_638" data-name="Path 638" d="M811.682,303.812s.874,11.8.874,12.237-6.118,30.592-6.118,30.592-8.741,16.607,0,16.17,6.118-15.733,6.118-15.733l9.178-25.348L817.8,303.812Z" transform="translate(-592.873 -238.913)" fill="#a0616a"/>
    <rect id="Rectangle_222" data-name="Rectangle 222" width="173.669" height="121.997" transform="translate(49.152 95.107)" fill="#f2f2f2"/>
    <rect id="Rectangle_223" data-name="Rectangle 223" width="43.606" height="76.122" transform="translate(63.771 141.654)" fill="#403e53"/>
    <rect id="Rectangle_224" data-name="Rectangle 224" width="11.746" height="10.95" transform="translate(71.837 146.221)" fill="#7c6d56"/>
    <rect id="Rectangle_225" data-name="Rectangle 225" width="11.746" height="10.95" transform="translate(87.565 146.221)" fill="#7c6d56"/>
    <rect id="Rectangle_226" data-name="Rectangle 226" width="11.746" height="11.348" transform="translate(71.837 161.153)" fill="#7c6d56"/>
    <rect id="Rectangle_227" data-name="Rectangle 227" width="11.746" height="11.348" transform="translate(87.565 161.153)" fill="#7c6d56"/>
    <circle id="Ellipse_86" data-name="Ellipse 86" cx="2.773" cy="2.773" r="2.773" transform="translate(99.06 182.068)" fill="#d5b45a"/>
    <rect id="Rectangle_228" data-name="Rectangle 228" width="86.204" height="72.341" transform="translate(121.997 134.428)" fill="#403e53"/>
    <path id="Path_647" data-name="Path 647" d="M302.165,235.589H92.2l14-29.269,3.133-6.553,4.1-8.57,3.133-6.554,3.632-7.592H285.622l2.145,7.592,1.852,6.554,2.423,8.57,1.852,6.553Z" transform="translate(-61.196 -117.515)" fill="#403e53"/>
    <rect id="Rectangle_229" data-name="Rectangle 229" width="3.025" height="18.652" transform="translate(125.022 164.423)" fill="#985858"/>
    <rect id="Rectangle_230" data-name="Rectangle 230" width="3.025" height="2.269" transform="translate(125.022 167.196)" fill="#f2f2f2"/>
    <rect id="Rectangle_231" data-name="Rectangle 231" width="3.025" height="2.269" transform="translate(125.022 178.035)" fill="#f2f2f2"/>
    <rect id="Rectangle_232" data-name="Rectangle 232" width="7.31" height="18.652" transform="translate(129.559 164.423)" fill="#7a9858"/>
    <rect id="Rectangle_233" data-name="Rectangle 233" width="7.31" height="2.269" transform="translate(129.559 167.196)" fill="#f2f2f2"/>
    <rect id="Rectangle_234" data-name="Rectangle 234" width="7.31" height="2.269" transform="translate(129.559 178.035)" fill="#f2f2f2"/>
    <rect id="Rectangle_235" data-name="Rectangle 235" width="3.025" height="18.652" transform="translate(138.633 164.423)" fill="#586798"/>
    <rect id="Rectangle_236" data-name="Rectangle 236" width="3.025" height="2.269" transform="translate(138.633 167.196)" fill="#f2f2f2"/>
    <rect id="Rectangle_237" data-name="Rectangle 237" width="3.025" height="2.269" transform="translate(138.633 178.035)" fill="#f2f2f2"/>
    <rect id="Rectangle_238" data-name="Rectangle 238" width="3.025" height="18.652" transform="translate(143.17 164.423)" fill="#586798"/>
    <rect id="Rectangle_239" data-name="Rectangle 239" width="3.025" height="2.269" transform="translate(143.17 167.196)" fill="#f2f2f2"/>
    <rect id="Rectangle_240" data-name="Rectangle 240" width="3.025" height="2.269" transform="translate(143.17 178.035)" fill="#f2f2f2"/>
    <rect id="Rectangle_241" data-name="Rectangle 241" width="3.025" height="18.652" transform="translate(146.281 165.556) rotate(-20.654)" fill="#988758"/>
    <rect id="Rectangle_242" data-name="Rectangle 242" width="3.025" height="2.269" transform="translate(147.259 168.15) rotate(-20.654)" fill="#f2f2f2"/>
    <rect id="Rectangle_243" data-name="Rectangle 243" width="3.025" height="2.269" transform="translate(151.082 178.292) rotate(-20.654)" fill="#f2f2f2"/>
    <rect id="Rectangle_244" data-name="Rectangle 244" width="7.31" height="18.652" transform="translate(198.119 164.423)" fill="#586798"/>
    <rect id="Rectangle_245" data-name="Rectangle 245" width="7.31" height="2.269" transform="translate(198.119 167.196)" fill="#f2f2f2"/>
    <rect id="Rectangle_246" data-name="Rectangle 246" width="7.31" height="2.269" transform="translate(198.119 178.035)" fill="#f2f2f2"/>
    <rect id="Rectangle_247" data-name="Rectangle 247" width="3.025" height="18.652" transform="translate(193.33 164.423)" fill="#988758"/>
    <rect id="Rectangle_248" data-name="Rectangle 248" width="3.025" height="2.269" transform="translate(193.33 167.196)" fill="#f2f2f2"/>
    <rect id="Rectangle_249" data-name="Rectangle 249" width="3.025" height="2.269" transform="translate(193.33 178.035)" fill="#f2f2f2"/>
    <rect id="Rectangle_250" data-name="Rectangle 250" width="3.025" height="18.652" transform="translate(188.793 164.423)" fill="#7a9858"/>
    <rect id="Rectangle_251" data-name="Rectangle 251" width="3.025" height="2.269" transform="translate(188.793 167.196)" fill="#f2f2f2"/>
    <rect id="Rectangle_252" data-name="Rectangle 252" width="3.025" height="2.269" transform="translate(188.793 178.035)" fill="#f2f2f2"/>
    <rect id="Rectangle_253" data-name="Rectangle 253" width="18.652" height="3.025" transform="translate(179.301 181.943) rotate(-69.346)" fill="#986458"/>
    <rect id="Rectangle_254" data-name="Rectangle 254" width="2.269" height="3.025" transform="translate(184.102 169.207) rotate(-69.346)" fill="#f2f2f2"/>
    <rect id="Rectangle_255" data-name="Rectangle 255" width="2.269" height="3.025" transform="translate(180.279 179.349) rotate(-69.346)" fill="#f2f2f2"/>
    <rect id="Rectangle_256" data-name="Rectangle 256" width="86.204" height="1.764" transform="translate(121.997 183.076)" fill="#f2f2f2"/>
    <rect id="Rectangle_257" data-name="Rectangle 257" width="15.88" height="18.652" transform="translate(159.554 164.423)" fill="#988758"/>
    <rect id="Rectangle_258" data-name="Rectangle 258" width="8.066" height="3.529" transform="translate(163.461 168.456)" fill="#f2f2f2"/>
    <rect id="Rectangle_259" data-name="Rectangle 259" width="1.512" height="16.132" transform="translate(164.343 134.428)" fill="#f2f2f2"/>
    <circle id="Ellipse_135" data-name="Ellipse 135" cx="12.021" cy="12.021" r="12.021" transform="translate(153.579 138.039)" fill="#d5b45a" opacity="0.176"/>
    <circle id="Ellipse_136" data-name="Ellipse 136" cx="9.021" cy="9.021" r="9.021" transform="translate(156.579 141.039)" fill="#d5b45a" opacity="0.268"/>
    <circle id="Ellipse_87" data-name="Ellipse 87" cx="2.521" cy="2.521" r="2.521" transform="translate(162.579 148.039)" fill="#d5b45a"/>
    <path id="Path_648" data-name="Path 648" d="M331.527,206.182H155.337l3.133-6.554h171.2Z" transform="translate(-103.102 -132.5)" fill="#3b394c"/>
    <path id="Path_649" data-name="Path 649" d="M321.527,251.156h-187.7l3.133-6.553H319.675Z" transform="translate(-88.828 -162.351)" fill="#3b394c"/>
    <path id="Path_1532" data-name="Path 1532" d="M329.825,251.446H133.831L137.1,244.6H327.891Z" transform="translate(-93.126 -147.496)" fill="#3b394c"/>
    <circle id="Ellipse_88" data-name="Ellipse 88" cx="33.627" cy="33.627" r="33.627" transform="translate(0 96.299)" fill="#c39c31"/>
    <circle id="Ellipse_89" data-name="Ellipse 89" cx="28.919" cy="28.919" r="28.919" transform="translate(4.708 101.007)" fill="#d5b45a"/>
    <g id="euro" transform="translate(-16.088 115.782)">
      <path id="Path_1483" data-name="Path 1483" d="M59.621,25.738c-.324-.791-.654-1.583-1.013-2.362a1.118,1.118,0,0,0-1.487-.725c-.965.222-1.913.516-2.878.713a10.857,10.857,0,0,1-5.576-.156,6.579,6.579,0,0,1-4.293-4.557h6.259a.885.885,0,0,0,.887-.887V15.791a.885.885,0,0,0-.887-.887H43.775c0-.552-.006-1.079,0-1.607h6.859a.885.885,0,0,0,.887-.887V10.438a.885.885,0,0,0-.887-.887h-6a.09.09,0,0,1,.012-.06A6.378,6.378,0,0,1,48.14,5.857a10.472,10.472,0,0,1,6.109-.348c.977.2,1.937.5,2.914.719A1.1,1.1,0,0,0,58.6,5.515c.354-.767.677-1.547,1-2.332a1.179,1.179,0,0,0-.57-1.667,3.706,3.706,0,0,0-.54-.258A16.9,16.9,0,0,0,49.543.2,12.773,12.773,0,0,0,43.613,2.65a13,13,0,0,0-4.455,6.595l-.1.306H35.975a.885.885,0,0,0-.887.887V12.41a.885.885,0,0,0,.887.887H38.4V14.9H35.975a.885.885,0,0,0-.887.887v1.972a.885.885,0,0,0,.887.887H38.9c.222.719.408,1.451.689,2.14a12.142,12.142,0,0,0,7.7,7.326,15.9,15.9,0,0,0,9.311.114,15.477,15.477,0,0,0,2.38-.863A1.136,1.136,0,0,0,59.621,25.738Z" transform="translate(0 0)" fill="#fff"/>
    </g>
    <g id="Group_283" data-name="Group 283" transform="translate(-236 -6335.481)">
      <path id="Path_1521" data-name="Path 1521" d="M812.221,411.235s-10.976-5.244-10.8-.715,11.064,7.509,11.064,7.509Z" transform="translate(-348.904 5992.145)" fill="#fcc4b2"/>
      <path id="Path_1522" data-name="Path 1522" d="M830.58,512.376s-5.178,12.675-7.092,21.821-4.827,21.733-1.079,30.66,14.4,35.163,14.515,37.994-.913,5.706,1.352,5.618,14.588-3.968,15.089-5.688-4.2-6.074-4.2-6.074l-11.618-36.4,12.122-23.717,8.743,35.382,1.712,44.16s8.4-2.594,9.625-.373c0,0,3.766-5.249,4.244-7.536s-1.778-45.859-1.778-45.859,7.715-49.629,1.487-49.387S843.074,498.283,830.58,512.376Z" transform="translate(-361.241 5929.329)" fill="#363a72"/>
      <path id="Path_1523" data-name="Path 1523" d="M854.065,779.373s-5.745,12.7-6.289,13.285-4.288,6.4-1.457,6.294,9.515-3.2,14.435-7.931S872.16,778.1,871.572,777.56a33.408,33.408,0,0,0-4.617-2.089Z" transform="translate(-377.119 5756.159)" fill="#2f2e41"/>
      <path id="Path_1524" data-name="Path 1524" d="M930.7,804.323s-.347,5.683-1.391,7.992-.913,5.706,1.918,5.6,10.147-1.527,10.147-1.527.434-3.419-.154-3.963-3.094-6.684-2.028-8.427S930.7,804.323,930.7,804.323Z" transform="translate(-430.801 5738.257)" fill="#2f2e41"/>
      <path id="Path_1525" data-name="Path 1525" d="M931.215,288.992s6.035,9.405,8.387,11.582-4.266,6.969-4.266,6.969l-11.845,1.593s.149-10.779-.461-11.889S931.215,288.992,931.215,288.992Z" transform="translate(-427.127 6069.148)" fill="#fcc4b2"/>
      <path id="Path_1526" data-name="Path 1526" d="M894.451,318.826s2.44,4.441,4.7,4.354,13.978-5.078,14.479-6.8,3.88,12.324,3.88,12.324l-28.662,50.441-6.991-4.832,3.388-29.616,2.782-15.984Z" transform="translate(-400.659 6051.621)" fill="#fff"/>
      <path id="Path_1527" data-name="Path 1527" d="M888.719,357.822a15.863,15.863,0,0,0-1.758,7.439c0,.113.009.226.019.339.271,5.24,2.2,11.3,2.894,15.707.5,3.161.36,5.469-1.491,6.011-4.485,1.308.654,2.243-16.7,8.019s-20.382.79-20.426-.342,2.458-9.734,1.869-10.279S844.9,391.84,842.59,390.8s-.263-6.794-.263-6.794,5.2-12.109,5.091-14.94,7.878-16.182,7.878-16.182l5.433-35.365s2.089-4.617,4.9-5.293a6.958,6.958,0,0,1,5.139.935l-4.7,10.388-4.959,18.337.83,6.772s5.767-12.131,9.554-16.814,11.863-15.769,11.863-15.769,1.885-6.361.462-8.262,5.937-2.192,9.075,5.624c1.663,4.143,4.364,10.32,6.055,16.072,1.507,5.1,2.219,9.859.726,12.582C897.387,346.247,891.646,351.715,888.719,357.822Z" transform="translate(-374.686 6057.768)" fill="#363a72"/>
      <path id="Path_1528" data-name="Path 1528" d="M845.877,402.583l-8.971,2.616-12.455.483L823.17,416.5l20.469,1.474S848.752,403.606,845.877,402.583Z" transform="translate(-362.899 5996.067)" fill="#363a72"/>
      <path id="Path_1529" data-name="Path 1529" d="M910.419,504.623s-12,1.991-9.262,5.6,13.37-.185,13.37-.185Z" transform="translate(-412.813 5930.417)" fill="#fcc4b2"/>
      <path id="Path_1530" data-name="Path 1530" d="M943.874,357.236s9.581-1.506,9.063,14.391,1.01,26.043-2.844,29.028-16.37,16.511-19.2,16.621-7.382-.281-9.058.351-2.66-10.1-2.66-10.1a9.284,9.284,0,0,1,5.464-5.315c4.463-1.874,14.979-8.519,14.891-10.784s-2.66-10.1-2.66-10.1S933.292,362.183,943.874,357.236Z" transform="translate(-424.666 6025.266)" fill="#363a72"/>
      <circle id="Ellipse_134" data-name="Ellipse 134" cx="12.465" cy="12.465" r="12.465" transform="translate(483.175 6347.138)" fill="#fcc4b2"/>
      <path id="Path_1531" data-name="Path 1531" d="M886.842,238.453a2.407,2.407,0,0,1-1.048.526.748.748,0,0,1-.867-.6,3.107,3.107,0,0,1-1.189,1.525c-.582.3-1.483.049-1.567-.6a2.747,2.747,0,0,1-.632,1.335.947.947,0,0,1-1.332.045,34.224,34.224,0,0,1,.178,4.241,5.4,5.4,0,0,0,1.526,3.844c1.558,1.356,3.9,1.022,5.952.765a1.806,1.806,0,0,1,.933.051c.768.327.733,1.4.743,2.23a6.2,6.2,0,0,0,5.425,5.883,3.105,3.105,0,0,0,2.308-.563c.582-.493.879-1.3,1.546-1.668,1.085-.6,2.4.276,3.194,1.231s1.575,2.129,2.8,2.3c1.625.231,2.863-1.425,3.47-2.95a17.2,17.2,0,0,0-.342-13.363C904.55,235.288,892.959,234.118,886.842,238.453Z" transform="translate(-399.595 6103.284)" fill="#444452"/>
    </g>
  </g>
</svg>
