<svg xmlns="http://www.w3.org/2000/svg" width="305.486" height="235.657" viewBox="0 0 305.486 235.657">
  <g id="undraw_social_notifications_ro8o" transform="translate(0.001 0.542)">
    <path id="Path_573" data-name="Path 573" d="M532.306,549.854c.664-.417,1.333-.853,1.989-1.295l.445.659c-.663.447-1.339.888-2.011,1.309Z" transform="translate(-424.34 -400.484)" fill="#d9dee8"/>
    <path id="Path_574" data-name="Path 574" d="M251.386,188.319c.886-.6,1.793-1.181,2.7-1.734l.415.679c-1.352.827-2.705,1.719-4.005,2.641l-.46-.649Q250.7,188.781,251.386,188.319Zm-5.215,3.874.5.616c-1.236,1.009-2.451,2.071-3.61,3.158l-.544-.58C243.693,194.288,244.921,193.213,246.171,192.193Zm12.132-8c1.43-.747,2.9-1.452,4.375-2.1l.319.729c-1.455.637-2.911,1.334-4.325,2.073ZM239.1,198.823l.582.542c-1.084,1.166-2.142,2.385-3.143,3.623l-.619-.5c1.013-1.253,2.082-2.486,3.179-3.665Zm28.09-18.515c1.516-.542,3.071-1.039,4.622-1.475l.216.765c-1.534.432-3.071.923-4.57,1.459ZM233,206.363l.652.456c-.913,1.3-1.792,2.656-2.612,4.017l-.681-.411C231.187,209.049,232.076,207.682,233,206.363Zm43.528-28.686c1.581-.329,3.191-.607,4.787-.825l.108.788c-1.577.216-3.17.491-4.732.816ZM228,214.661l.708.363c-.725,1.417-1.411,2.877-2.037,4.339l-.731-.313C226.574,217.572,227.268,216.1,228,214.661Zm58.143-38.3c1.61-.109,3.242-.163,4.852-.162v.8c-1.591,0-3.206.052-4.8.16Zm-61.96,47.213.751.263c-.526,1.5-1.006,3.044-1.428,4.578l-.767-.21C223.167,226.648,223.653,225.09,224.185,223.57Zm71.663-47.2c1.606.112,3.23.28,4.827.5l-.109.788c-1.579-.218-3.185-.385-4.773-.5ZM221.615,232.92l.779.158c-.316,1.561-.583,3.153-.793,4.732l-.789-.1c.212-1.6.482-3.207.8-4.785Zm83.84-55.223c1.577.329,3.163.717,4.713,1.152l-.215.766c-1.532-.43-3.1-.814-4.66-1.139ZM220.34,242.535l.794.051c-.1,1.588-.149,3.2-.142,4.8l-.8,0c-.008-1.613.041-3.245.143-4.851Zm94.451-62.217c1.518.54,3.035,1.14,4.51,1.782l-.317.73c-1.459-.635-2.959-1.228-4.46-1.762Zm-94.4,71.92.793-.058c.117,1.59.29,3.2.516,4.774l-.787.112C220.679,255.471,220.5,253.847,220.386,252.238Zm103.292-68.052c1.428.742,2.849,1.543,4.222,2.38l-.414.679c-1.358-.828-2.762-1.62-4.175-2.354ZM221.76,261.848l.778-.167c.334,1.56.727,3.127,1.168,4.66l-.764.22C222.495,265.011,222.1,263.425,221.76,261.848ZM331.947,189.23c1.315.932,2.613,1.921,3.859,2.94l-.5.616c-1.232-1.008-2.516-1.986-3.815-2.907Zm-107.5,81.944.748-.272c.545,1.5,1.149,2.993,1.8,4.448l-.727.323C225.607,274.2,225,272.688,224.444,271.175Zm115.008-75.8c1.173,1.1,2.323,2.262,3.417,3.443l-.584.541c-1.082-1.168-2.219-2.314-3.379-3.4ZM228.381,280.035l.7-.372c.744,1.405,1.547,2.8,2.387,4.16l-.676.419C229.946,282.872,229.134,281.457,228.381,280.035Zm117.661-77.552c1.009,1.252,1.99,2.556,2.916,3.877l-.652.456c-.915-1.306-1.885-2.6-2.883-3.834Zm-111.907,85.33c.929,1.3,1.913,2.575,2.925,3.8l-.613.506c-1.024-1.24-2.019-2.534-2.959-3.844Zm6.1,7.394c1.1,1.157,2.247,2.29,3.418,3.366l-.538.585c-1.184-1.088-2.347-2.233-3.457-3.4ZM247.3,301.7c1.243.993,2.536,1.956,3.843,2.86l-.453.654c-1.323-.915-2.63-1.889-3.887-2.893Zm7.876,5.45c1.369.814,2.784,1.59,4.2,2.306l-.358.71c-1.435-.725-2.865-1.51-4.25-2.333Zm8.554,4.32c1.469.619,2.977,1.2,4.48,1.712l-.258.752c-1.52-.522-3.045-1.1-4.531-1.731Zm9.067,3.113c1.538.413,3.11.779,4.673,1.087l-.154.78c-1.581-.311-3.17-.681-4.726-1.1Zm9.409,1.853c1.582.2,3.19.349,4.779.442l-.046.794c-1.607-.093-3.233-.243-4.832-.447Zm9.576.557c1.6-.017,3.209-.089,4.8-.214l.063.793c-1.6.127-3.236.2-4.85.217Zm9.565-.758c1.578-.235,3.166-.527,4.722-.87l.171.777c-1.573.347-3.18.643-4.776.88Zm9.373-2.064c1.528-.449,3.06-.958,4.553-1.511l.277.746c-1.51.56-3.06,1.074-4.6,1.528Zm8.99-3.332c1.45-.655,2.9-1.368,4.3-2.122l.376.7c-1.42.762-2.884,1.484-4.35,2.146Z" transform="translate(-220.196 -156.929)" fill="#d9dee8"/>
    <path id="Path_575" data-name="Path 575" d="M598.285,275.85l.681-.41c.414.688.819,1.386,1.2,2.076l-.695.387C599.1,277.221,598.695,276.53,598.285,275.85Z" transform="translate(-467.496 -221.843)" fill="#d9dee8"/>
    <ellipse id="Ellipse_61" data-name="Ellipse 61" cx="97.55" cy="5.881" rx="97.55" ry="5.881" transform="translate(67.665 216.201)" fill="#3f3d56"/>
    <path id="Path_576" data-name="Path 576" d="M637.1,275.3s2.733,35.533-1.093,36.626-17.493,9.293-39.359,7.106c0,0-21.32,11.48-18.04.547s18.04-8.2,18.04-8.2,26.239-5.467,27.333-9.293-3.28-19.68-1.64-20.226S637.1,275.3,637.1,275.3Z" transform="translate(-454.404 -221.75)" fill="#ffc7b4"/>
    <path id="Path_577" data-name="Path 577" d="M586.9,374.449h0l7.34-1.7a1.6,1.6,0,0,1,1.8.865l7.519,15.592a1.294,1.294,0,0,1-.812,1.807l-7.46,2.119a1.71,1.71,0,0,1-2.038-.969l-4.8-11.144-.146.081-.913-2.111.152-.078-1.339-3.111a.986.986,0,0,1,.691-1.352Z" transform="translate(-459.543 -285.464)" fill="#3f3d56"/>
    <path id="Path_578" data-name="Path 578" d="M594.8,374.071l.857-.2a1.107,1.107,0,0,1,1.25.6l7.339,15.492a.686.686,0,0,1-.422.95l-7.407,2.235a.888.888,0,0,1-1.073-.5L588.4,376.493a.778.778,0,0,1,.539-1.065l.813-.188a.367.367,0,0,1,.407.185h0a.324.324,0,0,0,.359.163l3.859-.894A.554.554,0,0,0,594.8,374.071Z" transform="translate(-460.989 -286.206)" fill="#6c63ff"/>
    <path id="Path_579" data-name="Path 579" d="M653.7,451.287s2.131,51.334,5.411,58.987c2.732,6.375,4.326,27.162,4.783,33.929.092,1.357.137,2.15.137,2.15s8.746,0,9.293-2.187,2.187-26.239,0-33.893,2.789-60.627,2.789-60.627Z" transform="translate(-503.738 -335.788)" fill="#263e72"/>
    <path id="Path_580" data-name="Path 580" d="M649.691,719.866s-5.467,1.64-6.56,3.827-19.133,6.013-13.666,8.746,21.866-2.187,21.866-2.187,8.747-.547,8.2-3.827a32.408,32.408,0,0,0-2.538-7.321Z" transform="translate(-487.216 -512.034)" fill="#2f2e41"/>
    <path id="Path_581" data-name="Path 581" d="M693.939,736.88s-5.466,1.64-6.56,3.827-19.133,6.013-13.666,8.746,21.866-2.187,21.866-2.187,8.746-.547,8.2-3.827a32.407,32.407,0,0,0-2.537-7.321Z" transform="translate(-516.158 -523.163)" fill="#2f2e41"/>
    <path id="Path_582" data-name="Path 582" d="M667.757,442.893l7.653,13.12,12.773,45.615s-1.293,41.85.347,41.85,10.386,2.733,10.933,0c.462-2.309,6.584-24.426,3.533-39.147a188.217,188.217,0,0,1-3.82-28.242l-1.353-25.542s5.467-9.84-.547-11.48S667.757,442.893,667.757,442.893Z" transform="translate(-512.935 -328.667)" fill="#263e72"/>
    <ellipse id="Ellipse_62" data-name="Ellipse 62" cx="13.12" cy="13.12" rx="13.12" ry="13.12" transform="translate(148.808 3.802)" fill="#ffc7b4"/>
    <path id="Path_583" data-name="Path 583" d="M683.56,185.4s2.187,17.493,1.64,18.586,13.12-12.026,13.12-12.026-4.92-7.653-3.827-11.48Z" transform="translate(-523.272 -159.732)" fill="#ffc7b4"/>
    <path id="Path_584" data-name="Path 584" d="M692.466,220.465s-15.306-10.933-15.853-13.12l-11.48,9.84-1.951-2.322s-8.982,8.882-8.982,12.708-.547,15.306,1.093,18.586-4.92,44.826-4.92,44.826,5.467,4.92,6.013,5.467,22.413-3.28,22.413-3.28,10.933-1.093,10.933-2.733-3.28-26.239-2.187-32.8S692.466,220.465,692.466,220.465Z" transform="translate(-501.566 -177.304)" fill="#d0cde1"/>
    <path id="Path_585" data-name="Path 585" d="M670.291,289.52s2.733,35.533-1.093,36.626-17.493,9.293-39.359,7.107c0,0-21.319,11.48-18.04.547s18.04-8.2,18.04-8.2,26.239-5.466,27.333-9.293-3.28-19.68-1.64-20.226S670.291,289.52,670.291,289.52Z" transform="translate(-476.11 -231.052)" fill="#ffc7b4"/>
    <path id="Path_586" data-name="Path 586" d="M653.889,130.868a9.235,9.235,0,0,1,5.6-.437c2.588.749,4.38,3.017,6.314,4.894s4.644,3.539,7.19,2.657a4.215,4.215,0,0,1,.805-3.113,2.862,2.862,0,0,0,.715-1.19c.109-.7-.482-1.309-.659-2-.31-1.207.541-2.859-.506-3.535-.276-.179-.626-.219-.9-.408-1.058-.74.117-2.579-.583-3.664a2.237,2.237,0,0,0-.795-.663c-5.073-2.96-11.276-2.968-17.148-2.893-.818.01-1.956.416-1.725,1.2-1.11-.8-2.563.322-3.458,1.354l-1.831,2.113a16.277,16.277,0,0,0-2.238,3.027c-.559,1.07-.683,2.714.43,3.18-.828-.347-1.831,4.555,1.984,3.749C649.3,134.675,651.478,131.726,653.889,130.868Z" transform="translate(-497.565 -120.5)" fill="#8e7c41"/>
    <path id="Path_587" data-name="Path 587" d="M737.469,246.366l8.746-1.093s8.746,16.946,3.827,19.68-17.493,4.92-17.493,3.827S737.469,246.366,737.469,246.366Z" transform="translate(-555.314 -202.111)" fill="#d0cde1"/>
    <ellipse id="Ellipse_69" data-name="Ellipse 69" cx="6.736" cy="6.81" rx="6.736" ry="6.81" transform="translate(73.218 62.63)" fill="#3f3d56"/>
    <path id="Path_595" data-name="Path 595" d="M449.281,318.005H447.91v-5.226a4.72,4.72,0,0,1-1.772,1.051v-1.258a3.959,3.959,0,0,0,1.167-.674,2.554,2.554,0,0,0,.864-1.157h1.113Z" transform="translate(-367.979 -244.932)" fill="#3f3d56"/>
    <circle id="Ellipse_101" data-name="Ellipse 101" cx="13" cy="13" r="13" transform="translate(63.349 40.782)" fill="#0084ff"/>
    <ellipse id="Ellipse_70" data-name="Ellipse 70" cx="6.736" cy="6.81" rx="6.736" ry="6.81" transform="translate(73.218 62.63)" fill="#3051a5" stroke="#fff" stroke-width="1"/>
    <ellipse id="Ellipse_71" data-name="Ellipse 71" cx="6.81" cy="6.81" rx="6.81" ry="6.81" transform="translate(31.501 99.729)" fill="#3f3d56"/>
    <path id="Path_597" data-name="Path 597" d="M325.845,422.728a1.6,1.6,0,0,0,.292,1.026.847.847,0,0,0,.668.362.748.748,0,0,0,.6-.3,1.545,1.545,0,0,0,.241-.971,1.616,1.616,0,0,0-.26-1.017.813.813,0,0,0-1.285-.015A1.382,1.382,0,0,0,325.845,422.728Zm2.954-2.975-1.262.146a.981.981,0,0,0-.241-.6.685.685,0,0,0-.505-.194.843.843,0,0,0-.7.388,3.392,3.392,0,0,0-.36,1.617,1.5,1.5,0,0,1,1.211-.6,1.812,1.812,0,0,1,1.4.651,2.421,2.421,0,0,1,.582,1.679,2.473,2.473,0,0,1-.612,1.752,2.163,2.163,0,0,1-3.264-.178,4.454,4.454,0,0,1-.663-2.744,4.539,4.539,0,0,1,.691-2.819,2.191,2.191,0,0,1,1.795-.864,1.853,1.853,0,0,1,1.282.454A2.162,2.162,0,0,1,328.8,419.754Z" transform="translate(-288.343 -315.076)" fill="#3f3d56"/>
    <circle id="Ellipse_100" data-name="Ellipse 100" cx="13" cy="13" r="13" transform="translate(25.349 77.782)" fill="#4c75a3"/>
    <ellipse id="Ellipse_72" data-name="Ellipse 72" cx="6.81" cy="6.81" rx="6.81" ry="6.81" transform="translate(31.501 99.729)" fill="#3051a5" stroke="#fff" stroke-width="1"/>
    <ellipse id="Ellipse_73" data-name="Ellipse 73" cx="6.81" cy="6.81" rx="6.81" ry="6.81" transform="translate(72.235 134.558)" fill="#3f3d56"/>
    <path id="Path_599" data-name="Path 599" d="M443.563,520.6a.866.866,0,0,0,.224.635.8.8,0,0,0,.6.228.806.806,0,0,0,.6-.23.871.871,0,0,0,.226-.638.844.844,0,0,0-.223-.614.787.787,0,0,0-.591-.23.808.808,0,0,0-.607.233A.847.847,0,0,0,443.563,520.6Zm-.122,3.046a1.274,1.274,0,0,0,.28.877.9.9,0,0,0,.7.315.867.867,0,0,0,.678-.3,1.279,1.279,0,0,0,.268-.875,1.151,1.151,0,0,0-.273-.8.89.89,0,0,0-.692-.3.819.819,0,0,0-.723.345A1.289,1.289,0,0,0,443.44,523.646Zm-.151-1.673a1.553,1.553,0,0,1-.747-.614,1.633,1.633,0,0,1-.233-.855,1.746,1.746,0,0,1,.539-1.315,2.518,2.518,0,0,1,3.061,0,1.739,1.739,0,0,1,.544,1.315,1.559,1.559,0,0,1-.952,1.469,1.8,1.8,0,0,1,1.173,1.746,2.1,2.1,0,0,1-2.232,2.216,2.406,2.406,0,0,1-1.568-.509,2.012,2.012,0,0,1-.739-1.649,2.081,2.081,0,0,1,.278-1.059,1.8,1.8,0,0,1,.876-.745Z" transform="translate(-365.36 -380.934)" fill="#3f3d56"/>
    <circle id="Ellipse_99" data-name="Ellipse 99" cx="13" cy="13" r="13" transform="translate(66.349 112.782)" fill="#08c"/>
    <ellipse id="Ellipse_74" data-name="Ellipse 74" cx="6.81" cy="6.81" rx="6.81" ry="6.81" transform="translate(72.235 134.558)" fill="#3051a5" stroke="#fff" stroke-width="1"/>
    <g id="telegram" transform="translate(73.075 120.811)">
      <path id="XMLID_497_" d="M.206,24.259l2.682,1L3.925,28.6a.316.316,0,0,0,.5.151l1.495-1.219a.446.446,0,0,1,.544-.015l2.7,1.957a.316.316,0,0,0,.5-.191l1.975-9.5a.316.316,0,0,0-.423-.359L.2,23.668A.316.316,0,0,0,.206,24.259Zm3.552.468L9,21.5a.091.091,0,0,1,.11.145L4.784,25.665a.9.9,0,0,0-.278.537l-.147,1.092a.135.135,0,0,1-.265.019l-.567-1.991A.528.528,0,0,1,3.758,24.728Z" transform="translate(0 -19.401)" fill="#fff"/>
    </g>
    <g id="vk" transform="translate(31.294 86.785)">
      <path id="XMLID_807_" d="M11.237,70.756a17.774,17.774,0,0,1,1.279,1.286,3.737,3.737,0,0,1,.458.66c.176.341.017.717-.289.737h-1.9a1.468,1.468,0,0,1-1.211-.492c-.263-.268-.507-.554-.76-.831a1.8,1.8,0,0,0-.342-.3.4.4,0,0,0-.633.154,2,2,0,0,0-.2.887c-.02.448-.156.566-.606.586a4.864,4.864,0,0,1-2.722-.585,6.013,6.013,0,0,1-1.831-1.715,23.085,23.085,0,0,1-2.41-4.3c-.152-.339-.041-.52.333-.527.621-.012,1.241-.011,1.862,0a.547.547,0,0,1,.517.387A11.544,11.544,0,0,0,4.04,69.041a2,2,0,0,0,.477.524.29.29,0,0,0,.492-.145,1.623,1.623,0,0,0,.11-.491,7.3,7.3,0,0,0-.031-1.719.717.717,0,0,0-.61-.656c-.182-.034-.155-.1-.067-.206a.684.684,0,0,1,.583-.29h2.15c.338.067.414.219.46.559l0,2.388c0,.132.066.523.3.61.19.062.315-.09.429-.21a7.4,7.4,0,0,0,1.21-1.86c.146-.294.271-.6.392-.9a.46.46,0,0,1,.486-.333l2.069,0a1.09,1.09,0,0,1,.183.011c.349.059.444.209.336.55a5.166,5.166,0,0,1-.823,1.426c-.345.477-.714.938-1.056,1.419-.314.439-.289.66.1,1.04Zm0,0" transform="translate(0 -66.058)" fill="#fff" fill-rule="evenodd"/>
    </g>
    <path id="Path_203" data-name="Path 203" d="M126.887,188.4l4.082-5.809a.569.569,0,0,1,.836-.173l2.734,2.051a.569.569,0,0,0,.635.033l3.33-2.354a.57.57,0,0,1,.8.743l-3.3,5.7a.569.569,0,0,1-.8.234l-3.65-2.19a.57.57,0,0,0-.548-.021l-3.373,2.576A.569.569,0,0,1,126.887,188.4Zm0,0" transform="translate(-57.067 -132.24)" fill="#fff"/>
    <path id="Path_1484" data-name="Path 1484" d="M1.4-.586,3.467,0V11.671H0L-.046-.852Z" transform="translate(161.726 0.926) rotate(-10.466)" fill="#222"/>
    <ellipse id="Ellipse_102" data-name="Ellipse 102" cx="4.334" cy="4.334" rx="4.334" ry="4.334" transform="translate(161.585 9.875)" fill="#222"/>
    <ellipse id="Ellipse_103" data-name="Ellipse 103" cx="2.6" cy="2.6" rx="2.6" ry="2.6" transform="translate(163.319 11.609)" fill="#f88686"/>
    <ellipse id="Ellipse_104" data-name="Ellipse 104" cx="0.867" cy="0.867" rx="0.867" ry="0.867" transform="translate(165.052 13.342)" fill="#ce5252"/>
    <g id="Group_282" data-name="Group 282" transform="translate(224.891 157.557)">
      <ellipse id="Ellipse_106" data-name="Ellipse 106" cx="6.333" cy="6.333" rx="6.333" ry="6.333" transform="translate(12.819 7.007)" fill="#f87e7e"/>
      <path id="Path_1485" data-name="Path 1485" d="M601.661,682.383l-.578-.011a134.022,134.022,0,0,1,2.051-19.152c2.5-13.545,6.653-22.441,12.349-26.44l.332.473C602.51,646.595,601.668,682.026,601.661,682.383Z" transform="translate(-601.083 -620.39)" fill="#3f862a"/>
      <path id="Path_1486" data-name="Path 1486" d="M626.661,745.16l-.578-.011c.012-.64.374-15.722,6.311-19.89l.332.473C627.028,729.732,626.664,745.006,626.661,745.16Z" transform="translate(-618.861 -683.305)" fill="#3f862a"/>
      <ellipse id="Ellipse_107" data-name="Ellipse 107" cx="2.889" cy="2.889" rx="2.889" ry="2.889" transform="translate(15.129 11.137)" fill="#d34545"/>
      <ellipse id="Ellipse_108" data-name="Ellipse 108" cx="2.889" cy="2.889" rx="2.889" ry="2.889" transform="translate(13.7 35.984)" fill="#f87e7e"/>
      <path id="Path_1487" data-name="Path 1487" d="M613.983,629.852a12.834,12.834,0,0,1-.872,6.57,11.7,11.7,0,0,1-1.966-12.56A12.834,12.834,0,0,1,613.983,629.852Z" transform="translate(-607.53 -611.205)" fill="#3f862a"/>
      <path id="Path_1488" data-name="Path 1488" d="M639.812,663.544a12.833,12.833,0,0,1-6.622.286,11.7,11.7,0,0,1,12.024-4.125A12.833,12.833,0,0,1,639.812,663.544Z" transform="translate(-623.915 -636.473)" fill="#3f862a"/>
      <path id="Path_1489" data-name="Path 1489" d="M645.055,742.687a8.995,8.995,0,0,1-4.641.2A8.2,8.2,0,0,1,648.842,740,9,9,0,0,1,645.055,742.687Z" transform="translate(-629.05 -693.611)" fill="#3f862a"/>
    </g>
    <ellipse id="Ellipse_138" data-name="Ellipse 138" cx="139.887" cy="10.929" rx="139.887" ry="10.929" transform="translate(25.712 213.258)" fill="#3f3d56"/>
  </g>
</svg>
