<svg xmlns="http://www.w3.org/2000/svg" viewBox="0 0 14.01 14.36">
  <path id="gear" d="M19.661,7.18a6.413,6.413,0,0,0-.21-1.631l.811-.6L18.688,2.228l-.923.4A6.358,6.358,0,0,0,14.941,1L14.83,0H11.683l-.111,1A6.357,6.357,0,0,0,8.748,2.632l-.923-.4L6.252,4.952l.811.6a6.444,6.444,0,0,0,0,3.262l-.811.6,1.573,2.725.923-.4a6.357,6.357,0,0,0,2.824,1.632l.111,1H14.83l.111-1a6.357,6.357,0,0,0,2.824-1.632l.923.4,1.573-2.725-.811-.6a6.415,6.415,0,0,0,.21-1.631Zm-4.734-.963.6-.589L17.067,7.2,15.5,8.738l-.589-.6.97-.95ZM13.07,10.109l-.823-.173,1.2-5.684.823.173ZM11.606,8.137l-.589.6L9.447,7.2l1.539-1.571.6.589-.95.97Z" transform="translate(-6.252 0)"/>
</svg>
