<svg xmlns="http://www.w3.org/2000/svg" width="13.883" height="11.531" viewBox="0 0 13.883 11.531">
  <g id="left-arrow" transform="translate(0 -41.674)">
    <g id="Group_314" data-name="Group 314" transform="translate(0 41.674)">
      <path id="Path_1550" data-name="Path 1550" d="M13.1,46.351l.022,0H3.834l2.92-2.927a.767.767,0,0,0,0-1.078L6.3,41.9a.76.76,0,0,0-1.073,0L.221,46.9a.765.765,0,0,0,0,1.077l5.006,5.006a.761.761,0,0,0,1.073,0l.454-.455a.752.752,0,0,0,.221-.536.729.729,0,0,0-.221-.526L3.8,48.523h9.311a.787.787,0,0,0,.77-.779V47.1A.772.772,0,0,0,13.1,46.351Z" transform="translate(0 -41.674)" fill="#4c638f"/>
    </g>
  </g>
</svg>
