<svg xmlns="http://www.w3.org/2000/svg" width="14.805" height="11.76" viewBox="0 0 14.805 11.76">
  <g id="speaker-filled-audio-tool" transform="translate(-3 -12.564)">
    <path id="Path_437" data-name="Path 437" d="M7.406,20.059a.672.672,0,0,1-1.1.517L2.63,17.531H.672A.672.672,0,0,1,0,16.859V14.181a.672.672,0,0,1,.672-.672H2.63l3.675-3.045a.673.673,0,0,1,1.1.518v9.079Zm2.584-1.05-.048,0a.672.672,0,0,1-.475-.2l-.09-.09a.672.672,0,0,1-.065-.876,3.909,3.909,0,0,0-.1-4.79.672.672,0,0,1,.046-.9l.09-.09a.658.658,0,0,1,.509-.2.673.673,0,0,1,.487.246,5.384,5.384,0,0,1,.14,6.622A.673.673,0,0,1,9.99,19.009Zm2.779,2.078a.673.673,0,0,1-.486.238h-.028a.672.672,0,0,1-.475-.2l-.088-.088a.672.672,0,0,1-.039-.908,7.164,7.164,0,0,0-.119-9.361.672.672,0,0,1,.027-.92l.088-.088a.654.654,0,0,1,.5-.2.672.672,0,0,1,.483.225,8.632,8.632,0,0,1,.141,11.3Z" transform="translate(3 3)" fill="#00215f"/>
  </g>
</svg>
