<svg xmlns="http://www.w3.org/2000/svg" width="18.018" height="22.769" viewBox="0 0 18.018 22.769">
  <path id="bell" d="M71.079,18.12A3.537,3.537,0,0,1,70,16.656a16.939,16.939,0,0,1-1.121-6.693c0-.009,0-.017,0-.026a6.46,6.46,0,0,0-3.8-5.859V2.536A2.537,2.537,0,0,0,62.547,0h-.21a2.537,2.537,0,0,0-2.532,2.536V4.078A6.46,6.46,0,0,0,56,9.963a16.939,16.939,0,0,1-1.121,6.693,3.538,3.538,0,0,1-1.075,1.464.648.648,0,0,0-.356.738.679.679,0,0,0,.669.521h4.889a3.434,3.434,0,0,0,6.868,0h4.889a.679.679,0,0,0,.669-.521A.649.649,0,0,0,71.079,18.12ZM61.139,2.536a1.2,1.2,0,0,1,1.2-1.2h.21a1.2,1.2,0,0,1,1.2,1.2V3.645a6.461,6.461,0,0,0-2.606,0V2.536Zm1.3,18.9a2.1,2.1,0,0,1-2.1-2.054h4.2A2.1,2.1,0,0,1,62.443,21.433Zm2.686-3.39H55.639a6.993,6.993,0,0,0,.35-.614,16.889,16.889,0,0,0,1.347-7.466,5.106,5.106,0,1,1,10.212,0c0,.008,0,.016,0,.025A16.855,16.855,0,0,0,68.9,17.429a7,7,0,0,0,.35.614Z" transform="translate(-53.434)" fill="#00215f"/>
</svg>
