<svg id="rounded-block-sign" xmlns="http://www.w3.org/2000/svg" width="15.876" height="15.875" viewBox="0 0 15.876 15.875">
  <g id="block">
    <path id="Path_697" data-name="Path 697" d="M7.938,0a7.938,7.938,0,1,0,7.938,7.938A7.961,7.961,0,0,0,7.938,0ZM1.588,7.938a6.369,6.369,0,0,1,6.35-6.35,6.256,6.256,0,0,1,3.89,1.349l-8.89,8.89A6.256,6.256,0,0,1,1.588,7.938Zm6.35,6.35a6.256,6.256,0,0,1-3.89-1.349l8.89-8.89a6.256,6.256,0,0,1,1.349,3.89A6.369,6.369,0,0,1,7.938,14.288Z" fill="#00215f"/>
  </g>
</svg>
