<svg xmlns="http://www.w3.org/2000/svg" width="20.906" height="20.907" viewBox="0 0 20.906 20.907">
  <g id="calendar" transform="translate(65.997 -1)">
    <path id="Path_435" data-name="Path 435" d="M2.614,3.267V.653a.653.653,0,1,1,1.307,0V3.267a.653.653,0,0,1-1.307,0Zm11.107.653a.653.653,0,0,0,.653-.653V.653a.653.653,0,0,0-1.307,0V3.267A.653.653,0,0,0,13.721,3.92ZM5.228,7.84H2.614v2.613H5.228ZM2.614,14.374H5.228V11.76H2.614Zm3.92-3.92H9.148V7.84H6.534Zm0,3.92H9.148V11.76H6.534ZM1.308,15.55V6.533H15.681V9.147h1.307V4.05a1.426,1.426,0,0,0-1.415-1.437h-.545v.653a1.307,1.307,0,1,1-2.613,0V2.613H4.574v.653a1.307,1.307,0,1,1-2.613,0V2.613H1.417A1.426,1.426,0,0,0,0,4.05v11.5a1.428,1.428,0,0,0,1.416,1.437H9.148V15.68H1.417A.124.124,0,0,1,1.308,15.55Zm11.76-5.1V7.84H10.455v2.613Z" transform="translate(-66 1)" fill="#e3ecf5"/>
    <path id="Path_436" data-name="Path 436" d="M20.908,15.68a5.227,5.227,0,1,1-5.227-5.227A5.227,5.227,0,0,1,20.908,15.68Zm-1.307,0a3.92,3.92,0,1,0-3.92,3.92A3.925,3.925,0,0,0,19.6,15.68Zm-1.96,0h-1.96V13.72a.653.653,0,0,0-1.307,0v2.614a.653.653,0,0,0,.653.653h2.613a.653.653,0,0,0,0-1.307Z" transform="translate(-66 1)" fill="#e3ecf5"/>
  </g>
</svg>
