<svg xmlns="http://www.w3.org/2000/svg" width="27.409" height="34.687" viewBox="0 0 27.409 34.687">
  <g id="cellphone-sms" transform="translate(-36.857)">
    <path id="Path_1556" data-name="Path 1556" d="M139.191,307.244h-2.116a.3.3,0,0,0-.3.3v1.423a.3.3,0,0,0,.3.3h2.116a.3.3,0,0,0,.3-.3V307.54A.3.3,0,0,0,139.191,307.244Z" transform="translate(-90.058 -276.914)" fill="#dfe3eb"/>
    <path id="Path_1557" data-name="Path 1557" d="M63.378,8.553H59.293V1.974A1.977,1.977,0,0,0,57.319,0H38.831a1.977,1.977,0,0,0-1.974,1.974V32.712a1.977,1.977,0,0,0,1.974,1.974H57.319a1.977,1.977,0,0,0,1.974-1.974V20.473h4.085a.89.89,0,0,0,.888-.888V9.441A.889.889,0,0,0,63.378,8.553ZM46.51,1.577h3.131a.494.494,0,0,1,0,.987H46.51a.494.494,0,0,1,0-.987Zm3.907,30.472a1.285,1.285,0,0,1-1.283,1.283H47.017a1.285,1.285,0,0,1-1.283-1.283V30.626a1.285,1.285,0,0,1,1.283-1.283h2.116a1.285,1.285,0,0,1,1.283,1.283Zm6.568-4.325a.5.5,0,0,1-.494.494H39.659a.5.5,0,0,1-.494-.494V4.4a.5.5,0,0,1,.494-.494H56.491a.5.5,0,0,1,.494.494V8.552H50.2a.89.89,0,0,0-.888.888V19.585a.89.89,0,0,0,.888.888h.98v2.214a.654.654,0,0,0,.638.711.747.747,0,0,0,.473-.181l3.224-2.606a.835.835,0,0,1,.392-.139h1.082ZM53.1,15.08a1.349,1.349,0,0,1-1.406-1.337A1.334,1.334,0,0,1,53.13,12.4a1.9,1.9,0,0,1,.987.327.458.458,0,0,1,.113.625,1.386,1.386,0,0,1-.2.291.158.158,0,0,1-.2-.03.977.977,0,0,0-.694-.264c-.206,0-.551.047-.551.363,0,.154.059.364.568.405.676.055,1.452.262,1.452,1.379a1.362,1.362,0,0,1-1.463,1.413,1.77,1.77,0,0,1-1.508-.695.176.176,0,0,1-.03-.165c.038-.089.185-.339.185-.339a.385.385,0,0,1,.339-.208.4.4,0,0,1,.24.082,1.776,1.776,0,0,0,.789.335h.017a.488.488,0,0,0,.526-.447C53.707,15.256,53.606,15.117,53.1,15.08Zm6.272,1.579a.247.247,0,0,1-.247.247h-.362a.247.247,0,0,1-.247-.247V14.046a.184.184,0,0,0,0-.036.2.2,0,0,0-.024.028l-1.076,1.481c-.045.062-.152.18-.231.18s-.184-.119-.229-.182L55.9,14.032a.2.2,0,0,0-.022-.026.187.187,0,0,0,0,.034v2.62a.247.247,0,0,1-.247.247h-.362a.247.247,0,0,1-.247-.247V12.908a.247.247,0,0,1,.247-.247h.477a.476.476,0,0,1,.352.182l1.029,1.46a.083.083,0,0,0,.147,0l1.029-1.46a.475.475,0,0,1,.352-.182h.471a.247.247,0,0,1,.247.247V16.66Zm1.877.247a1.771,1.771,0,0,1-1.511-.7c-.016-.02-.062-.071-.013-.189.034-.082.171-.313.171-.313a.385.385,0,0,1,.339-.208.4.4,0,0,1,.24.082,1.776,1.776,0,0,0,.789.335h.017a.488.488,0,0,0,.526-.447c0-.213-.1-.352-.608-.388a1.349,1.349,0,0,1-1.406-1.337A1.334,1.334,0,0,1,61.229,12.4a1.9,1.9,0,0,1,.987.327.458.458,0,0,1,.113.625s-.147.215-.194.288-.152.021-.17,0a.928.928,0,0,0-.723-.294c-.206,0-.551.047-.551.363,0,.154.059.364.568.405.676.055,1.452.262,1.452,1.379A1.362,1.362,0,0,1,61.249,16.906Z" fill="#dfe3eb"/>
  </g>
</svg>
