<svg xmlns="http://www.w3.org/2000/svg" width="34.996" height="27.62" viewBox="0 0 34.996 27.62">
  <g id="chat-bubbles-with-ellipsis" transform="translate(0 -3.241)">
    <path id="Path_1558" data-name="Path 1558" d="M31.33,9.67h-.958V20.205a2.852,2.852,0,0,1-2.87,3.124H8.743v.5a3.379,3.379,0,0,0,3.343,2.914H26.428l5.487,3.226-.8-3.226h.211c1.693,0,2.457-1.46,2.457-2.914V12.171A2.258,2.258,0,0,0,31.33,9.67Z" transform="translate(1.21 0.89)" fill="#dfe3eb"/>
    <path id="Path_1559" data-name="Path 1559" d="M25.911,3.24H4.123C2.206,3.24,0,4.943,0,6.584v13.2c0,1.512,1.869,2.6,3.662,2.772L2.5,26.99l7.477-4.4H25.911c1.917,0,3.686-1.162,3.686-2.8V6.584A3.763,3.763,0,0,0,25.911,3.24ZM7.447,14.387a1.968,1.968,0,1,1,1.968-1.968A1.968,1.968,0,0,1,7.447,14.387Zm7.351,0a1.968,1.968,0,1,1,1.968-1.968A1.968,1.968,0,0,1,14.8,14.387Zm7.353,0a1.968,1.968,0,1,1,1.968-1.968A1.969,1.969,0,0,1,22.151,14.387Z" transform="translate(0 0)" fill="#dfe3eb"/>
  </g>
</svg>
