<?xml version="1.0" encoding="utf-8"?>
<!-- Generator: Adobe Illustrator 23.0.1, SVG Export Plug-In . SVG Version: 6.00 Build 0)  -->
<svg version="1.1" id="Layer_1" xmlns="http://www.w3.org/2000/svg" xmlns:xlink="http://www.w3.org/1999/xlink" x="0px" y="0px"
	 viewBox="0 0 14.2 15.4" style="enable-background:new 0 0 14.2 15.4;" xml:space="preserve">
<style type="text/css">
	.st0{fill:#0C0C0C;}
</style>
<path id="chat-2" transform="translate(-19.692)" class="st0" d="M26.8,0c-3.9,0-7.1,3.2-7.1,7.1c0,1.9,0.8,3.8,2.3,5.1v3
	c0,0.1,0.1,0.2,0.2,0.3c0,0,0.1,0,0.2,0c0.1,0,0.1,0,0.2,0l2.6-1.5c3.8,1,7.7-1.3,8.6-5.1c0.1-0.6,0.2-1.1,0.2-1.7
	C33.8,3.2,30.7,0,26.8,0z M31.3,7.7l-1.1,0.2C30.1,8.2,30,8.6,29.7,9l0.6,0.9l-0.8,0.8l-0.9-0.6c-0.3,0.2-0.7,0.4-1.1,0.5l-0.2,1.1
	h-1.2L26,10.5c-0.4-0.1-0.8-0.2-1.1-0.5L24,10.7l-0.8-0.8L23.8,9c-0.2-0.3-0.4-0.7-0.5-1.1l-1.1-0.2V6.5l1.1-0.2
	c0.1-0.4,0.2-0.8,0.5-1.1l-0.6-0.9L24,3.5l0.9,0.6c0.3-0.2,0.7-0.4,1.1-0.5l0.2-1.1h1.2l0.2,1.1c0.4,0.1,0.8,0.2,1.1,0.5l0.9-0.6
	l0.8,0.8l-0.6,0.9c0.2,0.3,0.4,0.7,0.5,1.1l1.1,0.2L31.3,7.7L31.3,7.7z M26.8,5.7c0.8,0,1.4,0.6,1.4,1.4s-0.6,1.4-1.4,1.4
	s-1.4-0.6-1.4-1.4S26,5.7,26.8,5.7z"/>
</svg>
