<svg id="chat" xmlns="http://www.w3.org/2000/svg" width="36.383" height="36.673" viewBox="0 0 36.383 36.673">
  <path id="Path_202" data-name="Path 202" d="M7.331,36.673A2.938,2.938,0,0,1,4.4,33.738v-4.3A18.088,18.088,0,0,1,.665,15.724a18.2,18.2,0,0,1,36.1,4.549A18.169,18.169,0,0,1,11.554,34.907l-2.91,1.454A2.938,2.938,0,0,1,7.331,36.673ZM16.608,2.734A15.7,15.7,0,0,0,3.24,16.064,15.516,15.516,0,0,0,6.7,28.149a1.3,1.3,0,0,1,.3.831v4.758a.333.333,0,0,0,.484.3l3.461-1.729a1.3,1.3,0,0,1,1.133-.014A15.586,15.586,0,1,0,16.608,2.734Zm-.166-1.289h0Zm0,0" transform="translate(-0.5 0)" fill="#fff"/>
  <g id="speech-bubbles-comment-option" transform="translate(8.182 -43.95)">
    <g id="Group_241" data-name="Group 241" transform="translate(0 54.804)">
      <path id="Path_505" data-name="Path 505" d="M11.313,65.025a6.793,6.793,0,0,0,2.744-2,4.261,4.261,0,0,0,0-5.5,6.794,6.794,0,0,0-2.744-2A9.635,9.635,0,0,0,7.531,54.8a9.639,9.639,0,0,0-3.782.733,6.794,6.794,0,0,0-2.744,2A4.32,4.32,0,0,0,0,60.281a4.2,4.2,0,0,0,.76,2.4,6.251,6.251,0,0,0,2.086,1.893q-.107.257-.219.471a2.712,2.712,0,0,1-.267.412q-.155.2-.241.31t-.278.316q-.193.2-.246.267c0-.007-.014.009-.043.048s-.045.057-.048.054-.018.014-.043.053l-.037.059-.027.053a.229.229,0,0,0-.021.064.418.418,0,0,0-.005.069.215.215,0,0,0,.011.069.354.354,0,0,0,.123.225.334.334,0,0,0,.219.085h.032a8.967,8.967,0,0,0,.92-.171,9,9,0,0,0,2.974-1.369,10.743,10.743,0,0,0,1.883.171A9.626,9.626,0,0,0,11.313,65.025Z" transform="translate(0 -54.804)" fill="#fff"/>
      <path id="Path_506" data-name="Path 506" d="M187.687,164.343a4.175,4.175,0,0,0-.043-4.862,6.341,6.341,0,0,0-2.182-1.9,5.505,5.505,0,0,1-.471,4.343,7.161,7.161,0,0,1-2.054,2.268,9.472,9.472,0,0,1-2.824,1.38,11.3,11.3,0,0,1-3.305.481q-.321,0-.941-.043a8.989,8.989,0,0,0,5.049,1.412,10.747,10.747,0,0,0,1.883-.171,8.543,8.543,0,0,0,3.894,1.541.323.323,0,0,0,.235-.075.4.4,0,0,0,.139-.235c0-.043,0-.066.011-.07s.009-.027-.005-.069l-.021-.064-.027-.053a.511.511,0,0,0-.037-.059.458.458,0,0,0-.043-.053c-.01-.011-.026-.029-.048-.053l-.043-.048q-.053-.064-.246-.268t-.278-.315q-.086-.112-.241-.31a2.7,2.7,0,0,1-.267-.412q-.112-.214-.219-.471A6.277,6.277,0,0,0,187.687,164.343Z" transform="translate(-169.277 -153.726)" fill="#fff"/>
    </g>
  </g>
</svg>
