<svg xmlns="http://www.w3.org/2000/svg" width="18.988" height="20.254" viewBox="0 0 18.988 20.254">
  <g id="download" transform="translate(-16)">
    <g id="Group_276" data-name="Group 276" transform="translate(20.431)">
      <g id="Group_275" data-name="Group 275">
        <path id="Path_1481" data-name="Path 1481" d="M138.068,9.232a.631.631,0,0,0-.576-.371h-2.532V.633A.633.633,0,0,0,134.328,0H131.8a.633.633,0,0,0-.633.633V8.861h-2.532a.633.633,0,0,0-.476,1.049l4.431,5.064a.632.632,0,0,0,.952,0l4.431-5.064A.631.631,0,0,0,138.068,9.232Z" transform="translate(-127.998)" fill="#4c638f"/>
      </g>
    </g>
    <g id="Group_278" data-name="Group 278" transform="translate(16 13.925)">
      <g id="Group_277" data-name="Group 277">
        <path id="Path_1482" data-name="Path 1482" d="M32.457,352v3.8H18.532V352H16v5.064a1.266,1.266,0,0,0,1.266,1.266H33.723a1.265,1.265,0,0,0,1.266-1.266V352Z" transform="translate(-16 -352)" fill="#4c638f"/>
      </g>
    </g>
  </g>
</svg>
