<svg id="mail" xmlns="http://www.w3.org/2000/svg" width="36.383" height="36.673" viewBox="0 0 36.383 36.673">
  <path id="Path_202" data-name="Path 202" d="M7.331,36.673A2.938,2.938,0,0,1,4.4,33.738v-4.3A18.088,18.088,0,0,1,.665,15.724a18.2,18.2,0,0,1,36.1,4.549A18.169,18.169,0,0,1,11.554,34.907l-2.91,1.454A2.938,2.938,0,0,1,7.331,36.673ZM16.608,2.734A15.7,15.7,0,0,0,3.24,16.064,15.516,15.516,0,0,0,6.7,28.149a1.3,1.3,0,0,1,.3.831v4.758a.333.333,0,0,0,.484.3l3.461-1.729a1.3,1.3,0,0,1,1.133-.014A15.586,15.586,0,1,0,16.608,2.734Zm-.166-1.289h0Zm0,0" transform="translate(-0.5 0)" fill="#fff"/>
  <g id="close-envelope" transform="translate(8.469 9.527)">
    <g id="Group_138" data-name="Group 138" transform="translate(0 2)">
      <path id="Path_208" data-name="Path 208" d="M9.624,9.6,7.212,7.484.316,13.4a1.412,1.412,0,0,0,.962.377H17.97a1.4,1.4,0,0,0,.958-.377L12.036,7.484Z" transform="translate(0.124 0.153)" fill="#fff"/>
      <path id="Path_209" data-name="Path 209" d="M18.931,2.377A1.4,1.4,0,0,0,17.969,2H1.277a1.4,1.4,0,0,0-.959.38l9.305,7.975Z" transform="translate(0.125 -2)" fill="#fff"/>
      <path id="Path_210" data-name="Path 210" d="M0,2.878v11.57L6.73,8.728Z" transform="translate(0 -1.655)" fill="#fff"/>
      <path id="Path_211" data-name="Path 211" d="M9.167,8.729l6.73,5.719V2.875Z" transform="translate(3.599 -1.656)" fill="#fff"/>
    </g>
  </g>
</svg>
