<svg xmlns="http://www.w3.org/2000/svg" width="11.87" height="13.895" viewBox="0 0 11.87 13.895">
  <g id="euro" transform="translate(-35.088 0)">
    <path id="Path_661" data-name="Path 661" d="M46.895,12.387c-.156-.381-.315-.762-.488-1.137a.538.538,0,0,0-.716-.349c-.465.107-.92.248-1.385.343a5.225,5.225,0,0,1-2.683-.075,3.166,3.166,0,0,1-2.066-2.193H42.57A.426.426,0,0,0,43,8.549V7.6a.426.426,0,0,0-.427-.427h-3.3c0-.265,0-.519,0-.773h3.3A.426.426,0,0,0,43,5.973V5.023A.426.426,0,0,0,42.57,4.6H39.684a.043.043,0,0,1,.006-.029,3.069,3.069,0,0,1,1.679-1.749,5.04,5.04,0,0,1,2.94-.167c.47.1.932.239,1.4.346a.529.529,0,0,0,.69-.343c.17-.369.326-.744.482-1.122a.567.567,0,0,0-.274-.8,1.784,1.784,0,0,0-.26-.124A8.134,8.134,0,0,0,42.044.1a6.147,6.147,0,0,0-2.854,1.177,6.254,6.254,0,0,0-2.144,3.174L37,4.6H35.515a.426.426,0,0,0-.427.427v.949a.426.426,0,0,0,.427.427h1.169v.773H35.515a.426.426,0,0,0-.427.427v.949a.426.426,0,0,0,.427.427h1.408c.107.346.2.7.332,1.03a5.843,5.843,0,0,0,3.7,3.526,7.651,7.651,0,0,0,4.481.055,7.448,7.448,0,0,0,1.145-.415A.547.547,0,0,0,46.895,12.387Z" transform="translate(0)" fill="#00215f"/>
  </g>
</svg>
