<svg id="facebook" xmlns="http://www.w3.org/2000/svg" width="31.332" height="31.582" viewBox="0 0 31.332 31.582">
  <path id="Path_202" data-name="Path 202" d="M6.382,31.582a2.53,2.53,0,0,1-2.524-2.528v-3.7A15.577,15.577,0,0,1,.642,13.541a15.669,15.669,0,0,1,31.091,3.917,15.646,15.646,0,0,1-21.713,12.6L7.513,31.314A2.53,2.53,0,0,1,6.382,31.582Zm7.99-29.228A13.519,13.519,0,0,0,2.86,13.834,13.362,13.362,0,0,0,5.838,24.241a1.12,1.12,0,0,1,.258.716v4.1a.287.287,0,0,0,.417.257l2.981-1.489a1.117,1.117,0,0,1,.976-.012,13.422,13.422,0,1,0,3.9-25.456Zm-.143-1.11h0Zm0,0" transform="translate(-0.5 0)" fill="#4c638f"/>
  <g id="facebook-2" data-name="facebook" transform="translate(-116.32 7.505)">
    <g id="Group_251" data-name="Group 251" transform="translate(128)">
      <path id="Path_545" data-name="Path 545" d="M133.206,5.726V3.644A1.042,1.042,0,0,1,134.247,2.6h1.041V0h-2.082a3.123,3.123,0,0,0-3.123,3.123v2.6H128v2.6h2.082v8.329h3.123V8.329h2.082l1.041-2.6Z" transform="translate(-128)" fill="#4c638f"/>
    </g>
  </g>
</svg>
