<svg xmlns="http://www.w3.org/2000/svg" width="16.049" height="16.235" viewBox="0 0 16.049 16.235">
  <g id="earth-with-continents" transform="translate(-0.266)">
    <g id="Group_258" data-name="Group 258" transform="translate(0.266)">
      <path id="Path_681" data-name="Path 681" d="M2.113,12.716v.253c.089-.207.186-.408.291-.606Z" transform="translate(-1.465 -8.029)" fill="#00215f"/>
      <path id="Path_682" data-name="Path 682" d="M16.324,11.71l-.073.077.1.082.1-.082Z" transform="translate(-10.646 -7.604)" fill="#00215f"/>
      <path id="Path_683" data-name="Path 683" d="M3.279,10.923l-.008-.092,0-.056q-.173.272-.324.557l.109-.132Z" transform="translate(-2.004 -6.998)" fill="#00215f"/>
      <path id="Path_684" data-name="Path 684" d="M10.3,5.516V5.389h-.29l-.015.061H9.814v.177h.4Z" transform="translate(-6.466 -3.5)" fill="#00215f"/>
      <path id="Path_685" data-name="Path 685" d="M45.9,17.831l-.026.03.058.108C45.923,17.923,45.912,17.877,45.9,17.831Z" transform="translate(-29.884 -11.579)" fill="#00215f"/>
      <path id="Path_686" data-name="Path 686" d="M15.024,12.051l.152-.028.121-.078v-.162h-.273C15.024,11.808,15.024,12.051,15.024,12.051Z" transform="translate(-9.85 -7.652)" fill="#00215f"/>
      <path id="Path_687" data-name="Path 687" d="M44.136,13.041c-.06-.135-.123-.268-.19-.4l-.051.058v.358l.157-.021Z" transform="translate(-28.597 -8.21)" fill="#00215f"/>
      <path id="Path_688" data-name="Path 688" d="M10.29,6.822s.015-.177,0-.177-.192.03-.192.03l-.284.081.076.091Z" transform="translate(-6.466 -4.315)" fill="#00215f"/>
      <path id="Path_689" data-name="Path 689" d="M39.844,7.972,40,7.734c-.127-.157-.262-.309-.4-.456v.4l-.349.177.035.116Z" transform="translate(-25.583 -4.726)" fill="#00215f"/>
      <path id="Path_690" data-name="Path 690" d="M12.356,9.142,12.163,9.1l-.212.1.131.269L12.29,9.4Z" transform="translate(-7.854 -5.907)" fill="#00215f"/>
      <path id="Path_691" data-name="Path 691" d="M15.414,11.046v.192l.167-.04Z" transform="translate(-10.103 -7.173)" fill="#00215f"/>
      <path id="Path_692" data-name="Path 692" d="M13.541,10.844l-.232.1-.046.117.182.05h.485V10.94h-.07v-.1Z" transform="translate(-8.706 -7.042)" fill="#00215f"/>
      <path id="Path_693" data-name="Path 693" d="M13.175,12.187l.143.076.344-.48h-.268l-.187.2Z" transform="translate(-8.649 -7.652)" fill="#00215f"/>
      <path id="Path_694" data-name="Path 694" d="M15.991,12.288v.146l.071.1h.258v-.157l-.309-.091Z" transform="translate(-10.478 -7.98)" fill="#00215f"/>
      <path id="Path_695" data-name="Path 695" d="M14.724,12.791l-.122.01-.04.177h.258l.117-.116V12.7l-.188.026Z" transform="translate(-9.55 -8.25)" fill="#00215f"/>
      <path id="Path_696" data-name="Path 696" d="M15.529,5.193l-.212-.233-.04-.374L15.06,4.7l-.117.458-.314-.334-.013-.316-.3-.261L14.2,4.142H13.85l.111.313.422.236.073.078-.091.046,0,.248-.206.086-.175-.039-.11-.156.285.016.077-.1-.634-.427-.048-.183-.258.233-.261-.054-.4.517-.079.2-.255.023-.376,0-.225-.1-.066-.447.08-.212.383-.084.417.084.051-.231L12.4,4.143l.061-.359.419-.066.294-.415.3-.051.274.041h.1l-.055-.39-.332.134-.117-.291-.193-.028-.036-.2.157-.171.374-.147.1-.172A8.1,8.1,0,0,0,9.923.149l-.1-.018C9.676.1,9.525.086,9.372.067A7.956,7.956,0,0,0,3.614,1.555h.069l.34,0,.183.1.344.074.027.135.547.02-.074-.175-.486-.014.114-.108-.04-.128H4.2L4.677,1.1h.459l.216.3.358.02.216-.209.162.081-.3.29L5.4,1.585a1.326,1.326,0,0,1,.034.283l.5-.014.054-.135L6.33,1.7l.04-.2-.2-.034.067-.182.155-.047.54.027-.3.27.048.209.31.047L6.97,1.41l.3-.155.526-.061.763.338v.29l.242.06-.122.229H8.334l-.1.263-.787-.185.618-.329-.236-.2-.533.067-.047.048h0l-.007.01-.154.159-.253.022.02.127.089.036,0,.042L6.73,2.2l-.015.12-.2.01-.036-.238L6.128,2.2,5.4,2.624l.081.3.2.132.4.056v.46l.187-.031.173-.359.431-.136V2.492l.239-.181.579.137-.041.364h.155L8.239,2.6l.021.479.31.189-.013.284-.3.1.02.094.357.163-.007.2-.1.009a.023.023,0,0,0,0-.006l-.452-.139-.019-.145h0l.132-.09V3.6l-.142-.035-.035.122-.249.038-.025-.008v.013l-.086.013L7.58,3.6,7.5,3.569H7.321l-.08.066v.147l.151.051.15.021-.034.015-.137.151-.06-.076L7.18,3.909l-.359.338.047.039-.531.293-.5.52L5.8,5.33l-.5.329-.248.25.027.5-.344-.161,0-.292H3.784l-.5.251-.215.4-.086.315.14.305.39.048.621-.415.054.206L4,7.42l.473.08.047.73.06.01h.006l.583.1.411-.475.5.1.175.244.479-.028.013-.141.264.128.3.465.513.007.189.331.027.4.567.216L9.32,9.6l.209.343.317.1-.06.284-.348.441-.1.977-.314.248-.465-.014-.156.27.115.506-.506.648-.162.3-.482.231-.317.049-.014.135.223.064-.028.144-.2.192.121.153.24.007-.014.185-.064.183-.02.148.355.3-.048.155-.483-.008-.481-.42-.374-.658.052-.635-.284-.378.115-.641-.168-.048V11.468s-.473-.358-.5-.358-.25-.06-.25-.06l-.047-.263-.614-.769.061-.277.021-.452.425-.3-.06-.506-.621-.047-.486-.554-.344-.094-.223-.041.027-.2-.284-.041v.115l-.708-.175-.285-.436.1-.179H2.073l-.034-.114.083-.042-.363-.53-.077-.479H1.5l.061.465.31.479L1.837,6.8l-.263-.04L1.25,6.207V5.565L.913,5.4V4.941a8.033,8.033,0,0,0-.448,1.4l.019,0L.6,6.309l.066.317L.8,6.851l.093.106.168.066L.9,7.21.6,7.24H.365l.026-.273.192-.04L.566,6.8.408,6.7.395,6.689A8.13,8.13,0,0,0,.266,8.117c0,.014,0,.029,0,.043A8.113,8.113,0,0,0,14.68,13.234h-.268v-.54l-.31-.417v-.65l-.237-.235-.02-.27.3-.574-.569-1,.067-.682L13.13,8.81l-.189-.189H12.6l-.175.162h-.606l-.021.054h-.338l-.775-.884.006-.688.128-.047.048-.263h-.182l-.075-.277.9-.648V5.571l.44-.244.177.018h.361l.283-.152.911-.071v.466l.719.183.141.1h.132V5.618l.415-.04.394.293h.648l.045-.041q-.1-.328-.219-.644Z" transform="translate(-0.266)" fill="#00215f"/>
    </g>
  </g>
</svg>
