<?xml version="1.0" encoding="utf-8"?>
<!-- Generator: Adobe Illustrator 23.0.1, SVG Export Plug-In . SVG Version: 6.00 Build 0)  -->
<svg version="1.1" id="Layer_1" xmlns="http://www.w3.org/2000/svg" xmlns:xlink="http://www.w3.org/1999/xlink" x="0px" y="0px"
	 viewBox="0 0 11 13.9" style="enable-background:new 0 0 11 13.9;" xml:space="preserve">
<style type="text/css">
	.st0{fill:#262C35;}
</style>
<path class="st0" d="M10.8,3.1L7.9,0.2C7.8,0.1,7.7,0,7.5,0h-7C0.3,0,0,0.3,0,0.6v12.7c0,0.3,0.3,0.6,0.6,0.6h9.8
	c0.3,0,0.6-0.3,0.6-0.6C11,3.3,10.9,3.2,10.8,3.1z M2,5.1C2,5,2.1,4.9,2.2,4.9h0.5V4.6H2.2C2.1,4.6,2,4.5,2,4.4V4.1
	C2,4,2.1,3.9,2.2,3.9h0.6l0-0.1c0.1-0.5,0.4-0.9,0.8-1.2c0.3-0.2,0.7-0.4,1.1-0.5c0.6-0.1,1.1,0,1.7,0.2c0,0,0.1,0,0.1,0
	c0,0,0,0,0,0c0.1,0.1,0.1,0.2,0.1,0.3C6.5,2.9,6.5,3,6.4,3.2c0,0,0,0,0,0c0,0.1-0.2,0.2-0.3,0.1c-0.2,0-0.4-0.1-0.5-0.1
	C5.2,3.1,4.8,3.1,4.4,3.2C4.1,3.4,3.9,3.6,3.8,3.9v0h1.1C5,3.9,5.1,4,5.1,4.1v0.4c0,0,0,0,0,0c0,0.1-0.1,0.2-0.2,0.2H3.6v0.3h1.3
	C5,4.9,5.1,5,5.1,5.1v0.4c0,0.1-0.1,0.2-0.2,0.2H3.7C3.8,6,4.1,6.3,4.5,6.4c0.3,0.1,0.7,0.1,1,0c0.2,0,0.3-0.1,0.5-0.1c0,0,0,0,0,0
	c0.1,0,0.2,0,0.3,0.1c0.1,0.1,0.1,0.3,0.2,0.4c0,0,0,0,0,0c0,0.1,0,0.2-0.1,0.3C6.3,7.3,6.2,7.4,6,7.4c-0.6,0.2-1.2,0.2-1.7,0
	C3.6,7.2,3.1,6.7,2.8,6C2.8,5.9,2.8,5.7,2.7,5.6H2.2C2.1,5.6,2,5.5,2,5.4V5.1z M3.5,12.2H1.7V11h1.7V12.2z M9.3,12.2H4.6V11h4.6
	V12.2z M9.3,10.4H1.7V9.3h7.5V10.4z M7.5,3.5V0.6l2.9,2.9H7.5z"/>
</svg>
