<svg xmlns="http://www.w3.org/2000/svg" width="15.723" height="13.477" viewBox="0 0 15.723 13.477">
  <g id="external-link-symbol" transform="translate(276.502 -64.4)">
    <g id="Group_303" data-name="Group 303" transform="translate(-276.502 64.4)">
      <path id="Path_1548" data-name="Path 1548" d="M12.073,79.828h-.562a.271.271,0,0,0-.281.281v2.808a1.407,1.407,0,0,1-1.4,1.4h-7.3a1.352,1.352,0,0,1-.991-.412,1.352,1.352,0,0,1-.412-.991v-7.3a1.352,1.352,0,0,1,.412-.991,1.352,1.352,0,0,1,.991-.412H8.7a.27.27,0,0,0,.281-.281v-.562A.27.27,0,0,0,8.7,73.09H2.527a2.434,2.434,0,0,0-1.786.741A2.434,2.434,0,0,0,0,75.617v7.3A2.433,2.433,0,0,0,.741,84.7a2.434,2.434,0,0,0,1.786.742h7.3a2.532,2.532,0,0,0,2.527-2.527V80.109a.271.271,0,0,0-.281-.281Z" transform="translate(0 -71.967)" fill="#4c638f"/>
      <path id="Path_1549" data-name="Path 1549" d="M205.114,36.714a.54.54,0,0,0-.395-.167h-4.492a.558.558,0,0,0-.395.956l1.544,1.544-5.72,5.721a.276.276,0,0,0,0,.4l1,1a.276.276,0,0,0,.4,0l5.72-5.72L204.324,42a.562.562,0,0,0,.956-.395V37.108A.54.54,0,0,0,205.114,36.714Z" transform="translate(-189.558 -36.547)" fill="#4c638f"/>
    </g>
  </g>
</svg>
