<svg xmlns="http://www.w3.org/2000/svg" width="24.652" height="22.354" viewBox="0 0 24.652 22.354">
  <path id="man-running" d="M15.8,21.879A2.579,2.579,0,1,0,13.224,19.3,2.581,2.581,0,0,0,15.8,21.879Zm0-3.92A1.342,1.342,0,1,1,14.461,19.3,1.343,1.343,0,0,1,15.8,17.959Zm.558,14.222-2.7,5.658h.69a.618.618,0,1,1,0,1.237H12.676a.619.619,0,0,1-.1-.009l-.028,0-.028-.007-.037-.01-.024-.009-.038-.016-.011,0-.013-.007-.028-.015-.027-.016-.022-.015-.029-.022-.017-.014-.029-.026-.014-.014-.026-.029-.014-.017-.022-.029-.014-.022-.016-.027-.014-.027-.012-.025c0-.01-.009-.021-.013-.031l-.009-.024c0-.011-.007-.022-.01-.032l-.007-.026c0-.01,0-.02-.006-.03s0-.021,0-.032,0-.017,0-.026,0-.025,0-.037,0-.008,0-.012,0-.007,0-.011,0-.025,0-.038,0-.017,0-.025,0-.022.005-.033,0-.02.006-.03l.007-.027c0-.012.007-.023.011-.035l.008-.021q.007-.019.016-.038l0-.009,2.864-6-2.039-1.021a.618.618,0,0,1,.553-1.106l2.582,1.292A.618.618,0,0,1,16.361,32.181Zm8.007-9.628c-.194.125-.734.481-1.3.858-.466.308-.969.639-1.369.9A3.262,3.262,0,0,1,19.741,25a8.1,8.1,0,0,1-1.508-.189h-.007l-7.053-1.465c-1.528-.3-1.75-.2-2.542.321-.4.261-.9.591-1.363.9-.6.4-1.12.739-1.32.868a.618.618,0,1,1-.67-1.04c.195-.125.736-.482,1.308-.86.465-.307.967-.638,1.366-.9,1.149-.754,1.732-.838,3.461-.5h.007L18.47,23.6c1.531.3,1.752.2,2.545-.321.4-.262.9-.593,1.367-.9.6-.4,1.116-.737,1.316-.865a.618.618,0,0,1,.67,1.04Zm-15.78,15.9a.618.618,0,0,1-.618.618H6.286l-.057,0-.025,0-.047-.009-.023-.006a.576.576,0,0,1-.055-.018l-.013,0A.607.607,0,0,1,6,39h0l-.014-.009-.033-.021-.023-.017L5.9,38.929l-.025-.023-.018-.018-.024-.026-.016-.019-.02-.027-.015-.022-.016-.026-.015-.027-.011-.024-.014-.032-.008-.022c0-.011-.008-.023-.011-.034L5.7,38.605c0-.011-.005-.022-.008-.034s0-.02,0-.03,0-.019,0-.029,0-.026,0-.039,0-.011,0-.017,0,0,0,0,0-.03,0-.045,0-.012,0-.017,0-.027.006-.041,0-.014,0-.021.005-.02.008-.031,0-.02.008-.03l.007-.02c0-.013.009-.025.014-.038l.008-.016c.006-.013.013-.026.02-.039l0,0L13,25.361a.618.618,0,0,1,1.076.609L7.359,37.839h.61A.619.619,0,0,1,8.588,38.457Zm-.058-9.62H1.795a.618.618,0,1,1,0-1.237H8.531a.618.618,0,1,1,0,1.237ZM6.577,31.659H4.585a.618.618,0,1,1,0-1.237H6.577a.618.618,0,1,1,0,1.237Zm-5.235-.423a.618.618,0,0,1-.618.618h-.1a.618.618,0,0,1,0-1.237h.1A.618.618,0,0,1,1.342,31.236Z" transform="translate(0 -16.722)" fill="#00215f"/>
</svg>
