<svg xmlns="http://www.w3.org/2000/svg" width="32.236" height="32.235" viewBox="0 0 32.236 32.235">
  <g id="logout" transform="translate(0 -0.008)">
    <path id="Path_1540" data-name="Path 1540" d="M291.1,210.023h-12.76a1.007,1.007,0,0,1,0-2.015H291.1a1.007,1.007,0,1,1,0,2.015Zm0,0" transform="translate(-259.872 -194.905)" fill="#b5d1dd"/>
    <path id="Path_1541" data-name="Path 1541" d="M401.011,140.06a1.008,1.008,0,0,1-.712-1.721l4.325-4.325L400.3,129.69a1.008,1.008,0,1,1,1.425-1.425l5.037,5.037a1.008,1.008,0,0,1,0,1.425l-5.037,5.037A1,1,0,0,1,401.011,140.06Zm0,0" transform="translate(-374.82 -119.906)" fill="#b5d1dd"/>
    <path id="Path_1542" data-name="Path 1542" d="M10.745,32.243a2.768,2.768,0,0,1-.833-.125L1.829,29.425A2.711,2.711,0,0,1,0,26.87V2.694A2.689,2.689,0,0,1,2.686.008a2.77,2.77,0,0,1,.833.125L11.6,2.826A2.711,2.711,0,0,1,13.431,5.38V29.556A2.689,2.689,0,0,1,10.745,32.243ZM2.686,2.022a.674.674,0,0,0-.672.672V26.87a.7.7,0,0,0,.466.647L10.526,30.2a.73.73,0,0,0,.219.03.673.673,0,0,0,.671-.672V5.38a.7.7,0,0,0-.466-.647L2.905,2.052A.729.729,0,0,0,2.686,2.022Zm0,0" fill="#b5d1dd"/>
    <path id="Path_1543" data-name="Path 1543" d="M45.471,10.753a1.008,1.008,0,0,1-1.007-1.007V3.7a1.681,1.681,0,0,0-1.679-1.679H27.675a1.007,1.007,0,1,1,0-2.015h15.11A3.7,3.7,0,0,1,46.479,3.7V9.746A1.008,1.008,0,0,1,45.471,10.753Zm0,0" transform="translate(-24.989 0)" fill="#b5d1dd"/>
    <path id="Path_1544" data-name="Path 1544" d="M187.712,288.085h-5.373a1.007,1.007,0,0,1,0-2.015h5.373a1.681,1.681,0,0,0,1.679-1.679v-6.044a1.007,1.007,0,0,1,2.015,0v6.044A3.7,3.7,0,0,1,187.712,288.085Zm0,0" transform="translate(-169.916 -259.872)" fill="#b5d1dd"/>
  </g>
</svg>
