<svg xmlns="http://www.w3.org/2000/svg" width="22.354" height="22.354" viewBox="0 0 22.354 22.354">
  <g id="support" transform="translate(-32 -846)">
    <path id="big-lifesaver" d="M22.354,11.177A11.183,11.183,0,0,0,21.085,6a.5.5,0,0,0,.043-.569A11.535,11.535,0,0,0,19.649,3.42l.24-.24a.506.506,0,1,0-.715-.715l-.24.24a11.515,11.515,0,0,0-2.011-1.479.507.507,0,0,0-.569.044A11.192,11.192,0,0,0,6,1.269a.5.5,0,0,0-.569-.043A11.535,11.535,0,0,0,3.42,2.7l-.24-.24a.506.506,0,1,0-.715.715l.24.24A11.508,11.508,0,0,0,1.226,5.431.507.507,0,0,0,1.269,6a11.192,11.192,0,0,0,0,10.354.5.5,0,0,0-.043.569A11.535,11.535,0,0,0,2.7,18.934l-.24.24a.506.506,0,1,0,.715.715l.24-.24a11.513,11.513,0,0,0,2.011,1.479.5.5,0,0,0,.252.068A.51.51,0,0,0,6,21.085a11.192,11.192,0,0,0,10.354,0,.5.5,0,0,0,.569.043,11.535,11.535,0,0,0,2.012-1.478l.24.24a.506.506,0,0,0,.715-.715l-.24-.24a11.515,11.515,0,0,0,1.479-2.011.507.507,0,0,0-.044-.569A11.183,11.183,0,0,0,22.354,11.177Zm-2.131,4.639-3.008-1.736a6.7,6.7,0,0,0,0-5.8l3.008-1.736a10.172,10.172,0,0,1,0,9.278Zm-9.046,1.05a5.689,5.689,0,1,1,5.689-5.689A5.7,5.7,0,0,1,11.177,16.866ZM16.708,7.4a6.755,6.755,0,0,0-1.754-1.754l1.894-3.281a10.538,10.538,0,0,1,3.14,3.141Zm-.892-5.269L14.079,5.138a6.7,6.7,0,0,0-5.8,0L6.538,2.131a10.172,10.172,0,0,1,9.278,0Zm-10.31.235L7.4,5.646A6.755,6.755,0,0,0,5.646,7.4L2.365,5.505A10.539,10.539,0,0,1,5.506,2.366ZM2.131,6.538,5.138,8.275a6.7,6.7,0,0,0,0,5.8L2.131,15.816a10.172,10.172,0,0,1,0-9.278Zm3.515,8.416A6.755,6.755,0,0,0,7.4,16.708L5.505,19.989a10.539,10.539,0,0,1-3.14-3.141Zm.892,5.269,1.736-3.008a6.7,6.7,0,0,0,5.8,0l1.736,3.008a10.172,10.172,0,0,1-9.278,0Zm10.31-.235-1.894-3.28a6.755,6.755,0,0,0,1.754-1.754l3.281,1.894A10.539,10.539,0,0,1,16.848,19.988Z" transform="translate(32 846)" fill="#00205f"/>
  </g>
</svg>
