<?xml version="1.0" encoding="utf-8"?>
<!-- Generator: Adobe Illustrator 23.0.1, SVG Export Plug-In . SVG Version: 6.00 Build 0)  -->
<svg version="1.1" id="Layer_1" xmlns="http://www.w3.org/2000/svg" xmlns:xlink="http://www.w3.org/1999/xlink" x="0px" y="0px"
	 viewBox="0 0 22.4 22.4" style="enable-background:new 0 0 22.4 22.4;" xml:space="preserve">
<path id="chat" transform="translate(0 0)" d="M0.7,20.5c-0.4,0.2-0.6,0.7-0.4,1.2c0.1,0.3,0.4,0.4,0.6,0.5c0.3,0,0.6,0.1,0.9,0.1
	c1.4,0,2.8-0.4,4-1.3c5.4,3,12.2,1,15.2-4.4s1-12.2-4.4-15.2S4.4,0.4,1.4,5.8c-2.2,4-1.8,9.1,1.2,12.6C2.2,19.3,1.5,20.1,0.7,20.5z
	 M3.9,3.9c4-4,10.5-4,14.5,0s4,10.5,0,14.5c-3.3,3.3-8.4,4-12.5,1.6C5.9,20,5.8,20,5.7,20c-0.1,0-0.2,0-0.3,0.1
	c-1,0.8-2.3,1.3-3.7,1.3c-0.2,0-0.4,0-0.6,0c1.1-0.6,1.9-1.6,2.4-2.8c0.1-0.2,0-0.3-0.1-0.5C-0.1,13.9,0.1,7.8,3.9,3.9z M7,9.9
	c0.6,0,1,0.4,1,1c0,0.6-0.4,1-1,1s-1-0.4-1-1C6,10.4,6.4,9.9,7,9.9z M7,10.4c0.3,0,0.5,0.2,0.5,0.5S7.2,11.4,7,11.4
	s-0.5-0.2-0.5-0.5S6.7,10.4,7,10.4z M11,9.9c0.6,0,1,0.4,1,1c0,0.6-0.4,1-1,1c-0.6,0-1-0.4-1-1C10,10.4,10.4,9.9,11,9.9z M11,10.4
	c0.3,0,0.5,0.2,0.5,0.5s-0.2,0.5-0.5,0.5s-0.5-0.2-0.5-0.5S10.7,10.4,11,10.4z M15,9.9c0.6,0,1,0.4,1,1c0,0.6-0.4,1-1,1
	c-0.6,0-1-0.4-1-1C14,10.4,14.4,9.9,15,9.9z M15,10.4c0.3,0,0.5,0.2,0.5,0.5s-0.2,0.5-0.5,0.5s-0.5-0.2-0.5-0.5S14.7,10.4,15,10.4z"
	/>
</svg>
