<svg id="widget" xmlns="http://www.w3.org/2000/svg" width="22.38" height="22.376" viewBox="0 0 22.38 22.376">
  <g id="Group_247" data-name="Group 247" transform="translate(0 0)">
    <path id="Path_530" data-name="Path 530" d="M22.38,11.22A11.2,11.2,0,0,0,11.191.032a.45.45,0,0,0-.452.452V4.622h-.21a3.8,3.8,0,0,0-3.8,3.8v5.6a3.8,3.8,0,0,0,3.8,3.8h1.319a3.8,3.8,0,0,0,3.8-3.8v-5.6a3.8,3.8,0,0,0-3.8-3.8h-.21V.94a10.291,10.291,0,0,1,4.873,19.087,10.756,10.756,0,0,1-10.75.087,8.188,8.188,0,0,1-3.468-3.472C-.138,11.973.665,6.831,4.343,3.55a.452.452,0,0,0-.6-.675A11.244,11.244,0,0,0,.195,9.121a12.194,12.194,0,0,0,1.3,7.93,9,9,0,0,0,3.851,3.856,12.634,12.634,0,0,0,5.868,1.5A11.189,11.189,0,0,0,22.38,11.22Zm-10.527-5.7a2.9,2.9,0,0,1,2.9,2.9v5.6a2.9,2.9,0,0,1-2.9,2.9H10.534a2.9,2.9,0,0,1-2.9-2.9v-5.6a2.9,2.9,0,0,1,2.9-2.9Z" transform="translate(0 -0.032)" fill="#00215f"/>
    <path id="Path_531" data-name="Path 531" d="M235.817,154.571a.45.45,0,0,0,.452-.452v-2.236a.452.452,0,1,0-.9,0v2.236A.453.453,0,0,0,235.817,154.571Z" transform="translate(-224.626 -144.524)" fill="#00215f"/>
  </g>
</svg>
