<svg xmlns="http://www.w3.org/2000/svg" width="17.254" height="22.363" viewBox="0 0 17.254 22.363">
  <g id="billing" transform="translate(0 0)">
    <g id="Group_245" data-name="Group 245" transform="translate(0)">
      <path id="Path_525" data-name="Path 525" d="M69.686,147.075l.114-.1a.217.217,0,0,0,.046-.046,13.811,13.811,0,0,0,1.9-2.788h.242a1.252,1.252,0,0,0,1.25-1.25v-1.976a1.252,1.252,0,0,0-1.25-1.25h-.269a7.065,7.065,0,0,0-2.062-2.852,1.892,1.892,0,0,1,.306-1.551.932.932,0,0,0-.9-1.419,3.811,3.811,0,0,0-2.569,1.319,8.7,8.7,0,0,0-1.332-.26.453.453,0,0,0-.1.9,8,8,0,0,1,1.474.319.457.457,0,0,0,.511-.178,2.867,2.867,0,0,1,2.131-1.2.027.027,0,0,1,.027.014.02.02,0,0,1,0,.027,2.8,2.8,0,0,0-.406,2.286.444.444,0,0,0,.169.338,6.129,6.129,0,0,1,2.017,2.852.451.451,0,0,0,.429.31h.584a.347.347,0,0,1,.347.347V142.9a.347.347,0,0,1-.347.347h-.552a.455.455,0,0,0-.433.319,10.944,10.944,0,0,1-1.816,2.756l-.1.087a3.037,3.037,0,0,0-1.04,2.154v.634H65.438v-.611a.457.457,0,0,0-.151-.338.452.452,0,0,0-.351-.114,8.483,8.483,0,0,1-1.985-.027.442.442,0,0,0-.356.109.447.447,0,0,0-.155.342v.634H59.835v-.2a4.174,4.174,0,0,0-1.122-2.669,6.643,6.643,0,0,1-1.2-1.811s0-.009-.009-.018a5.379,5.379,0,0,1-.465-1.246l0-.018s0-.009,0-.014a4.658,4.658,0,0,1-.146-1.241v-.014a5.983,5.983,0,0,1,.073-.9.451.451,0,1,0-.89-.151,6.132,6.132,0,0,0-.087,1.045,5.477,5.477,0,0,0,.183,1.519h0a6.551,6.551,0,0,0,.534,1.424,7.407,7.407,0,0,0,1.36,2.053,3.254,3.254,0,0,1,.867,2.072v.187a.3.3,0,0,0,0,.059.89.89,0,0,0,.881.826h2.642a.886.886,0,0,0,.885-.885v-.151a9.42,9.42,0,0,0,1.191.018v.132a.886.886,0,0,0,.885.885h2.642a.886.886,0,0,0,.885-.885v-.643A2.191,2.191,0,0,1,69.686,147.075Z" transform="translate(-55.982 -127.728)" fill="#00205f"/>
      <path id="Path_526" data-name="Path 526" d="M56.819,113.619a3.719,3.719,0,1,0,3.719-3.719A3.722,3.722,0,0,0,56.819,113.619Zm6.534,0a2.815,2.815,0,1,1-2.815-2.815A2.82,2.82,0,0,1,63.353,113.619Z" transform="translate(-56.781 -104.885)" fill="#00205f"/>
      <path id="Path_527" data-name="Path 527" d="M179.8,2.592a2.592,2.592,0,1,0-2.592,2.592A2.6,2.6,0,0,0,179.8,2.592Zm-4.285,0a1.688,1.688,0,1,1,1.688,1.688A1.69,1.69,0,0,1,175.518,2.592Z" transform="translate(-169.206)" fill="#00205f"/>
    </g>
  </g>
</svg>
