<svg xmlns="http://www.w3.org/2000/svg" width="22.449" height="22.322" viewBox="0 0 22.449 22.322">
  <g id="statistics" transform="translate(0.001 0)">
    <g id="Group_248" data-name="Group 248" transform="translate(0 0)">
      <path id="Path_532" data-name="Path 532" d="M276.552,1.4a.45.45,0,0,0-.452.452V10.8a.45.45,0,0,0,.452.452H285.5a.45.45,0,0,0,.452-.452,9.4,9.4,0,0,0-9.4-9.4ZM277,10.348V2.317a8.5,8.5,0,0,1,8.035,8.031Z" transform="translate(-263.502 -1.4)" fill="#00215f"/>
      <path id="Path_533" data-name="Path 533" d="M20.246,56.925a.45.45,0,0,0-.452-.452H10.577V47.252a.45.45,0,0,0-.452-.452A10.125,10.125,0,1,0,20.246,56.925ZM10.125,66.147a9.223,9.223,0,0,1-.452-18.434v9.208a.45.45,0,0,0,.452.452h9.208A9.235,9.235,0,0,1,10.125,66.147Z" transform="translate(0 -44.728)" fill="#00215f"/>
    </g>
  </g>
</svg>
