<svg xmlns="http://www.w3.org/2000/svg" width="22.356" height="22.155" viewBox="0 0 22.356 22.155">
  <g id="settings" transform="translate(0 0)">
    <g id="Group_244" data-name="Group 244" transform="translate(0 0)">
      <path id="Path_521" data-name="Path 521" d="M120.461,2.289l-1.118.461a1.171,1.171,0,0,0-.634,1.529l.287.694a7.119,7.119,0,0,0-1.469,1.469l-.694-.287a1.17,1.17,0,0,0-1.529.634l-.465,1.118a1.17,1.17,0,0,0,.634,1.529l1.027.424a.451.451,0,0,0,.342-.835L115.816,8.6a.271.271,0,0,1-.146-.351l.465-1.118a.269.269,0,0,1,.351-.146l1.027.424a.451.451,0,0,0,.548-.164A6.184,6.184,0,0,1,119.8,5.506a.454.454,0,0,0,.169-.548l-.424-1.027a.272.272,0,0,1,.146-.351l1.118-.461a.269.269,0,0,1,.351.146l.424,1.027a.445.445,0,0,0,.506.269,6.261,6.261,0,0,1,2.455,0,.457.457,0,0,0,.506-.269l.424-1.027a.271.271,0,0,1,.351-.146l1.118.465a.269.269,0,0,1,.146.351l-.424,1.027a.451.451,0,0,0,.164.548,6.184,6.184,0,0,1,1.738,1.738.454.454,0,0,0,.548.169l1.027-.424a.269.269,0,0,1,.351.146l.461,1.118a.269.269,0,0,1-.146.351l-1.027.424a.45.45,0,0,0-.269.506,6.261,6.261,0,0,1,0,2.455.457.457,0,0,0,.269.506l1.027.424a.271.271,0,0,1,.146.351l-.465,1.118a.271.271,0,0,1-.351.146l-1.027-.424a.451.451,0,0,0-.548.164,6.184,6.184,0,0,1-1.738,1.738.454.454,0,0,0-.169.548l.424,1.027a.269.269,0,0,1-.146.351l-1.118.461a.269.269,0,0,1-.351-.146l-.424-1.027a.451.451,0,1,0-.835.342l.424,1.027a1.168,1.168,0,0,0,.634.634,1.187,1.187,0,0,0,.447.091,1.169,1.169,0,0,0,.447-.091l1.118-.461a1.17,1.17,0,0,0,.634-1.529l-.287-.694a7.118,7.118,0,0,0,1.469-1.469l.694.287a1.17,1.17,0,0,0,1.529-.634l.465-1.118a1.17,1.17,0,0,0-.634-1.529l-.694-.287a7.2,7.2,0,0,0,0-2.076l.694-.287a1.17,1.17,0,0,0,.634-1.529l-.461-1.118a1.17,1.17,0,0,0-1.529-.634l-.694.287a7.1,7.1,0,0,0-1.465-1.469l.287-.694a1.17,1.17,0,0,0-.634-1.529l-1.118-.465a1.17,1.17,0,0,0-1.529.634l-.287.694a7.194,7.194,0,0,0-2.076,0l-.287-.694a1.17,1.17,0,0,0-1.529-.634Z" transform="translate(-109.515 -2.2)" fill="#00205f"/>
      <path id="Path_522" data-name="Path 522" d="M229.15,113a3.677,3.677,0,0,0-3.673-3.646h-.027a3.677,3.677,0,0,0-3.65,3.7.452.452,0,0,0,.452.447h0a.447.447,0,0,0,.447-.456,2.773,2.773,0,0,1,2.751-2.792h.018a2.772,2.772,0,0,1,.018,5.544.447.447,0,0,0-.447.456.452.452,0,0,0,.452.447h0A3.678,3.678,0,0,0,229.15,113Z" transform="translate(-211.679 -104.461)" fill="#00205f"/>
      <path id="Path_523" data-name="Path 523" d="M6.174,211.078h.881a.978.978,0,0,0,.976-.976v-.452a5.174,5.174,0,0,0,1.25-.52l.319.319a.974.974,0,0,0,.689.287.955.955,0,0,0,.689-.287l.621-.621a.974.974,0,0,0,.287-.689.955.955,0,0,0-.287-.689l-.319-.319a5.174,5.174,0,0,0,.52-1.25h.452a.978.978,0,0,0,.976-.976v-.881a.978.978,0,0,0-.976-.976H11.8a5.174,5.174,0,0,0-.52-1.25l.319-.319a.974.974,0,0,0,.287-.689.955.955,0,0,0-.287-.689l-.621-.621a.974.974,0,0,0-.689-.287.955.955,0,0,0-.689.287l-.319.319a5.174,5.174,0,0,0-1.25-.52v-.452a.978.978,0,0,0-.976-.976H6.174a.978.978,0,0,0-.976.976v.452a5.174,5.174,0,0,0-1.25.52l-.319-.319a.974.974,0,0,0-.689-.287.955.955,0,0,0-.689.287l-.621.621a.978.978,0,0,0,0,1.378l.319.319a5.174,5.174,0,0,0-.52,1.25H.976a.978.978,0,0,0-.976.976v.881a.978.978,0,0,0,.976.976h.452a5.174,5.174,0,0,0,.52,1.25l-.319.319a.978.978,0,0,0,0,1.378l.621.621a.974.974,0,0,0,.689.287.955.955,0,0,0,.689-.287l.319-.319a5.174,5.174,0,0,0,1.25.52v.452A.983.983,0,0,0,6.174,211.078Zm-2.04-2.893a.464.464,0,0,0-.251-.078.449.449,0,0,0-.319.132l-.57.57a.067.067,0,0,1-.1,0l-.621-.621a.072.072,0,0,1,0-.1l.57-.57a.449.449,0,0,0,.055-.57,4.4,4.4,0,0,1-.666-1.606.454.454,0,0,0-.443-.365H.981a.072.072,0,0,1-.073-.073v-.881a.072.072,0,0,1,.073-.073h.808a.45.45,0,0,0,.443-.365,4.4,4.4,0,0,1,.666-1.606.455.455,0,0,0-.055-.57l-.57-.57a.072.072,0,0,1,0-.1l.621-.621a.067.067,0,0,1,.1,0l.57.579a.449.449,0,0,0,.57.055,4.4,4.4,0,0,1,1.606-.666.454.454,0,0,0,.365-.443v-.808a.072.072,0,0,1,.073-.073h.881a.072.072,0,0,1,.073.073v.808a.45.45,0,0,0,.365.443,4.4,4.4,0,0,1,1.606.666.455.455,0,0,0,.57-.055l.57-.57a.067.067,0,0,1,.1,0l.621.621a.067.067,0,0,1,0,.1l-.57.57a.449.449,0,0,0-.055.57,4.4,4.4,0,0,1,.666,1.606.454.454,0,0,0,.443.365h.808a.072.072,0,0,1,.073.073v.881a.072.072,0,0,1-.073.073h-.808a.45.45,0,0,0-.443.365,4.4,4.4,0,0,1-.666,1.606.455.455,0,0,0,.055.57l.57.57a.067.067,0,0,1,0,.1l-.621.621a.067.067,0,0,1-.1,0l-.57-.57a.449.449,0,0,0-.57-.055,4.4,4.4,0,0,1-1.606.666.454.454,0,0,0-.365.443v.808a.072.072,0,0,1-.073.073H6.178a.072.072,0,0,1-.073-.073V209.3a.45.45,0,0,0-.365-.443A4.581,4.581,0,0,1,4.134,208.185Z" transform="translate(0 -188.923)" fill="#00205f"/>
      <path id="Path_524" data-name="Path 524" d="M91.561,286.833a2.681,2.681,0,1,0-2.678,2.683A2.687,2.687,0,0,0,91.561,286.833Zm-4.458,0a1.78,1.78,0,1,1,1.78,1.78A1.782,1.782,0,0,1,87.1,286.833Z" transform="translate(-82.267 -271.285)" fill="#00205f"/>
    </g>
  </g>
</svg>
