<svg xmlns="http://www.w3.org/2000/svg" width="11.4" height="19" viewBox="0 0 11.4 19">
  <g id="mobile-phone" transform="translate(-73.09)">
    <path id="Path_1545" data-name="Path 1545" d="M83.926.564A1.825,1.825,0,0,0,82.59,0h-7.6a1.826,1.826,0,0,0-1.336.564A1.825,1.825,0,0,0,73.09,1.9V17.1a1.927,1.927,0,0,0,1.9,1.9h7.6a1.927,1.927,0,0,0,1.9-1.9V1.9A1.825,1.825,0,0,0,83.926.564ZM77.6,1.9h2.375a.21.21,0,0,1,.237.238.21.21,0,0,1-.237.238H77.6a.21.21,0,0,1-.237-.238A.21.21,0,0,1,77.6,1.9Zm2.026,16.039a1.183,1.183,0,1,1,.349-.839A1.145,1.145,0,0,1,79.629,17.939Zm3.436-3.214a.481.481,0,0,1-.475.475h-7.6a.481.481,0,0,1-.475-.475V4.275A.482.482,0,0,1,74.99,3.8h7.6a.482.482,0,0,1,.475.475v10.45h0Z" fill="#00215f"/>
  </g>
</svg>
