<svg xmlns="http://www.w3.org/2000/svg" width="11.76" height="11.76" viewBox="0 0 11.76 11.76">
  <g id="pencil-on-a-notes-paper" transform="translate(1255 111)">
    <path id="Path_438" data-name="Path 438" d="M10.29,4.069V10.29a1.47,1.47,0,0,1-1.47,1.47H1.47A1.47,1.47,0,0,1,0,10.29V2.94A1.47,1.47,0,0,1,1.47,1.47H7.691L6.222,2.94H1.47v7.35H8.82V5.539ZM9.162,1.039l-.52.52L10.2,3.118l.52-.52ZM10.2,0l-.52.52,1.559,1.559.52-.52ZM3.445,6.757,5,8.316,9.682,3.638,8.123,2.079ZM2.94,8.82H4.41L2.94,7.35Z" transform="translate(-1255 -111)" fill="#00215f"/>
  </g>
</svg>
