<svg xmlns="http://www.w3.org/2000/svg" width="83.322" height="83.321" viewBox="0 0 83.322 83.321">
  <g id="_005-api" data-name="005-api" transform="translate(0.001)">
    <path id="Path_388" data-name="Path 388" d="M27.956,28.439h5.511l1.31,5.678,2.619-.6L33.123,15H28.3L24.025,33.512l2.619.6Zm3.03-10.751,1.86,8.063H28.575l1.86-8.063Z" transform="translate(6.918 3.814)" fill="#608ed3"/>
    <path id="Path_389" data-name="Path 389" d="M36,33.814h2.688V25.751h2.688a5.376,5.376,0,1,0,0-10.751H36Zm2.688-16.127h2.688a2.688,2.688,0,1,1,0,5.376H38.688Z" transform="translate(11.036 3.814)" fill="#608ed3"/>
    <path id="Path_390" data-name="Path 390" d="M53.063,31.127H50.376V17.688h2.688V15H45v2.688h2.688V31.127H45v2.688h8.063Z" transform="translate(14.131 3.814)" fill="#608ed3"/>
    <path id="Path_391" data-name="Path 391" d="M76.258,25.3V25.19A14.642,14.642,0,0,0,58.779,10.684a16.113,16.113,0,0,0-30.658,9.187,12.078,12.078,0,0,0-8.733,19.066l-.129.546a21.307,21.307,0,0,0-4.478,1.857l-3.094-1.915L4.481,46.632,6.4,49.725A21.378,21.378,0,0,0,4.538,54.2L1,55.035V65.227l3.54.833A21.307,21.307,0,0,0,6.4,70.538L4.482,73.632l7.207,7.207,3.094-1.915a21.378,21.378,0,0,0,4.478,1.857l.833,3.54H30.286l.833-3.54A21.307,21.307,0,0,0,35.6,78.924l3.094,1.915L45.9,73.632l-1.915-3.094a21.453,21.453,0,0,0,1.111-2.344H70.882V66.851a6.727,6.727,0,0,0-6.719-6.719H62.819V54.756H77.6a6.727,6.727,0,0,0,6.719-6.719V34.6a9.417,9.417,0,0,0-8.063-9.3ZM29.222,22.5a9.366,9.366,0,0,1,3.528.683l1.009-2.492a12,12,0,0,0-2.864-.751,13.425,13.425,0,1,1,26.549-2.815h2.688a16.067,16.067,0,0,0-.492-3.88A12.078,12.078,0,0,1,73.508,26.4l-.081,1.476h1.486a6.719,6.719,0,1,1,0,13.439H40.586l-1.894-1.894L35.6,41.338a21.378,21.378,0,0,0-4.478-1.857l-.835-3.54H20.751a9.292,9.292,0,0,1-.937-4.032A9.418,9.418,0,0,1,29.222,22.5ZM43.639,63.818l-.2.8a18.667,18.667,0,0,1-2.176,5.247l-.427.7,1.652,2.669-4.2,4.2-2.669-1.652-.7.427a18.691,18.691,0,0,1-5.247,2.176l-.8.2-.718,3.052H22.223L21.5,78.58l-.8-.2a18.668,18.668,0,0,1-5.247-2.176l-.7-.427-2.669,1.652-4.2-4.2,1.652-2.669-.427-.7a18.69,18.69,0,0,1-2.176-5.247l-.2-.8L3.688,63.1V57.164l3.053-.719.2-.8A18.667,18.667,0,0,1,9.113,50.4l.427-.7L7.889,47.026l4.2-4.2,2.669,1.652.7-.427a18.691,18.691,0,0,1,5.247-2.176l.8-.2.718-3.052h5.935l.719,3.053.8.2a18.667,18.667,0,0,1,5.247,2.176l.7.427L38.3,42.83l4.2,4.2L40.841,49.7l.427.7a18.7,18.7,0,0,1,2.176,5.247l.2.8,3.052.718V63.1Zm24.326,1.689H48.192l1.188-.28V62.819H64.163a4.039,4.039,0,0,1,3.8,2.688Zm-7.834-5.376H49.38v-5.1l-1.188-.28H60.131Zm21.5-12.1A4.037,4.037,0,0,1,77.6,52.068H45.094a21.455,21.455,0,0,0-1.111-2.344L45.9,46.63,43.274,44H74.914a9.376,9.376,0,0,0,6.719-2.836Z" transform="translate(-1 -1)" fill="#608ed3"/>
    <path id="Path_392" data-name="Path 392" d="M57,35h2.688v2.688H57Z" transform="translate(18.258 10.692)" fill="#608ed3"/>
    <path id="Path_393" data-name="Path 393" d="M53,35h2.688v2.688H53Z" transform="translate(16.882 10.692)" fill="#608ed3"/>
    <path id="Path_394" data-name="Path 394" d="M49,35h2.688v2.688H49Z" transform="translate(15.507 10.692)" fill="#608ed3"/>
    <path id="Path_395" data-name="Path 395" d="M23.127,33A16.127,16.127,0,1,0,39.253,49.127,16.145,16.145,0,0,0,23.127,33Zm0,29.566A13.439,13.439,0,1,1,36.566,49.127,13.454,13.454,0,0,1,23.127,62.566Z" transform="translate(1.063 10.005)" fill="#608ed3"/>
    <path id="Path_396" data-name="Path 396" d="M21.063,39a8.063,8.063,0,1,0,8.063,8.063A8.071,8.071,0,0,0,21.063,39Zm0,13.439a5.376,5.376,0,1,1,5.376-5.376A5.381,5.381,0,0,1,21.063,52.439Z" transform="translate(3.127 12.068)" fill="#608ed3"/>
    <path id="Path_397" data-name="Path 397" d="M29.556,10.049a8.066,8.066,0,0,1,11.4,0l1.9-1.9A10.763,10.763,0,0,0,26.433,9.607l2.205,1.537a8.242,8.242,0,0,1,.918-1.1Z" transform="translate(7.746 0.376)" fill="#608ed3"/>
    <path id="Path_398" data-name="Path 398" d="M28.022,11.481l-2.576-.766A10.771,10.771,0,0,0,25,13.786h2.688A8.083,8.083,0,0,1,28.022,11.481Z" transform="translate(7.253 2.341)" fill="#608ed3"/>
  </g>
</svg>
