<svg xmlns="http://www.w3.org/2000/svg" width="83.303" height="83.321" viewBox="0 0 83.303 83.321">
  <g id="_007-life-insurance" data-name="007-life-insurance" transform="translate(0)">
    <g id="_033---Insurance" data-name="033---Insurance" transform="translate(0 0)">
      <path id="Shape" d="M57.605,9.235,36.775.116a1.389,1.389,0,0,0-1.111,0L14.833,9.235A1.389,1.389,0,0,0,14,10.507v21.8A15.3,15.3,0,0,0,20.332,44.68l14.4,10.383a2.541,2.541,0,0,0,2.98,0l14.4-10.382a15.3,15.3,0,0,0,6.332-12.371v-21.8A1.389,1.389,0,0,0,57.605,9.235ZM55.661,32.311a12.511,12.511,0,0,1-5.18,10.118L36.219,52.715,21.957,42.429a12.511,12.511,0,0,1-5.18-10.118v-20.9L36.219,2.9l19.442,8.51Z" transform="translate(5.418 -0.001)" fill="#608ed3"/>
      <path id="Shape-2" data-name="Shape" d="M34.109,4.482,18.833,11.17A1.389,1.389,0,0,0,18,12.442V30.614a9.721,9.721,0,0,0,4.027,7.866l11.825,8.529a1.389,1.389,0,0,0,1.625,0L47.3,38.479a9.721,9.721,0,0,0,4.027-7.866V12.442A1.389,1.389,0,0,0,50.5,11.17L35.22,4.482A1.389,1.389,0,0,0,34.109,4.482Zm14.443,8.867V30.614a6.943,6.943,0,0,1-2.875,5.613L34.664,44.17,23.652,36.227a6.943,6.943,0,0,1-2.875-5.613V13.349L34.664,7.271Z" transform="translate(6.972 1.697)" fill="#608ed3"/>
      <path id="Shape-3" data-name="Shape" d="M11.5,35.9l-3-7.018a4.427,4.427,0,1,0-8.1,3.576L5.837,44.433a14.749,14.749,0,0,0,3.015,4.352l8.559,8.56a2.761,2.761,0,0,0-.753,1.889v11.11a2.777,2.777,0,0,0,2.777,2.777H34.711a2.777,2.777,0,0,0,2.777-2.777V59.233a2.777,2.777,0,0,0-2.777-2.777V53.872a14.551,14.551,0,0,0-3.044-9.1A10,10,0,0,0,27.038,41.4a27.471,27.471,0,0,1-7.95-5.1A6.388,6.388,0,0,0,11.5,35.9Zm23.212,34.44H19.435V59.233H34.711ZM29.5,46.51a11.783,11.783,0,0,1,2.434,7.361v2.584H20.45l-9.635-9.635a12.011,12.011,0,0,1-2.451-3.537L2.922,31.312a1.65,1.65,0,1,1,3.019-1.333l3.107,7.245a16.387,16.387,0,0,0,3.5,5.173l6.344,6.345a1.389,1.389,0,1,0,1.964-1.964l-6.344-6.345A13.7,13.7,0,0,1,12.8,38.35a3.611,3.611,0,0,1,4.5.075,29.608,29.608,0,0,0,8.86,5.61A7.3,7.3,0,0,1,29.5,46.51Z" transform="translate(-0.017 10.201)" fill="#608ed3"/>
      <path id="Shape-4" data-name="Shape" d="M22.777,53H21.389a1.389,1.389,0,1,0,0,2.777h1.389a1.389,1.389,0,0,0,0-2.777Z" transform="translate(7.75 20.6)" fill="#608ed3"/>
      <path id="Shape-5" data-name="Shape" d="M64.651,44.451l5.442-11.972a4.427,4.427,0,1,0-8.1-3.576L59,35.9a6.4,6.4,0,0,0-7.6.417,27.471,27.471,0,0,1-7.95,5.1,10,10,0,0,0-4.629,3.376,14.551,14.551,0,0,0-3.044,9.1v2.584A2.777,2.777,0,0,0,33,59.252v11.11a2.777,2.777,0,0,0,2.777,2.777H51.053a2.777,2.777,0,0,0,2.777-2.777V59.252a2.761,2.761,0,0,0-.753-1.889l8.559-8.56A14.749,14.749,0,0,0,64.651,44.451Zm-13.6,25.91H35.777V59.252H51.053ZM50.038,56.474H38.555V53.89a11.783,11.783,0,0,1,2.434-7.36,7.3,7.3,0,0,1,3.333-2.476,29.6,29.6,0,0,0,8.861-5.61,3.611,3.611,0,0,1,4.506-.087,13.618,13.618,0,0,1-1.721,2.1L49.626,46.8a1.389,1.389,0,0,0,1.964,1.964l6.344-6.345a16.387,16.387,0,0,0,3.5-5.173L64.542,30a1.651,1.651,0,1,1,3.019,1.335L62.118,43.3a12.011,12.011,0,0,1-2.451,3.537Z" transform="translate(12.803 10.183)" fill="#608ed3"/>
      <path id="Shape-6" data-name="Shape" d="M39.777,53H38.389a1.389,1.389,0,0,0,0,2.777h1.389a1.389,1.389,0,0,0,0-2.777Z" transform="translate(14.358 20.6)" fill="#608ed3"/>
      <path id="Shape-7" data-name="Shape" d="M25.222,24.776A1.389,1.389,0,1,0,23.556,27l5.555,4.166a1.389,1.389,0,0,0,.833.278,1.486,1.486,0,0,0,.235-.019,1.389,1.389,0,0,0,.921-.6l11.11-16.664A1.389,1.389,0,0,0,39.9,12.618L29.6,28.062Z" transform="translate(8.916 4.664)" fill="#608ed3"/>
    </g>
  </g>
</svg>
