<svg xmlns="http://www.w3.org/2000/svg" width="83.338" height="83.321" viewBox="0 0 83.338 83.321">
  <g id="dashnoard" transform="translate(0)">
    <g id="Group_199" data-name="Group 199" transform="translate(0 0)">
      <g id="Group_198" data-name="Group 198">
        <path id="Path_348" data-name="Path 348" d="M57.6,34.692a2.047,2.047,0,0,0-2.683.021l-5.59,5V39.06a1.389,1.389,0,0,0-2.777,0V42.2l-2.315,2.072a1.389,1.389,0,0,0,1.852,2.069l10.183-9.115L66.45,46.344A1.389,1.389,0,1,0,68.3,44.274Z" transform="translate(-36.817 -28.645)" fill="#608ed3"/>
        <path id="Path_349" data-name="Path 349" d="M78.84,119.52a1.389,1.389,0,0,0-1.389,1.389v9.721H63.564v-9.721a1.389,1.389,0,0,0-2.777,0v10.6a1.92,1.92,0,0,0,1.944,1.9H78.284a1.925,1.925,0,0,0,1.944-1.9v-10.6A1.389,1.389,0,0,0,78.84,119.52Z" transform="translate(-51.057 -100.078)" fill="#608ed3"/>
        <path id="Path_350" data-name="Path 350" d="M70.508,221.92a9.721,9.721,0,1,0,9.721,9.721A9.721,9.721,0,0,0,70.508,221.92Zm-6.944,9.721a6.956,6.956,0,0,1,5.555-6.8v6.017l-5.138,3.081A6.847,6.847,0,0,1,63.564,231.641Zm1.848,4.675,4.88-2.928,4.038,4.038A6.877,6.877,0,0,1,65.412,236.316Zm10.882-.854-4.4-4.4v-6.23a6.931,6.931,0,0,1,4.4,10.626Z" transform="translate(-51.057 -185.814)" fill="#608ed3"/>
        <path id="Path_351" data-name="Path 351" d="M276.093,53.629V48.875a2.191,2.191,0,0,0-2.19-2.19h-3.952a2.191,2.191,0,0,0-2.19,2.19v4.754h-2.777V44.921a2.4,2.4,0,0,0-2.4-2.4h-3.527a2.4,2.4,0,0,0-2.4,2.4v8.707h-2.777V38.353a2.777,2.777,0,0,0-2.777-2.777h-2.777a2.777,2.777,0,0,0-2.777,2.777V53.629h-1.389a1.389,1.389,0,0,1-1.389-1.389V35.576a1.389,1.389,0,1,0-2.777,0V52.24a4.166,4.166,0,0,0,4.166,4.166h31.94a1.389,1.389,0,0,0,0-2.777Zm-25,0h-2.777V38.353H251.1Zm11.11,0h-2.777V45.3h2.777Zm11.109,0h-2.777V49.462h2.777v4.166Z" transform="translate(-201.095 -28.632)" fill="#608ed3"/>
        <path id="Path_352" data-name="Path 352" d="M276.093,224.3h-31.94a1.389,1.389,0,0,1-1.389-1.389v-2.2l4.573-4.573a1.418,1.418,0,0,1,1.964,0l1.628,1.628a4.166,4.166,0,0,0,5.891,0l5.794-5.794a1.418,1.418,0,0,1,1.964,0l1.628,1.629a4.174,4.174,0,0,0,5.891,0l4.98-4.98a1.389,1.389,0,0,0-1.964-1.964l-4.98,4.978a1.389,1.389,0,0,1-1.964,0L266.54,210a4.266,4.266,0,0,0-5.891,0l-5.794,5.794a1.389,1.389,0,0,1-1.964,0l-1.626-1.628a4.267,4.267,0,0,0-5.892,0l-2.609,2.609V206.243a1.389,1.389,0,1,0-2.777,0v16.664a4.166,4.166,0,0,0,4.166,4.166h31.94a1.389,1.389,0,1,0,0-2.777Z" transform="translate(-201.095 -171.525)" fill="#608ed3"/>
        <path id="Path_353" data-name="Path 353" d="M84.33,64.563V7.753a7.36,7.36,0,0,0-6.944-7.7H7.952a7.36,7.36,0,0,0-6.944,7.7v56.81a7.36,7.36,0,0,0,6.944,7.7H30.171v2.777H24.616A5.555,5.555,0,0,0,19.062,80.6v1.389a1.389,1.389,0,0,0,1.389,1.389H64.889a1.389,1.389,0,0,0,1.389-1.389V80.6a5.555,5.555,0,0,0-5.555-5.555H55.168V72.265H77.387A7.36,7.36,0,0,0,84.33,64.563ZM60.722,77.82A2.777,2.777,0,0,1,63.5,80.6H21.839a2.777,2.777,0,0,1,2.777-2.777ZM32.949,75.042V72.265H52.39v2.777Zm44.438-5.555H7.952a4.6,4.6,0,0,1-4.166-4.924V61.155H81.553v3.408A4.6,4.6,0,0,1,77.387,69.487ZM81.553,7.753V58.378H3.786V7.753A4.6,4.6,0,0,1,7.952,2.83H77.387A4.6,4.6,0,0,1,81.553,7.753Z" transform="translate(-1 -0.053)" fill="#608ed3"/>
      </g>
    </g>
  </g>
</svg>
