<svg id="_006-phone-book" data-name="006-phone-book" xmlns="http://www.w3.org/2000/svg" width="69.273" height="83.321" viewBox="0 0 69.273 83.321">
  <path id="Path_399" data-name="Path 399" d="M185.714,116.035a1.237,1.237,0,0,0-1.237,1.237v56.543A4.188,4.188,0,0,1,180.293,178h-38.5a1.237,1.237,0,1,0,0,2.475h38.5a6.666,6.666,0,0,0,6.66-6.658V117.272A1.237,1.237,0,0,0,185.714,116.035Zm0,0" transform="translate(-117.678 -97.152)" fill="#608ed3"/>
  <path id="Path_400" data-name="Path 400" d="M62.614,0H12.14A6.665,6.665,0,0,0,5.483,6.658v1.89H4.463a4.463,4.463,0,1,0,0,8.925h1.02v2.535H4.463a4.463,4.463,0,1,0,0,8.925h1.02v2.535H4.463a4.463,4.463,0,1,0,0,8.925h1.02v2.535H4.463a4.463,4.463,0,1,0,0,8.925h1.02v2.535H4.463a4.463,4.463,0,1,0,0,8.925h1.02v2.535H4.463a4.463,4.463,0,1,0,0,8.925h1.02v1.89a6.665,6.665,0,0,0,6.658,6.657h7.02a1.237,1.237,0,1,0,0-2.475H12.14a4.187,4.187,0,0,1-4.182-4.182v-1.89H9.623a4.463,4.463,0,1,0,0-8.925H7.958V63.314H9.623a4.463,4.463,0,1,0,0-8.925H7.958V51.853H9.623a4.463,4.463,0,1,0,0-8.925H7.958V40.393H9.623a4.463,4.463,0,1,0,0-8.925H7.958V28.933H9.623a4.463,4.463,0,1,0,0-8.925H7.958V17.473H9.623a4.463,4.463,0,1,0,0-8.925H7.958V6.658A4.188,4.188,0,0,1,12.14,2.475H62.615A4.188,4.188,0,0,1,66.8,6.658V15.17a1.237,1.237,0,1,0,2.475,0V6.658A6.666,6.666,0,0,0,62.614,0Zm-51,70.311A1.99,1.99,0,0,1,9.623,72.3H4.463a1.988,1.988,0,1,1,0-3.976H9.623A1.99,1.99,0,0,1,11.611,70.311Zm0-11.46a1.99,1.99,0,0,1-1.988,1.988H4.463a1.988,1.988,0,1,1,0-3.976H9.623A1.99,1.99,0,0,1,11.611,58.851Zm0-11.46a1.99,1.99,0,0,1-1.988,1.988H4.463a1.988,1.988,0,1,1,0-3.976H9.623A1.99,1.99,0,0,1,11.611,47.391Zm0-11.46a1.99,1.99,0,0,1-1.988,1.988H4.463a1.988,1.988,0,1,1,0-3.976H9.623A1.99,1.99,0,0,1,11.611,35.931Zm0-11.46a1.99,1.99,0,0,1-1.988,1.988H4.463a1.987,1.987,0,1,1,0-3.975H9.623A1.99,1.99,0,0,1,11.611,24.47Zm0-11.46A1.99,1.99,0,0,1,9.623,15H4.463a1.987,1.987,0,1,1,0-3.975H9.623A1.99,1.99,0,0,1,11.611,13.01Zm0,0" fill="#608ed3"/>
  <path id="Path_401" data-name="Path 401" d="M134.391,133.267a4.032,4.032,0,0,0-.117-5.593l-5.8-5.8a4.041,4.041,0,0,0-6.155.521l-3.749,5.29a10.331,10.331,0,0,0,.388,12.408,138.457,138.457,0,0,0,20.884,20.883,10.333,10.333,0,0,0,12.408.389l5.29-3.749a4.041,4.041,0,0,0,.521-6.155l-5.8-5.8a4.031,4.031,0,0,0-5.593-.117l-3.53,3.246a.81.81,0,0,1-1.025.062,50.848,50.848,0,0,1-11.029-11.029.81.81,0,0,1,.062-1.025Zm-8.907-10.1c.044,0,.088-.006.133-.006a1.563,1.563,0,0,1,1.107.459l5.8,5.8a1.563,1.563,0,0,1,.045,2.168l-1.051,1.142-7.9-7.9.717-1.012A1.564,1.564,0,0,1,125.483,123.169Zm25.025,24.24,5.8,5.8a1.566,1.566,0,0,1-.2,2.386l-1.011.717-7.9-7.9,1.143-1.051A1.562,1.562,0,0,1,150.509,147.409Zm-9.859,3.439a3.29,3.29,0,0,0,4.161-.238l.564-.519,7.673,7.673-2.23,1.58a7.846,7.846,0,0,1-9.424-.3,135.923,135.923,0,0,1-20.51-20.509,7.846,7.846,0,0,1-.3-9.424l1.58-2.229,7.673,7.672-.519.564a3.291,3.291,0,0,0-.237,4.161A53.327,53.327,0,0,0,140.65,150.848Zm0,0" transform="translate(-97.697 -101.048)" fill="#608ed3"/>
</svg>
