<svg xmlns="http://www.w3.org/2000/svg" width="82.846" height="83.321" viewBox="0 0 82.846 83.321">
  <g id="programare_apel" data-name="programare apel" transform="translate(0)">
    <path id="Path_356" data-name="Path 356" d="M168.063,346.751h-5.376v-2.688h5.376V336H160v2.688h5.376v2.688H160v8.063h8.063Zm0,0" transform="translate(-133.122 -279.556)" fill="#608ed3"/>
    <path id="Path_357" data-name="Path 357" d="M128,336h2.688v13.439H128Zm0,0" transform="translate(-106.498 -279.556)" fill="#608ed3"/>
    <path id="Path_358" data-name="Path 358" d="M224,400h2.688v2.688H224Zm0,0" transform="translate(-186.371 -332.805)" fill="#608ed3"/>
    <path id="Path_359" data-name="Path 359" d="M264.063,336H256v13.439h8.063Zm-2.688,10.751h-2.688v-8.063h2.688Zm0,0" transform="translate(-212.995 -279.556)" fill="#608ed3"/>
    <path id="Path_360" data-name="Path 360" d="M328.063,336H320v13.439h8.063Zm-2.688,10.751h-2.688v-8.063h2.688Zm0,0" transform="translate(-266.244 -279.556)" fill="#608ed3"/>
    <path id="Path_361" data-name="Path 361" d="M123.131,229.376H112.086L110.744,224H79.077l-1.343,5.376H66.688A2.69,2.69,0,0,0,64,232.063v26.878a2.69,2.69,0,0,0,2.688,2.688h2.688a2.69,2.69,0,0,0,2.688,2.688h.295l1.342,5.376h42.416l1.343-5.376h.3a2.69,2.69,0,0,0,2.688-2.688h2.688a2.69,2.69,0,0,0,2.688-2.688V232.063A2.69,2.69,0,0,0,123.131,229.376Zm-41.955-2.688h27.467l.673,2.688H80.5Zm36.58,34.941h-21.5v2.688h18.437L114.017,267H75.8l-.673-2.688H93.566v-2.688h-21.5v-24.19h45.692Zm5.376-2.688h-2.688v-21.5a2.69,2.69,0,0,0-2.688-2.688H72.063a2.69,2.69,0,0,0-2.688,2.688v21.5H66.688V232.063h56.444Zm0,0" transform="translate(-53.249 -186.371)" fill="#608ed3"/>
    <path id="Path_362" data-name="Path 362" d="M86.719,80a6.719,6.719,0,1,0,6.719,6.719A6.727,6.727,0,0,0,86.719,80Zm0,10.751a4.032,4.032,0,1,1,4.032-4.032A4.037,4.037,0,0,1,86.719,90.751Zm0,0" transform="translate(-66.561 -66.561)" fill="#608ed3"/>
    <path id="Path_363" data-name="Path 363" d="M57.742,32.025a1.3,1.3,0,0,1,1.009,1.3v7h2.688v-7a3.99,3.99,0,0,0-3.177-3.933,9.41,9.41,0,0,1,0-18.459A3.99,3.99,0,0,0,61.439,7V0H58.751V7a1.3,1.3,0,0,1-1.009,1.3,12.1,12.1,0,0,0,0,23.732Zm0,0" transform="translate(-39.937)" fill="#608ed3"/>
    <path id="Path_364" data-name="Path 364" d="M29.5,31.393l1.9-1.9,3.8,3.8-1.9,1.9Zm0,0" transform="translate(-24.541 -24.538)" fill="#608ed3"/>
    <path id="Path_365" data-name="Path 365" d="M0,112H5.376v2.688H0Zm0,0" transform="translate(0 -93.186)" fill="#608ed3"/>
    <path id="Path_366" data-name="Path 366" d="M29.488,180.364l3.8-3.8,1.9,1.9-3.8,3.8Zm0,0" transform="translate(-24.535 -146.902)" fill="#608ed3"/>
    <path id="Path_367" data-name="Path 367" d="M176.566,178.475l1.9-1.9,3.8,3.8-1.9,1.9Zm0,0" transform="translate(-146.906 -146.912)" fill="#608ed3"/>
    <path id="Path_368" data-name="Path 368" d="M208,112h5.376v2.688H208Zm0,0" transform="translate(-173.059 -93.186)" fill="#608ed3"/>
    <path id="Path_369" data-name="Path 369" d="M176.574,33.29l3.8-3.8,1.9,1.9-3.8,3.8Zm0,0" transform="translate(-146.912 -24.535)" fill="#608ed3"/>
    <path id="Path_370" data-name="Path 370" d="M146.88,64.453A9.375,9.375,0,0,1,141,73.178l1.008,2.492a12.1,12.1,0,0,0,0-22.431L141,55.73A9.372,9.372,0,0,1,146.88,64.453Zm0,0" transform="translate(-117.314 -44.295)" fill="#608ed3"/>
    <path id="Path_371" data-name="Path 371" d="M339.529,20.781A10.969,10.969,0,0,1,324.477,5.727l1.742-2.9-3.259.919A15.04,15.04,0,1,0,341.516,22.3l.918-3.257Zm-12.485,9.79A12.348,12.348,0,0,1,320.758,7.59a13.551,13.551,0,0,0-.536,3.775A13.69,13.69,0,0,0,333.9,25.04a13.575,13.575,0,0,0,3.776-.537A12.408,12.408,0,0,1,327.045,30.572Zm0,0" transform="translate(-259.588 -2.35)" fill="#608ed3"/>
  </g>
</svg>
