<?xml version="1.0" encoding="utf-8"?>
<!-- Generator: Adobe Illustrator 23.0.1, SVG Export Plug-In . SVG Version: 6.00 Build 0)  -->
<svg version="1.1" id="Layer_1" xmlns="http://www.w3.org/2000/svg" xmlns:xlink="http://www.w3.org/1999/xlink" x="0px" y="0px"
	 viewBox="0 0 83.3 83.3" style="enable-background:new 0 0 83.3 83.3;" xml:space="preserve">
<style type="text/css">
	.st0{fill:#020202;}
</style>
<path id="re_ele_sociale" transform="translate(0)" class="st0" d="M83.3,64.5V7.7c0.2-4-2.9-7.5-6.9-7.7H7C2.9,0.2-0.2,3.7,0,7.7
	v56.8c-0.2,4,2.9,7.5,6.9,7.7h22.2V75h-5.6c-3.1,0-5.6,2.5-5.6,5.6c0,0,0,0,0,0v1.4c0,0.8,0.6,1.4,1.4,1.4h44.4
	c0.8,0,1.4-0.6,1.4-1.4v-1.4c0-3.1-2.5-5.6-5.6-5.6l0,0h-5.6v-2.8h22.2C80.4,72,83.5,68.5,83.3,64.5z M59.7,77.8
	c1.5,0,2.8,1.2,2.8,2.8c0,0,0,0,0,0H20.8c0-1.5,1.2-2.8,2.8-2.8c0,0,0,0,0,0L59.7,77.8z M31.9,75v-2.8h19.4V75H31.9z M76.4,69.4H7
	c-2.5-0.2-4.4-2.4-4.2-4.9v-3.4h77.8v3.4C80.7,67,78.9,69.2,76.4,69.4z M80.6,7.7v50.6H2.8V7.7C2.6,5.2,4.5,3,7,2.8h69.4
	C78.9,3,80.7,5.2,80.6,7.7z M24.6,27c-0.2,0-0.4-0.1-0.5-0.2l-2.7-2.4l-4.8,2c-0.3,0.1-0.8,0-1-0.3c-0.2-0.3-0.2-0.8,0-1.1l1.3-1.7
	c0.2-0.2,0.4-0.2,0.6-0.1c0.2,0.1,0.2,0.4,0.1,0.6l-1.2,1.6l4.8-2.1c0.2-0.1,0.3,0,0.5,0.1l2.8,2.5l5.4-6.2l-5.2,2.1
	c-0.2,0.1-0.3,0-0.5-0.1l-2.9-2.5l-1.4,1.5c-0.2,0.2-0.5,0.2-0.6,0c-0.2-0.2-0.2-0.4,0-0.6l1.4-1.6c0.3-0.3,0.8-0.4,1.2-0.1l2.7,2.4
	l5.2-2.1c0.4-0.2,0.9,0,1.1,0.5c0.1,0.3,0.1,0.6-0.2,0.9l-5.6,6.5l0,0C25,26.9,24.8,27,24.6,27z M16.2,25.7L16.2,25.7z M18.5,22.6
	c-0.2,0-0.4-0.2-0.4-0.4c0-0.2,0.2-0.4,0.4-0.4c0.2,0,0.4,0.2,0.4,0.4c0,0,0,0,0,0.1C18.9,22.5,18.7,22.6,18.5,22.6z M16.5,34.7
	c-0.2,0-0.4-0.2-0.4-0.4L15.8,31c-4.5-3.4-5.4-9.9-2-14.4c0.4-0.5,0.8-1,1.3-1.4c2.2-2,5.1-3.2,8.1-3.1c3,0,5.9,1.1,8.1,3.1
	c4.2,3.8,4.5,10.3,0.7,14.5c-0.2,0.3-0.5,0.5-0.7,0.7c-2.2,2-5.1,3.2-8.1,3.1c-1.1,0-2.2-0.1-3.2-0.4l-3.3,1.5
	C16.7,34.7,16.6,34.7,16.5,34.7z M23.2,12.9c-5.8,0-10.6,4.4-10.6,9.9c0,3,1.5,5.8,3.9,7.6c0.1,0.1,0.2,0.2,0.2,0.3l0.2,2.8l2.8-1.3
	c0.1,0,0.2-0.1,0.3,0c1,0.3,2.1,0.4,3.1,0.4c5.8,0,10.6-4.4,10.6-9.9S29,12.9,23.2,12.9z M66.5,52.1c0.2,0,0.4-0.2,0.4-0.4l0.3-3.3
	c4.5-3.4,5.4-9.9,2-14.4c-0.4-0.5-0.8-1-1.3-1.4c-2.2-2-5.1-3.2-8.1-3.1c-3,0-5.9,1.1-8.1,3.1c-4.2,3.8-4.5,10.3-0.7,14.5
	c0.2,0.3,0.5,0.5,0.7,0.7c2.2,2,5.1,3.2,8.1,3.1c1.1,0,2.2-0.1,3.2-0.4l3.3,1.5C66.4,52.1,66.4,52.1,66.5,52.1z M59.8,30.4
	c5.8,0,10.6,4.4,10.6,9.9c0,3-1.5,5.8-3.9,7.6c-0.1,0.1-0.2,0.2-0.2,0.3L66.1,51l-2.8-1.3c-0.1,0-0.2-0.1-0.3,0
	c-1,0.3-2.1,0.4-3.1,0.4c-5.8,0-10.6-4.4-10.6-9.9S54,30.4,59.8,30.4z M65,34.4c-0.1-0.1-0.2-0.1-0.3,0l-11.7,6
	c-0.1,0.1-0.2,0.3-0.1,0.4c0,0.1,0.1,0.1,0.1,0.1l3,1.5v3c0,0.1,0,0.2,0.1,0.2c0.1,0.1,0.2,0.1,0.4,0.1l3.5-1.9l2.7,1.1
	c0.1,0,0.1,0,0.2,0c0.1,0,0.2-0.1,0.2-0.2l0.7-3.4c0-0.2-0.1-0.3-0.2-0.4s-0.3,0.1-0.4,0.2l-0.6,3l-2.5-1.1c-0.1,0-0.2,0-0.3,0
	l-3.2,1.8v-2.7c0-0.1-0.1-0.2-0.2-0.3l-2.7-1.3l10.6-5.5l-0.9,4.6c0,0.2,0.1,0.3,0.2,0.4s0.3-0.1,0.4-0.2l0,0l1-5.2
	C65.2,34.5,65.1,34.4,65,34.4z M63.1,36.8c-0.1-0.1-0.3-0.2-0.4-0.1L57.5,40c-0.1,0.1-0.1,0.2-0.1,0.3v3.2c0,0.2,0.1,0.3,0.3,0.3
	c0.1,0,0.2-0.1,0.3-0.2l1.2-2.4l4-4C63.2,37.1,63.2,36.9,63.1,36.8z M58.6,40.8C58.6,40.8,58.6,40.9,58.6,40.8l-0.7,1.3v-1.8
	l2.9-1.8L58.6,40.8z"/>
</svg>
