<?xml version="1.0" encoding="utf-8"?>
<!-- Generator: Adobe Illustrator 23.0.1, SVG Export Plug-In . SVG Version: 6.00 Build 0)  -->
<svg version="1.1" id="Layer_1" xmlns="http://www.w3.org/2000/svg" xmlns:xlink="http://www.w3.org/1999/xlink" x="0px" y="0px"
	 viewBox="0 0 79.4 83.3" style="enable-background:new 0 0 79.4 83.3;" xml:space="preserve">
<style type="text/css">
	.st0{fill:#020202;}
</style>
<path id="apel_înregistrat" transform="translate(0)" class="st0" d="M58.6,4.9h2.4v2.4h-2.4V4.9z M53.8,4.9h2.4v2.4h-2.4V4.9z
	 M48.9,4.9h2.4v2.4h-2.4V4.9z M73.2,28.1V15.9h-4.9v2.4h2.4v9.8H73.2z M71.4,76h2.4v2.4h-2.4V76z M37.2,75.7h2.4v2.4h-2.4V75.7z
	 M30.6,0v33.4H33V12.2h43.9v58.6H61.3c-2.9-2.8-7.5-2.8-10.3,0H33l0-27.4h-2.4l0.1,39.9h48.8V0H30.6z M33,9.8V2.4h43.9v7.3H33z
	 M56.1,71.1c2.7,0,4.9,2.2,4.9,4.9c0,2.7-2.2,4.9-4.9,4.9c-2.7,0-4.9-2.2-4.9-4.9C51.3,73.3,53.4,71.1,56.1,71.1z M33,73.2h16.4
	c-1.1,2.6-0.5,5.6,1.3,7.6H33L33,73.2z M61.6,80.9c1.9-2.1,2.4-5,1.3-7.6h14v7.6L61.6,80.9z M30.5,36l2.4,0l0,4.9l-2.4,0L30.5,36z
	 M24.4,37.2h2.4v2.4h-2.4V37.2z M18.3,32.3h2.4v12.2h-2.4V32.3z M12.2,23.8h2.4v29.3h-2.4V23.8z M6.1,32.3h2.4v12.2H6.1V32.3z
	 M0,37.2h2.4v2.4H0V37.2z M61,37.2h2.4v2.4H61V37.2z M54.9,32.3h2.4v12.2h-2.4V32.3z M48.8,23.8h2.4v29.3h-2.4V23.8z M42.7,32.3h2.4
	v12.2h-2.4V32.3z M36.6,37.2h2.4v2.4h-2.4V37.2z"/>
</svg>
