<svg xmlns="http://www.w3.org/2000/svg" width="20.395" height="19.195" viewBox="0 0 20.395 19.195">
  <g id="pc-search" transform="translate(0 -14.076)">
    <path id="Path_1546" data-name="Path 1546" d="M18.728,14.076H1.666A1.668,1.668,0,0,0,0,15.742V27.321a1.668,1.668,0,0,0,1.666,1.666h5.72v2.234h-.9a1.025,1.025,0,1,0,0,2.049h7.429a1.025,1.025,0,0,0,0-2.049h-.9V28.988h5.718a1.668,1.668,0,0,0,1.666-1.666V15.742A1.668,1.668,0,0,0,18.728,14.076ZM16.294,27.963a.464.464,0,1,1,.464-.464A.464.464,0,0,1,16.294,27.963Zm2.049.111a.575.575,0,1,1,.575-.575A.575.575,0,0,1,18.344,28.075Zm.685-1.732H1.366v-10.6a.3.3,0,0,1,.3-.3H18.728a.3.3,0,0,1,.3.3v10.6Z" transform="translate(0 0)" fill="#00215f"/>
    <path id="Path_1547" data-name="Path 1547" d="M190.046,132.729l.751-.455a.193.193,0,0,0-.036-.347l-3.448-1.2a.193.193,0,0,0-.245.246l1.2,3.448a.192.192,0,0,0,.347.037l.455-.751,1.411,1.411a.193.193,0,0,0,.272,0l.705-.706a.193.193,0,0,0,0-.272Z" transform="translate(-179.087 -111.67)" fill="#00215f"/>
  </g>
</svg>
