<svg xmlns="http://www.w3.org/2000/svg" width="12.123" height="12.121" viewBox="0 0 12.123 12.121">
  <g id="phone-call-auricular-symbol-in-black" transform="translate(-0.001)">
    <path id="Path_542" data-name="Path 542" d="M12.069,9.7l-.06-.182a1.7,1.7,0,0,0-1.042-.985L9.374,8.1A1.561,1.561,0,0,0,8.01,8.46l-.576.576a6.115,6.115,0,0,1-4.3-4.3l.576-.576a1.559,1.559,0,0,0,.356-1.363L3.629,1.2A1.7,1.7,0,0,0,2.643.159L2.462.1A1.445,1.445,0,0,0,1.115.415l-.862.863A1.608,1.608,0,0,0,0,1.871,10.177,10.177,0,0,0,10.269,12.164a1.6,1.6,0,0,0,.619-.25l.862-.862A1.445,1.445,0,0,0,12.069,9.7Z" transform="translate(0 -0.043)" fill="#4c638f"/>
  </g>
</svg>
