<svg id="puzzle-piece-plugin" xmlns="http://www.w3.org/2000/svg" width="16.368" height="16.368" viewBox="0 0 16.368 16.368">
  <g id="extension">
    <path id="Path_701" data-name="Path 701" d="M14.42,7.794H13.25V4.677a1.563,1.563,0,0,0-1.559-1.559H8.574V1.949a1.949,1.949,0,0,0-3.9,0V3.118H1.559A1.563,1.563,0,0,0,0,4.677V7.638H1.169a2.1,2.1,0,0,1,0,4.209H0v2.962a1.563,1.563,0,0,0,1.559,1.559H4.521V15.2a2.1,2.1,0,1,1,4.209,0v1.169h2.962a1.563,1.563,0,0,0,1.559-1.559V11.692H14.42a1.949,1.949,0,1,0,0-3.9Z" fill="#00215f"/>
  </g>
</svg>
