<svg xmlns="http://www.w3.org/2000/svg" width="12.037" height="16.779" viewBox="0 0 12.037 16.779">
  <g id="phone-call-auricular-symbol-in-black" transform="translate(-2 0.392)">
    <g id="microphone" transform="translate(-57.454 -0.392)">
      <path id="Path_483" data-name="Path 483" d="M70.007,118.461v3.953c0,2.385-1.865,4.05-4.535,4.05s-4.535-1.666-4.535-4.05v-3.953H59.454v3.953a5.284,5.284,0,0,0,1.8,4.048,6.119,6.119,0,0,0,3.047,1.392v.667H61.744v2H69.2v-2H66.559v-.654a6.138,6.138,0,0,0,3.134-1.405,5.284,5.284,0,0,0,1.8-4.048v-3.953Z" transform="translate(0 -113.737)" fill="#00215f"/>
      <path id="Path_484" data-name="Path 484" d="M119.01,11.695a3.8,3.8,0,0,0,3.8-3.8V3.4A3.213,3.213,0,0,0,121.648.873a4.422,4.422,0,0,0-5.276,0A3.213,3.213,0,0,0,115.215,3.4V7.9A3.8,3.8,0,0,0,119.01,11.695Zm-1.575-9.981V3.989h1.2V1.321a3.463,3.463,0,0,1,.752,0V3.989h1.2V1.71a1.9,1.9,0,0,1,.926,1.691V5.662h-4.99V3.4A1.9,1.9,0,0,1,117.435,1.714Z" transform="translate(-53.537)" fill="#00215f"/>
    </g>
  </g>
</svg>
