<svg xmlns="http://www.w3.org/2000/svg" width="18.848" height="18.848" viewBox="0 0 18.848 18.848">
  <g id="Settings" transform="translate(0 0)">
    <g id="Group_242" data-name="Group 242" transform="translate(0 0)">
      <path id="Path_507" data-name="Path 507" d="M18.791,8.378a.614.614,0,0,0-.606-.464,2.081,2.081,0,0,1-1.424-3.622.523.523,0,0,0,.057-.711,9.325,9.325,0,0,0-1.493-1.508.524.524,0,0,0-.716.058,2.172,2.172,0,0,1-2.35.528A2.093,2.093,0,0,1,10.986.613a.523.523,0,0,0-.462-.55A9.409,9.409,0,0,0,8.4.057.524.524,0,0,0,7.937.6a2.1,2.1,0,0,1-1.29,2.011,2.178,2.178,0,0,1-2.333-.531.526.526,0,0,0-.711-.06A9.361,9.361,0,0,0,2.078,3.524a.524.524,0,0,0,.056.716,2.088,2.088,0,0,1,.527,2.351A2.179,2.179,0,0,1,.61,7.865a.512.512,0,0,0-.544.463,9.441,9.441,0,0,0,0,2.143.623.623,0,0,0,.618.463,2.067,2.067,0,0,1,1.939,1.291,2.1,2.1,0,0,1-.527,2.33.524.524,0,0,0-.057.71,9.359,9.359,0,0,0,1.491,1.508.524.524,0,0,0,.717-.057,2.169,2.169,0,0,1,2.349-.528,2.09,2.09,0,0,1,1.275,2.045.523.523,0,0,0,.462.551,9.379,9.379,0,0,0,2.12.006.524.524,0,0,0,.467-.54,2.1,2.1,0,0,1,1.289-2.01,2.175,2.175,0,0,1,2.334.531.527.527,0,0,0,.711.059,9.382,9.382,0,0,0,1.525-1.507.523.523,0,0,0-.056-.716,2.088,2.088,0,0,1-.528-2.351,2.11,2.11,0,0,1,1.928-1.278l.117,0a.525.525,0,0,0,.552-.462A9.432,9.432,0,0,0,18.791,8.378Zm-9.35,4.21a3.143,3.143,0,1,1,3.143-3.143A3.147,3.147,0,0,1,9.442,12.588Z" transform="translate(-0.003 0)" fill="#00215f" fill-rule="evenodd"/>
    </g>
  </g>
</svg>
