<svg xmlns="http://www.w3.org/2000/svg" width="13.134" height="13.133" viewBox="0 0 13.134 13.133">
  <g id="subscribe-rss-button" transform="translate(0 -0.002)">
    <g id="Group_256" data-name="Group 256" transform="translate(0 0.002)">
      <path id="Path_658" data-name="Path 658" d="M1.7,72.389a1.7,1.7,0,1,0,1.7,1.7A1.7,1.7,0,0,0,1.7,72.389Z" transform="translate(0 -62.655)" fill="#fff"/>
      <path id="Path_659" data-name="Path 659" d="M.314,36.383a.269.269,0,0,0-.278.269v2.181a.269.269,0,0,0,.257.269,5.493,5.493,0,0,1,5.262,5.262.269.269,0,0,0,.269.257H8a.269.269,0,0,0,.269-.278A8.207,8.207,0,0,0,5.861,38.8,8.208,8.208,0,0,0,.314,36.383Z" transform="translate(-0.031 -31.491)" fill="#fff"/>
      <path id="Path_660" data-name="Path 660" d="M9.316,3.85A13.065,13.065,0,0,0,.309,0,.259.259,0,0,0,.116.079.269.269,0,0,0,.035.271v2.18A.269.269,0,0,0,.3,2.72a10.535,10.535,0,0,1,10.15,10.149.269.269,0,0,0,.269.262H12.9a.269.269,0,0,0,.269-.275A13.064,13.064,0,0,0,9.316,3.85Z" transform="translate(-0.03 -0.002)" fill="#fff"/>
    </g>
  </g>
</svg>
