<svg id="telegram" xmlns="http://www.w3.org/2000/svg" width="31.332" height="31.582" viewBox="0 0 31.332 31.582">
  <path id="Path_202" data-name="Path 202" d="M6.382,31.582a2.53,2.53,0,0,1-2.524-2.528v-3.7A15.577,15.577,0,0,1,.642,13.541a15.669,15.669,0,0,1,31.091,3.917,15.646,15.646,0,0,1-21.713,12.6L7.513,31.314A2.53,2.53,0,0,1,6.382,31.582Zm7.99-29.228A13.519,13.519,0,0,0,2.86,13.834,13.362,13.362,0,0,0,5.838,24.241a1.12,1.12,0,0,1,.258.716v4.1a.287.287,0,0,0,.417.257l2.981-1.489a1.117,1.117,0,0,1,.976-.012,13.422,13.422,0,1,0,3.9-25.456Zm-.143-1.11h0Zm0,0" transform="translate(-0.5 0)" fill="#4c638f"/>
  <g id="telegram-2" data-name="telegram" transform="translate(6.909 8.883)">
    <path id="XMLID_497_" d="M.263,25.613l3.429,1.28,1.327,4.268a.4.4,0,0,0,.641.193L7.571,29.8a.57.57,0,0,1,.7-.019l3.447,2.5a.4.4,0,0,0,.633-.244l2.525-12.147a.4.4,0,0,0-.541-.459L.259,24.857A.4.4,0,0,0,.263,25.613Zm4.542.6,6.7-4.127a.117.117,0,0,1,.141.185L6.117,27.41a1.146,1.146,0,0,0-.355.686l-.188,1.4a.173.173,0,0,1-.338.024L4.51,26.97A.675.675,0,0,1,4.8,26.211Z" transform="translate(0 -19.401)" fill="#4c638f"/>
  </g>
</svg>
