<svg xmlns="http://www.w3.org/2000/svg" width="31.332" height="31.582" viewBox="0 0 31.332 31.582">
  <g id="viber" transform="translate(0)">
    <path id="Path_202" data-name="Path 202" d="M6.382,31.582a2.53,2.53,0,0,1-2.524-2.528v-3.7A15.577,15.577,0,0,1,.642,13.541a15.669,15.669,0,0,1,31.091,3.917,15.646,15.646,0,0,1-21.713,12.6L7.513,31.314A2.53,2.53,0,0,1,6.382,31.582Zm7.99-29.228A13.519,13.519,0,0,0,2.86,13.834,13.362,13.362,0,0,0,5.838,24.241a1.12,1.12,0,0,1,.258.716v4.1a.287.287,0,0,0,.417.257l2.981-1.489a1.117,1.117,0,0,1,.976-.012,13.422,13.422,0,1,0,3.9-25.456Zm-.143-1.11h0Zm0,0" transform="translate(-0.5 0)" fill="#4c638f"/>
    <g id="viber-2" data-name="viber" transform="translate(9.015 9.347)">
      <path id="XMLID_8_" d="M169.951,44.92a3.968,3.968,0,0,0-3.513-3.781c-.039,0-.081-.012-.126-.019a1.826,1.826,0,0,0-.3-.032.5.5,0,0,0-.535.449.519.519,0,0,0,.077.407.769.769,0,0,0,.553.238c.055.008.107.015.15.024,1.754.392,2.345,1.008,2.634,2.748.007.043.01.095.014.15.013.208.039.641.5.641h0a.826.826,0,0,0,.124-.01c.433-.066.42-.461.413-.651a.964.964,0,0,1,0-.138A.184.184,0,0,0,169.951,44.92Z" transform="translate(-158.897 -39.413)" fill="#4c638f"/>
      <path id="XMLID_9_" d="M161.077,1.047c.052,0,.1.007.142.014,2.881.443,4.206,1.808,4.573,4.711a1.7,1.7,0,0,1,.008.173c0,.227.011.7.518.709h.016a.5.5,0,0,0,.376-.143.794.794,0,0,0,.138-.607c0-.048,0-.094,0-.134a5.871,5.871,0,0,0-5.5-5.762.206.206,0,0,0-.036,0,.248.248,0,0,1-.035,0c-.03,0-.066,0-.1-.005s-.1-.007-.153-.007a.521.521,0,0,0-.574.536C160.414,1,160.862,1.031,161.077,1.047Z" transform="translate(-154.073)" fill="#4c638f"/>
      <path id="XMLID_10_" d="M15.8,24.9c-.061-.047-.125-.1-.184-.143-.315-.253-.649-.486-.973-.712l-.2-.141a2.008,2.008,0,0,0-1.139-.433,1.477,1.477,0,0,0-1.229.779.653.653,0,0,1-.561.34,1.113,1.113,0,0,1-.451-.113,5.435,5.435,0,0,1-2.84-2.765c-.264-.594-.179-.982.286-1.3a1.313,1.313,0,0,0,.72-1.151A6.575,6.575,0,0,0,6.913,16.1a1.314,1.314,0,0,0-.893,0,2.585,2.585,0,0,0-1.609,1.323,2.46,2.46,0,0,0,.035,1.985,16.017,16.017,0,0,0,3.515,5.351A17.037,17.037,0,0,0,13.293,28.3a2.953,2.953,0,0,0,.527.157c.049.011.091.02.122.029a.2.2,0,0,0,.052.007h.017a3.025,3.025,0,0,0,2.512-1.912C16.839,25.692,16.262,25.251,15.8,24.9Z" transform="translate(-4.219 -15.372)" fill="#4c638f"/>
      <path id="XMLID_11_" d="M170.77,83.556a.607.607,0,0,0-.638.368.493.493,0,0,0,.02.428.64.64,0,0,0,.483.256,1.142,1.142,0,0,1,1.06,1.141.54.54,0,0,0,.514.533h0a.5.5,0,0,0,.061,0c.326-.039.485-.279.47-.713a2.036,2.036,0,0,0-.635-1.377A1.9,1.9,0,0,0,170.77,83.556Z" transform="translate(-163.334 -80.15)" fill="#4c638f"/>
    </g>
  </g>
</svg>
