<svg xmlns="http://www.w3.org/2000/svg" width="31.332" height="31.582" viewBox="0 0 31.332 31.582">
  <g id="vk" transform="translate(0)">
    <path id="Path_202" data-name="Path 202" d="M6.382,31.582a2.53,2.53,0,0,1-2.524-2.528v-3.7A15.577,15.577,0,0,1,.642,13.541a15.669,15.669,0,0,1,31.091,3.917,15.646,15.646,0,0,1-21.713,12.6L7.513,31.314A2.53,2.53,0,0,1,6.382,31.582Zm7.99-29.228A13.519,13.519,0,0,0,2.86,13.834,13.362,13.362,0,0,0,5.838,24.241a1.12,1.12,0,0,1,.258.716v4.1a.287.287,0,0,0,.417.257l2.981-1.489a1.117,1.117,0,0,1,.976-.012,13.422,13.422,0,1,0,3.9-25.456Zm-.143-1.11h0Zm0,0" transform="translate(-0.5 0)" fill="#4c638f"/>
    <g id="vk-2" data-name="vk" transform="translate(6.909 10.857)">
      <path id="XMLID_807_" d="M14.794,72.243a23.4,23.4,0,0,1,1.683,1.693,4.92,4.92,0,0,1,.6.869c.232.449.022.944-.381.971H14.2a1.933,1.933,0,0,1-1.594-.648c-.347-.353-.668-.729-1-1.094a2.371,2.371,0,0,0-.451-.4.523.523,0,0,0-.834.2A2.631,2.631,0,0,0,10.052,75c-.027.59-.205.745-.8.772a6.4,6.4,0,0,1-3.583-.77A7.917,7.917,0,0,1,3.26,72.748,30.393,30.393,0,0,1,.087,67.091c-.2-.446-.054-.685.438-.694.817-.016,1.634-.015,2.452,0a.72.72,0,0,1,.68.509,15.2,15.2,0,0,0,1.662,3.079,2.626,2.626,0,0,0,.628.69.381.381,0,0,0,.648-.191,2.137,2.137,0,0,0,.144-.646,9.617,9.617,0,0,0-.04-2.264.943.943,0,0,0-.8-.863c-.239-.045-.2-.134-.088-.271a.9.9,0,0,1,.768-.382H9.4c.446.088.545.288.606.736l0,3.144c0,.174.087.689.4.8.25.082.415-.118.565-.277a9.749,9.749,0,0,0,1.593-2.449c.192-.387.357-.789.516-1.19a.606.606,0,0,1,.64-.438l2.724,0a1.436,1.436,0,0,1,.241.015c.459.078.585.276.443.724a6.8,6.8,0,0,1-1.083,1.878c-.454.629-.94,1.236-1.391,1.868-.414.577-.381.868.133,1.37Zm0,0" transform="translate(0 -66.058)" fill="#4c638f" fill-rule="evenodd"/>
    </g>
  </g>
</svg>
