<svg xmlns="http://www.w3.org/2000/svg" width="31.332" height="31.582" viewBox="0 0 31.332 31.582">
  <g id="whats" transform="translate(0)">
    <path id="Path_202" data-name="Path 202" d="M6.382,31.582a2.53,2.53,0,0,1-2.524-2.528v-3.7A15.577,15.577,0,0,1,.642,13.541a15.669,15.669,0,0,1,31.091,3.917,15.646,15.646,0,0,1-21.713,12.6L7.513,31.314A2.53,2.53,0,0,1,6.382,31.582Zm7.99-29.228A13.519,13.519,0,0,0,2.86,13.834,13.362,13.362,0,0,0,5.838,24.241a1.12,1.12,0,0,1,.258.716v4.1a.287.287,0,0,0,.417.257l2.981-1.489a1.117,1.117,0,0,1,.976-.012,13.422,13.422,0,1,0,3.9-25.456Zm-.143-1.11h0Zm0,0" transform="translate(-0.5 0)"/>
    <g id="viber" transform="translate(9.877 9.139)">
      <path id="XMLID_10_" d="M15.8,24.9c-.061-.047-.125-.1-.184-.143-.315-.253-.649-.486-.973-.712l-.2-.141a2.008,2.008,0,0,0-1.139-.433,1.477,1.477,0,0,0-1.229.779.653.653,0,0,1-.561.34,1.113,1.113,0,0,1-.451-.113,5.435,5.435,0,0,1-2.84-2.765c-.264-.594-.179-.982.286-1.3a1.313,1.313,0,0,0,.72-1.151A6.575,6.575,0,0,0,6.913,16.1a1.314,1.314,0,0,0-.893,0,2.585,2.585,0,0,0-1.609,1.323,2.46,2.46,0,0,0,.035,1.985,16.017,16.017,0,0,0,3.515,5.351A17.037,17.037,0,0,0,13.293,28.3a2.953,2.953,0,0,0,.527.157c.049.011.091.02.122.029a.2.2,0,0,0,.052.007h.017a3.025,3.025,0,0,0,2.512-1.912C16.839,25.692,16.262,25.251,15.8,24.9Z" transform="translate(-4.219 -16.025)"/>
    </g>
  </g>
</svg>
