<svg xmlns="http://www.w3.org/2000/svg" width="38.584" height="38.585" viewBox="0 0 38.584 38.585">
  <g id="wall-clock" transform="translate(-0.001)" opacity="0.997">
    <g id="Group_228" data-name="Group 228">
      <g id="Group_227" data-name="Group 227">
        <path id="Path_432" data-name="Path 432" d="M19.292,0A19.292,19.292,0,1,0,38.584,19.292,19.314,19.314,0,0,0,19.292,0Zm8.113,32.177-.831-1.43a.54.54,0,0,0-.466-.268.528.528,0,0,0-.269.073.537.537,0,0,0-.195.735l.833,1.432a15.121,15.121,0,0,1-6.169,1.77v-2.02a1.015,1.015,0,1,0-2.031,0v2.02a15.118,15.118,0,0,1-6.087-1.726l.824-1.437a.538.538,0,0,0-.465-.8.54.54,0,0,0-.467.27l-.823,1.435a15.354,15.354,0,0,1-4.615-4.458L8.389,26.76A1.015,1.015,0,1,0,7.373,25L5.626,26.011a15.123,15.123,0,0,1-1.552-6.134l1.658-.005a.537.537,0,0,0,0-1.075L4.07,18.8a15.128,15.128,0,0,1,1.555-6.227l1.748,1.009a1.015,1.015,0,0,0,1.015-1.759L6.643,10.818a15.35,15.35,0,0,1,4.536-4.409l.831,1.43a.531.531,0,0,0,.2.2.543.543,0,0,0,.538,0A.537.537,0,0,0,12.94,7.3l-.832-1.432A15.119,15.119,0,0,1,18.277,4.1v2.02a1.015,1.015,0,1,0,2.031,0V4.1a15.117,15.117,0,0,1,6.087,1.726L25.571,7.26a.538.538,0,0,0,.2.734.53.53,0,0,0,.266.071.539.539,0,0,0,.467-.27l.823-1.435a15.351,15.351,0,0,1,4.615,4.458L30.2,11.825a1.015,1.015,0,1,0,1.015,1.759l1.748-1.009a15.119,15.119,0,0,1,1.552,6.134l-1.658.005a.537.537,0,0,0-.535.539.537.537,0,0,0,.537.536h0l1.658-.005a15.127,15.127,0,0,1-1.555,6.227L31.211,25A1.015,1.015,0,0,0,30.2,26.76l1.745,1.008A15.358,15.358,0,0,1,27.405,32.177Z" fill="#dfe3eb"/>
        <path id="Path_433" data-name="Path 433" d="M114.337,134.356l-6.513,3.614a2.13,2.13,0,0,0-1.983,0l-6.513-3.614a1.275,1.275,0,1,0-1.237,2.23l6.645,3.687a2.137,2.137,0,0,0,4.194,0l6.645-3.687a1.275,1.275,0,1,0-1.237-2.23Z" transform="translate(-87.54 -120.569)" fill="#dfe3eb"/>
      </g>
    </g>
  </g>
</svg>
