<svg xmlns="http://www.w3.org/2000/svg" width="36.207" height="36.131" viewBox="0 0 36.207 36.131">
  <g id="succes" transform="translate(-705.078 -391.232)">
    <g id="diagonal-arrow" transform="translate(388.99 345)">
      <g id="Group_229" data-name="Group 229" transform="translate(337.774 60.754) rotate(-90)">
        <path id="Path_434" data-name="Path 434" d="M14.3,3.658a.364.364,0,0,0-.4.078L11.254,6.385,4.976.106a.363.363,0,0,0-.513,0L.106,4.463a.363.363,0,0,0,0,.513l6.278,6.278L3.737,13.9a.364.364,0,0,0,.256.621H14.159a.363.363,0,0,0,.363-.363V3.994A.363.363,0,0,0,14.3,3.658Z" transform="translate(0 0)" fill="#35ac00"/>
      </g>
    </g>
    <g id="phone-call-auricular-symbol-in-black" transform="translate(705.079 391.559)">
      <path id="Path_428" data-name="Path 428" d="M35.65,28.583l-.178-.537a5.035,5.035,0,0,0-3.077-2.908l-4.7-1.285a4.61,4.61,0,0,0-4.029,1.053l-1.7,1.7A18.062,18.062,0,0,1,9.247,13.9l1.7-1.7A4.605,4.605,0,0,0,12,8.167L10.72,3.459A5.029,5.029,0,0,0,7.809.385L7.272.2a4.27,4.27,0,0,0-3.978.938L.747,3.692A4.751,4.751,0,0,0,0,5.444a30.062,30.062,0,0,0,30.333,30.4,4.732,4.732,0,0,0,1.829-.739l2.547-2.547A4.27,4.27,0,0,0,35.65,28.583Z" transform="translate(0 -0.043)" fill="#dfe3eb"/>
    </g>
  </g>
</svg>
