<svg xmlns="http://www.w3.org/2000/svg" width="35.811" height="35.805" viewBox="0 0 35.811 35.805">
  <path id="Path_428" data-name="Path 428" d="M35.65,28.583l-.178-.537a5.035,5.035,0,0,0-3.077-2.908l-4.7-1.285a4.61,4.61,0,0,0-4.029,1.053l-1.7,1.7A18.062,18.062,0,0,1,9.247,13.9l1.7-1.7A4.605,4.605,0,0,0,12,8.167L10.72,3.459A5.029,5.029,0,0,0,7.809.385L7.272.2a4.27,4.27,0,0,0-3.978.938L.747,3.692A4.751,4.751,0,0,0,0,5.444a30.062,30.062,0,0,0,30.333,30.4,4.732,4.732,0,0,0,1.829-.739l2.547-2.547A4.27,4.27,0,0,0,35.65,28.583Z" transform="translate(0.001 -0.043)" fill="#dfe3eb"/>
</svg>
