<svg id="copy" xmlns="http://www.w3.org/2000/svg" width="14.316" height="17.347" viewBox="0 0 14.316 17.347">
  <path id="Path_705" data-name="Path 705" d="M30.744,0H23.457a1.922,1.922,0,0,0-1.92,1.92v.236h-1.27a1.922,1.922,0,0,0-1.92,1.92V15.427a1.922,1.922,0,0,0,1.92,1.92h7.288a1.922,1.922,0,0,0,1.92-1.92v-.236h1.27a1.922,1.922,0,0,0,1.92-1.92V1.92A1.922,1.922,0,0,0,30.744,0ZM28.236,15.427a.682.682,0,0,1-.681.681H20.267a.682.682,0,0,1-.681-.681V4.075a.682.682,0,0,1,.681-.681h7.288a.682.682,0,0,1,.681.681V15.427Zm3.19-2.156a.682.682,0,0,1-.681.681h-1.27V4.075a1.922,1.922,0,0,0-1.92-1.92h-4.78V1.92a.682.682,0,0,1,.681-.681h7.288a.682.682,0,0,1,.681.681Z" transform="translate(-18.347)" fill="#4c638f"/>
</svg>
