<svg xmlns="http://www.w3.org/2000/svg" width="31.066" height="31.067" viewBox="0 0 31.066 31.067">
  <g id="download" transform="translate(1325.336 -2.083)">
    <g id="volume" transform="translate(-1707 -938.667)">
      <circle id="Ellipse_28" data-name="Ellipse 28" cx="15.534" cy="15.534" r="15.534" transform="translate(381.664 940.75)" fill="#00215f"/>
      <g id="download-2" data-name="download" transform="translate(374.987 949.665)">
        <g id="Group_276" data-name="Group 276" transform="translate(18.896)">
          <g id="Group_275" data-name="Group 275">
            <path id="Path_1481" data-name="Path 1481" d="M134.581,6.035a.413.413,0,0,0-.377-.242h-1.655V.414A.414.414,0,0,0,132.136,0h-1.655a.414.414,0,0,0-.414.414V5.793h-1.655a.414.414,0,0,0-.311.686l2.9,3.31a.413.413,0,0,0,.622,0l2.9-3.31A.413.413,0,0,0,134.581,6.035Z" transform="translate(-127.998)" fill="#fff"/>
          </g>
        </g>
        <g id="Group_278" data-name="Group 278" transform="translate(16 9.103)">
          <g id="Group_277" data-name="Group 277">
            <path id="Path_1482" data-name="Path 1482" d="M26.758,352v2.483h-9.1V352H16v3.31a.827.827,0,0,0,.828.828H27.585a.827.827,0,0,0,.828-.828V352Z" transform="translate(-16 -352)" fill="#fff"/>
          </g>
        </g>
      </g>
    </g>
  </g>
</svg>
