<svg xmlns="http://www.w3.org/2000/svg" width="31.066" height="31.067" viewBox="0 0 31.066 31.067">
  <g id="volume" transform="translate(1325.336 -2.083)">
    <g id="volume-2" data-name="volume" transform="translate(-1707 -938.667)">
      <circle id="Ellipse_28" data-name="Ellipse 28" cx="15.534" cy="15.534" r="15.534" transform="translate(381.664 940.75)" fill="#00215f"/>
      <path id="Path_704" data-name="Path 704" d="M7.254,19.843a.658.658,0,0,1-1.079.507l-3.6-2.983H.658A.658.658,0,0,1,0,16.709V14.086a.659.659,0,0,1,.658-.659H2.576l3.6-2.983a.659.659,0,0,1,1.079.507v8.892Zm2.53-1.029-.047,0a.658.658,0,0,1-.465-.193l-.088-.088a.658.658,0,0,1-.064-.858,3.829,3.829,0,0,0-.1-4.692.658.658,0,0,1,.045-.88l.088-.088a.644.644,0,0,1,.5-.192.659.659,0,0,1,.477.241,5.273,5.273,0,0,1,.137,6.486A.659.659,0,0,1,9.784,18.814Zm2.722,2.035a.659.659,0,0,1-.476.233H12a.658.658,0,0,1-.466-.193l-.086-.086a.659.659,0,0,1-.038-.889,7.017,7.017,0,0,0-.116-9.168.659.659,0,0,1,.026-.9l.086-.086a.641.641,0,0,1,.485-.194.658.658,0,0,1,.473.221,8.454,8.454,0,0,1,.139,11.063Z" transform="translate(390 941.074)" fill="#f8fbfd"/>
    </g>
  </g>
</svg>
